<svg width="519" height="128" viewBox="0 0 519 128" fill="none" xmlns="http://www.w3.org/2000/svg">
<rect x="-21" width="56.8889" height="56.8889" rx="5.68889" fill="#E11E29"/>
<path d="M3.89442 8.88889C4.36264 9.85799 4.92668 11.2822 4.92668 13.0092C4.92668 19.6644 -2.25122 21.4763 -2.25122 27.5349C-2.25122 30.5315 -0.0712831 33.883 3.41967 33.883C6.56435 33.883 8.30874 31.9405 8.30874 29.1224C8.30874 26.7944 7.21115 24.9891 7.21115 23.3841C7.21115 20.921 9.31486 19.3748 9.31486 16.9009C9.31704 13.0332 5.53863 9.91461 3.89442 8.88889Z" fill="white"/>
<path d="M19.3812 34.7825C19.3812 39.0792 16.1167 40.9325 13.6885 40.9325C11.6458 40.9325 9.06079 39.6324 9.06079 36.05C9.06079 33.0947 10.8879 33.0033 10.8879 29.7257C10.8879 27.9073 9.59652 25.7775 9.59652 23.8088C9.59652 21.2216 12.2665 18.9153 13.6646 18.2489C13.131 18.8261 12.6236 20.381 12.6236 21.2281C12.6214 26.0257 19.3812 28.6848 19.3812 34.7825Z" fill="white"/>
<path d="M9.64839 42.3045C5.82425 40.2291 6.91095 36.6053 6.39917 36.1806C5.8874 35.7538 4.06462 37.0234 0.815398 35.9193C-1.83276 35.0155 -2.78662 32.5154 -2.94995 32.5176C-3.13941 32.5176 -3.22217 33.8896 -3.22217 34.6758C-3.22217 40.6733 1.47744 46.2222 8.12831 46.2222C13.4246 46.2222 16.8459 42.4221 16.6564 42.2609C16.4452 42.0802 12.6842 43.9508 9.64839 42.3045Z" fill="white"/>
<rect x="50.1111" width="56.8889" height="56.8889" rx="5.68889" fill="#174ABE"/>
<path d="M63.6912 36.9943C63.36 37.547 62.988 38.1936 62.6975 38.6993C62.5615 38.9344 62.5212 39.2146 62.585 39.4798C62.6488 39.745 62.8118 39.974 63.0389 40.1176L69.6636 44.2889C69.7787 44.3616 69.9069 44.4101 70.0405 44.4317C70.1742 44.4532 70.3106 44.4473 70.442 44.4143C70.5734 44.3813 70.6971 44.3218 70.8058 44.2394C70.9145 44.157 71.0061 44.0533 71.0752 43.9343C71.3351 43.4807 71.6765 42.8915 72.0485 42.2606C74.6729 37.8286 77.3177 38.3708 82.0722 40.6963L88.6409 43.8926C88.764 43.9525 88.8976 43.9866 89.0339 43.9928C89.1701 43.9989 89.3062 43.9771 89.434 43.9284C89.5618 43.8798 89.6788 43.8054 89.7781 43.7097C89.8773 43.614 89.9567 43.4989 90.0117 43.3712L93.166 36.0714C93.2732 35.8208 93.2798 35.5372 93.1845 35.2817C93.0891 35.0261 92.8995 34.8192 92.6565 34.7053C91.2704 34.0379 88.5135 32.7083 86.0317 31.483C77.0833 27.0302 69.4955 27.3221 63.6912 36.9943Z" fill="url(#paint0_linear_2090_9730)"/>
<path d="M93.3955 19.8921C93.7267 19.3394 94.0987 18.6929 94.4147 18.1871C94.5502 17.9514 94.5898 17.6707 94.525 17.4055C94.4602 17.1402 94.2961 16.9116 94.0682 16.7689L87.4435 12.5976C87.3285 12.5257 87.2008 12.4778 87.0677 12.4567C86.9346 12.4356 86.7987 12.4418 86.6679 12.4747C86.5372 12.5077 86.414 12.5669 86.3057 12.6488C86.1974 12.7308 86.1061 12.8339 86.037 12.9522C85.772 13.4058 85.4306 13.995 85.0586 14.6259C82.4342 19.0579 79.7945 18.5156 75.0349 16.1901L68.4458 13.0095C68.3229 12.9504 68.1898 12.917 68.0541 12.9112C67.9184 12.9055 67.783 12.9276 67.6557 12.9761C67.5285 13.0247 67.412 13.0988 67.3132 13.1941C67.2143 13.2893 67.1351 13.4039 67.0801 13.5309L63.9257 20.8307C63.8186 21.0813 63.812 21.3649 63.9073 21.6204C64.0027 21.8759 64.1923 22.0829 64.4353 22.1968C65.8214 22.8642 68.5834 24.1938 71.06 25.4191C80.0034 29.8354 87.5912 29.5434 93.3955 19.8921Z" fill="url(#paint1_linear_2090_9730)"/>
<rect x="121.222" width="56.8889" height="56.8889" rx="5.68889" fill="#1A58F4"/>
<path d="M141.181 13.5219L132.697 18.9272L141.181 24.3325L149.667 18.9272L141.181 13.5219Z" fill="#F5F3F0"/>
<path d="M158.151 13.5219L149.666 18.9277L158.151 24.3335L166.636 18.9277L158.151 13.5219Z" fill="#F5F3F0"/>
<path d="M132.697 29.7389L141.181 35.1442L149.667 29.7389L141.181 24.3336L132.697 29.7389Z" fill="#F5F3F0"/>
<path d="M158.151 24.3336L149.666 29.7393L158.151 35.1451L166.636 29.7393L158.151 24.3336Z" fill="#F5F3F0"/>
<path d="M141.182 36.9575L149.667 42.3628L158.152 36.9575L149.667 31.5522L141.182 36.9575Z" fill="#F5F3F0"/>
<rect x="192.333" width="56.8889" height="56.8889" rx="5.68889" fill="white"/>
<g clip-path="url(#clip0_2090_9730)">
<path d="M220.717 10.6666H235.405C236.054 10.6614 236.698 10.7854 237.299 11.0316C237.899 11.2777 238.445 11.641 238.903 12.1003C239.362 12.5595 239.725 13.1055 239.97 13.7064C240.216 14.3073 240.339 14.951 240.333 15.6001V30.2832C240.333 41.0522 231.608 49.7777 220.839 49.7777H220.728C218.167 49.7799 215.631 49.2775 213.264 48.2991C210.898 47.3207 208.747 45.8855 206.936 44.0755C205.125 42.2656 203.688 40.1164 202.707 37.7507C201.727 35.3851 201.222 32.8495 201.222 30.2887C201.222 19.4892 209.933 10.7778 220.717 10.6666Z" fill="#25C16F"/>
<path d="M220.717 19.3782C215.771 19.3782 211.762 23.3871 211.762 28.3334V34.4225C211.797 36.0523 213.11 37.365 214.74 37.4004H217.273V30.4057H213.851V28.4501C214.059 24.7676 217.106 21.8868 220.795 21.8868C224.485 21.8868 227.525 24.7621 227.733 28.4501V30.4057H224.262V37.4053H226.55V37.5166C226.526 39.0285 225.307 40.2482 223.8 40.2666H221.067C220.844 40.2666 220.6 40.3778 220.6 40.5996C220.605 40.7217 220.656 40.8374 220.743 40.9238C220.829 41.0102 220.945 41.0611 221.067 41.0665H223.817C225.775 41.0543 227.36 39.4697 227.372 37.5111V37.2886C228.026 37.1413 228.61 36.7742 229.027 36.2485C229.443 35.7229 229.667 35.0705 229.661 34.3999V28.4501C229.772 23.406 225.772 19.3837 220.706 19.3837L220.717 19.3782Z" fill="white"/>
</g>
<rect x="263.444" width="56.8889" height="56.8889" rx="5.68889" fill="white"/>
<g clip-path="url(#clip1_2090_9730)">
<path d="M297.977 21.0025L301.329 17.6507L301.552 16.2394C295.444 10.6856 285.735 11.3153 280.229 17.5534C278.7 19.286 277.565 21.446 276.96 23.6766L278.16 23.5074L284.864 22.402L285.381 21.8728C288.363 18.598 293.405 18.1574 296.848 20.9437L297.977 21.0025Z" fill="#EA4335"/>
<path d="M306.103 23.578C305.333 20.7409 303.751 18.1905 301.552 16.2395L296.848 20.9437C298.834 22.5668 299.966 25.0119 299.917 27.5765V28.4116C302.229 28.4116 304.104 30.286 304.104 32.5982C304.104 34.9105 302.229 36.738 299.917 36.738H291.532L290.709 37.6318V42.6535L291.532 43.4414H299.917C305.931 43.4882 310.845 38.6977 310.892 32.6835C310.92 29.038 309.123 25.6204 306.103 23.578Z" fill="#4285F4"/>
<path d="M283.159 43.4415H291.533V36.738H283.159C282.562 36.7379 281.985 36.6097 281.442 36.3618L280.254 36.7263L276.879 40.078L276.585 41.2188C278.478 42.648 280.787 43.4518 283.159 43.4415Z" fill="#34A853"/>
<path d="M283.158 21.6964C277.144 21.7322 272.298 26.637 272.333 32.6513C272.353 36.0098 273.922 39.1714 276.584 41.2187L281.441 36.3617C279.334 35.4096 278.398 32.9297 279.35 30.8225C280.302 28.7153 282.782 27.7789 284.889 28.7308C285.817 29.1503 286.561 29.894 286.981 30.8225L291.838 25.9654C289.771 23.2637 286.56 21.6842 283.158 21.6964Z" fill="#FBBC05"/>
</g>
<rect x="334.556" width="56.8889" height="56.8889" rx="5.68889" fill="white"/>
<g clip-path="url(#clip2_2090_9730)">
<path d="M349.182 40.8889H354.273V28.0674L347 22.4108V38.6263C347 39.8783 347.978 40.8889 349.182 40.8889Z" fill="#4285F4"/>
<path d="M371.728 40.8889H376.818C378.026 40.8889 379 39.8745 379 38.6263V22.4108L371.728 28.0674" fill="#34A853"/>
<path d="M371.728 18.2625V28.0672L379 22.4107V19.3938C379 16.5957 375.92 15.0006 373.764 16.6787" fill="#FBBC04"/>
<path d="M354.271 28.0672V18.2625L362.998 25.0504L371.726 18.2625V28.0672L362.998 34.8551" fill="#EA4335"/>
<path d="M347 19.3934V22.4102L354.273 28.0668V18.262L352.236 16.6782C350.076 15.0001 347 16.5952 347 19.3934Z" fill="#C5221F"/>
</g>
<rect x="405.667" width="56.8889" height="56.8889" rx="5.68889" fill="white"/>
<path d="M416.334 34.188C416.327 34.7665 416.472 35.3464 416.769 35.8649L420.736 42.8022C421.317 43.8183 422.392 44.4444 423.555 44.4444H444.666C445.829 44.4444 446.904 43.8183 447.485 42.8022L451.452 35.8649C451.749 35.3464 451.894 34.7665 451.887 34.188H416.334Z" fill="#4285F4"/>
<path d="M446.307 43.9967L428.51 12.9076C429.006 12.6095 429.58 12.4444 430.177 12.4444H438.045C439.207 12.4444 440.281 13.07 440.863 14.0855L451.452 32.584C452.033 33.599 452.033 34.8496 451.453 35.8649L447.485 42.8022C447.197 43.3057 446.788 43.7134 446.307 43.9967Z" fill="#FBBC04"/>
<path d="M439.711 12.9076C439.215 12.6095 438.641 12.4444 438.044 12.4444H430.177C429.014 12.4444 427.94 13.07 427.359 14.0855L416.769 32.584C416.188 33.599 416.188 34.8496 416.769 35.8649L420.736 42.8022C421.024 43.3057 421.433 43.7135 421.914 43.9967L439.711 12.9076Z" fill="#34A853"/>
<path d="M451.888 34.188C451.895 34.7666 451.75 35.3464 451.453 35.8649L447.486 42.8023C447.198 43.3058 446.789 43.7135 446.308 43.9968L440.693 34.188H451.888Z" fill="#EA4335"/>
<path d="M439.711 12.9076C439.216 12.6095 438.642 12.4444 438.045 12.4444H430.177C429.58 12.4444 429.006 12.6095 428.51 12.9076L434.111 22.6911L439.711 12.9076Z" fill="#188038"/>
<path d="M416.334 34.188C416.327 34.7665 416.472 35.3464 416.769 35.8649L420.736 42.8022C421.024 43.3057 421.433 43.7135 421.914 43.9967L427.529 34.188H416.334Z" fill="#1967D2"/>
<rect x="476.778" width="56.8889" height="56.8889" rx="5.68889" fill="white"/>
<path fill-rule="evenodd" clip-rule="evenodd" d="M514.766 18.5095V22.9528C518.775 23.5737 521.977 26.6238 522.798 30.6038C523.62 34.5838 521.888 38.6564 518.454 40.8194C515.02 42.9826 510.607 42.7807 507.384 40.3139L503.779 43.9252C503.873 44.2183 503.922 44.5235 503.927 44.8312C503.927 46.1127 503.156 47.2684 501.974 47.7586C500.792 48.2492 499.432 47.9782 498.528 47.0718C497.623 46.1654 497.353 44.8026 497.842 43.6184C498.332 42.4341 499.485 41.6621 500.764 41.6621C501.071 41.6667 501.376 41.7164 501.668 41.8096L505.311 38.1591C503.014 34.8846 502.955 30.5342 505.162 27.198L493.19 17.8595C492.612 18.1967 491.956 18.3756 491.288 18.3781C489.163 18.3755 487.442 16.6472 487.445 14.5178C487.447 12.3883 489.172 10.6641 491.297 10.6667C493.422 10.6692 495.143 12.3975 495.14 14.527C495.135 14.8519 495.089 15.1749 495.003 15.488L507.179 24.9809C508.507 23.9107 510.094 23.211 511.779 22.9528V18.5095C510.583 17.9496 509.816 16.7487 509.81 15.4258V15.3221C509.815 13.4366 511.339 11.9094 513.221 11.9043H513.324C515.206 11.9094 516.73 13.4366 516.735 15.3221V15.4258C516.73 16.7487 515.963 17.9496 514.766 18.5095ZM508.287 32.5725C508.287 35.3321 510.52 37.5691 513.274 37.5691C516.028 37.5691 518.26 35.3321 518.26 32.5725C518.26 29.813 516.028 27.576 513.274 27.576C510.52 27.576 508.287 29.813 508.287 32.5725Z" fill="#FF5C35"/>
<rect x="-21" y="71.1111" width="56.8889" height="56.8889" rx="5.68889" fill="#174ABE"/>
<path d="M20.3306 85.3333H4.90967C4.90967 89.1715 8.02952 92.2957 11.8625 92.2957H14.7149V95.0181C14.7149 98.8563 17.8348 101.98 21.6677 101.98V86.6723C21.6677 85.9135 21.0437 85.3333 20.3306 85.3333Z" fill="white"/>
<path d="M12.7091 93.0098H-2.71191C-2.71191 96.848 0.407933 99.9721 4.24089 99.9721H7.09332V102.739C7.09332 106.577 10.2132 109.701 14.0461 109.701V94.3933C14.0461 93.6346 13.4222 93.0098 12.7091 93.0098Z" fill="url(#paint2_linear_2090_9730)"/>
<path d="M5.08771 100.686H-10.3333C-10.3333 104.524 -7.2134 107.649 -3.38045 107.649H-0.572583V110.371C-0.572583 114.209 2.54727 117.333 6.38022 117.333V101.98C6.42479 101.311 5.80082 100.686 5.08771 100.686Z" fill="url(#paint3_linear_2090_9730)"/>
<rect x="50.1111" y="71.1111" width="56.8889" height="56.8889" rx="5.68889" fill="white"/>
<path fill-rule="evenodd" clip-rule="evenodd" d="M83.568 80.0852L63.013 81.611C61.3547 81.7551 60.7778 82.8441 60.7778 84.1492V106.795C60.7778 107.812 61.1371 108.682 62.0037 109.844L66.8355 116.158C67.6294 117.175 68.3511 117.393 69.8668 117.321L93.7368 115.868C95.755 115.724 96.3334 114.779 96.3334 113.183V87.706C96.3334 86.8809 96.0091 86.6431 95.0544 85.939L88.3292 81.1738C86.7419 80.0139 86.0929 79.8672 83.568 80.0848V80.0852ZM70.4065 87.2889C68.4574 87.4207 68.0153 87.4506 66.9083 86.546L64.094 84.2963C63.808 84.0051 63.9517 83.6419 64.6724 83.5695L84.4324 82.1183C86.0918 81.9727 86.9558 82.554 87.6048 83.0617L90.9938 85.5294C91.1387 85.603 91.499 86.0372 91.0655 86.0372L70.6591 87.2718L70.4065 87.2889ZM68.1342 112.965V91.3373C68.1342 90.3928 68.4228 89.9571 69.2869 89.884L92.7249 88.5049C93.5198 88.4328 93.879 88.9406 93.879 89.8836V111.368C93.879 112.312 93.7342 113.111 92.4366 113.183L70.0079 114.49C68.7104 114.562 68.1346 114.128 68.1346 112.965H68.1342ZM90.2742 92.4969C90.418 93.1502 90.2742 93.8035 89.6241 93.8782L88.5431 94.0936V110.062C87.6044 110.57 86.7404 110.86 86.0182 110.86C84.864 110.86 84.5758 110.497 83.7113 109.409L76.6421 98.2312V109.045L78.8784 109.554C78.8784 109.554 78.8784 110.861 77.0742 110.861L72.1001 111.151C71.9552 110.86 72.1001 110.134 72.6042 109.99L73.9032 109.628V95.3293L72.1005 95.1826C71.9556 94.5293 72.3159 93.5859 73.3263 93.5127L78.6633 93.1517L86.0186 104.474V94.4572L84.1437 94.2407C83.9989 93.4407 84.5758 92.8594 85.2964 92.7885L90.2742 92.4969Z" fill="black"/>
<rect x="121.222" y="71.1111" width="56.8889" height="56.8889" rx="5.68889" fill="white"/>
<g clip-path="url(#clip3_2090_9730)">
<path d="M145.446 94.8477L145.446 94.8465L152.91 99.3173L157.358 97.4456C158.261 97.0549 159.236 96.8546 160.221 96.8555C160.385 96.8555 160.547 96.863 160.708 96.8738C160.173 94.7887 159.044 92.9038 157.459 91.4482C155.873 89.9925 153.899 89.0288 151.775 88.6741C149.652 88.3195 147.472 88.5891 145.499 89.4502C143.526 90.3114 141.846 91.727 140.663 93.5251C140.701 93.5246 140.738 93.5222 140.776 93.5222C142.426 93.52 144.043 93.9791 145.446 94.8477Z" fill="#0364B8"/>
<path d="M145.447 94.8465L145.447 94.8477C144.045 93.9791 142.427 93.52 140.778 93.5223C140.74 93.5223 140.702 93.5246 140.664 93.5251C139.05 93.5451 137.471 94.0047 136.098 94.8544C134.725 95.7042 133.61 96.912 132.872 98.3481C132.133 99.7842 131.801 101.394 131.909 103.005C132.017 104.616 132.562 106.167 133.486 107.492L140.068 104.722L142.994 103.491L149.509 100.749L152.911 99.3173L145.447 94.8465Z" fill="#0078D4"/>
<path d="M160.708 96.8737C160.546 96.863 160.384 96.8555 160.22 96.8555C159.236 96.8546 158.261 97.0557 157.358 97.4464L152.91 99.3173L154.199 100.09L158.427 102.622L160.272 103.727L166.579 107.505C167.152 106.441 167.449 105.25 167.442 104.042C167.436 102.834 167.127 101.646 166.542 100.588C165.958 99.5304 165.118 98.6361 164.099 97.9871C163.079 97.3382 161.913 96.9554 160.708 96.8737Z" fill="#1490DF"/>
<path d="M160.274 103.727L158.429 102.622L154.201 100.09L152.912 99.3173L149.509 100.749L142.994 103.491L140.068 104.722L133.486 107.492C134.304 108.668 135.394 109.628 136.664 110.292C137.934 110.955 139.345 111.301 140.778 111.3H160.222C161.526 111.3 162.805 110.948 163.925 110.28C165.044 109.611 165.962 108.653 166.581 107.505L160.274 103.727Z" fill="#28A8EA"/>
</g>
<rect x="192.333" y="71.1111" width="56.8889" height="56.8889" rx="5.68889" fill="white"/>
<path fill-rule="evenodd" clip-rule="evenodd" d="M233.038 87.5626L226.833 99.6321L233.038 111.701L235.58 110.25V89.014L233.038 87.5626Z" fill="#E25444"/>
<path fill-rule="evenodd" clip-rule="evenodd" d="M233.038 87.5627L220.627 89.0141L214.309 99.6322L220.627 110.25L233.038 111.702V87.5627Z" fill="#7B1D13"/>
<path fill-rule="evenodd" clip-rule="evenodd" d="M207.993 87.5627L205.974 88.4794V110.785L207.993 111.702L220.628 99.6322L207.993 87.5627Z" fill="#58150D"/>
<path fill-rule="evenodd" clip-rule="evenodd" d="M207.965 87.5372L220.644 91.1359V108.451L207.965 111.71V87.5372Z" fill="#E25444"/>
<path fill-rule="evenodd" clip-rule="evenodd" d="M220.651 93.0372L215.267 92.1544L220.651 85.9075L226.022 92.1544L220.651 93.0372Z" fill="#58150D"/>
<path fill-rule="evenodd" clip-rule="evenodd" d="M226.022 92.1544L220.644 93.0507L215.267 92.1544V85.9075" fill="#58150D"/>
<path fill-rule="evenodd" clip-rule="evenodd" d="M220.651 106.142L215.267 107.161L220.651 112.525L226.022 107.161L220.651 106.142Z" fill="#58150D"/>
<path fill-rule="evenodd" clip-rule="evenodd" d="M220.628 81.2224L215.245 84.1252V92.1461L220.645 90.5928L220.628 81.2224Z" fill="#7B1D13"/>
<path fill-rule="evenodd" clip-rule="evenodd" d="M220.644 95.0062L215.267 95.6038V103.612L220.644 104.241V95.0062Z" fill="#7B1D13"/>
<path fill-rule="evenodd" clip-rule="evenodd" d="M220.644 108.519L215.267 107.141V115.014L220.644 117.889V108.519Z" fill="#7B1D13"/>
<path fill-rule="evenodd" clip-rule="evenodd" d="M226.021 107.141L220.644 108.519V117.889L226.021 115.014V107.141Z" fill="#E25444"/>
<path fill-rule="evenodd" clip-rule="evenodd" d="M220.644 95.0062L226.021 95.6038V103.612L220.644 104.241V95.0062Z" fill="#E25444"/>
<path fill-rule="evenodd" clip-rule="evenodd" d="M220.628 81.2224L226.012 84.1252V92.1461L220.628 90.6183V81.2224Z" fill="#E25444"/>
<rect x="263.444" y="71.1111" width="56.8889" height="56.8889" rx="5.68889" fill="white"/>
<path fill-rule="evenodd" clip-rule="evenodd" d="M289.614 90.0304C290.819 88.7476 292.496 87.9532 294.349 87.9532C296.82 87.9532 298.961 89.3568 300.114 91.448C301.137 90.9802 302.246 90.7386 303.367 90.7392C307.814 90.7392 311.424 94.4585 311.424 99.048C311.424 103.637 307.814 107.357 303.367 107.357C302.823 107.357 302.293 107.301 301.775 107.195C300.766 109.034 298.837 110.283 296.641 110.283C295.747 110.285 294.864 110.077 294.061 109.677C293.038 112.133 290.657 113.859 287.884 113.859C284.988 113.859 282.531 111.993 281.584 109.368C281.163 109.459 280.733 109.505 280.302 109.504C276.857 109.504 274.071 106.613 274.071 103.062C274.071 100.676 275.326 98.5991 277.187 97.4763C276.792 96.5462 276.589 95.5429 276.59 94.529C276.59 90.4307 279.843 87.1184 283.85 87.1184C286.198 87.1184 288.298 88.2623 289.615 90.0377" fill="#00A1E0"/>
<rect x="334.556" y="71.1111" width="56.8889" height="56.8889" rx="5.68889" fill="white"/>
<g clip-path="url(#clip4_2090_9730)">
<path d="M354.133 103.489C354.133 105.308 352.663 106.778 350.844 106.778C349.025 106.778 347.555 105.308 347.555 103.489C347.555 101.67 349.025 100.2 350.844 100.2H354.133V103.489ZM355.777 103.489C355.777 101.67 357.247 100.2 359.066 100.2C360.885 100.2 362.355 101.67 362.355 103.489V111.712C362.355 113.531 360.885 115.001 359.066 115.001C357.247 115.001 355.777 113.531 355.777 111.712V103.489Z" fill="#E01E5A"/>
<path d="M359.066 90.2831C357.247 90.2831 355.777 88.813 355.777 86.9941C355.777 85.1752 357.247 83.7051 359.066 83.7051C360.885 83.7051 362.355 85.1752 362.355 86.9941V90.2831H359.066ZM359.066 91.9526C360.885 91.9526 362.355 93.4227 362.355 95.2416C362.355 97.0605 360.885 98.5306 359.066 98.5306H350.818C348.999 98.5306 347.529 97.0605 347.529 95.2416C347.529 93.4227 348.999 91.9526 350.818 91.9526H359.066Z" fill="#36C5F0"/>
<path d="M372.248 95.2416C372.248 93.4227 373.718 91.9526 375.537 91.9526C377.356 91.9526 378.826 93.4227 378.826 95.2416C378.826 97.0605 377.356 98.5306 375.537 98.5306H372.248V95.2416ZM370.604 95.2416C370.604 97.0605 369.134 98.5306 367.315 98.5306C365.496 98.5306 364.026 97.0605 364.026 95.2416V86.9941C364.026 85.1752 365.496 83.7051 367.315 83.7051C369.134 83.7051 370.604 85.1752 370.604 86.9941V95.2416Z" fill="#2EB67D"/>
<path d="M367.315 108.423C369.134 108.423 370.604 109.893 370.604 111.712C370.604 113.531 369.134 115.001 367.315 115.001C365.496 115.001 364.026 113.531 364.026 111.712V108.423H367.315ZM367.315 106.778C365.496 106.778 364.026 105.308 364.026 103.489C364.026 101.67 365.496 100.2 367.315 100.2H375.562C377.381 100.2 378.851 101.67 378.851 103.489C378.851 105.308 377.381 106.778 375.562 106.778H367.315Z" fill="#ECB22E"/>
</g>
<rect x="405.667" y="71.1111" width="56.8889" height="56.8889" rx="5.68889" fill="white"/>
<g clip-path="url(#clip5_2090_9730)">
<path fill-rule="evenodd" clip-rule="evenodd" d="M433.321 93.6893V112.014H418.106L433.321 93.6893Z" fill="#16140C"/>
<path fill-rule="evenodd" clip-rule="evenodd" d="M433.321 87.1111C433.321 91.3031 429.915 94.701 425.713 94.701C421.512 94.701 418.106 91.3031 418.106 87.1111H433.321Z" fill="#16140C"/>
<path fill-rule="evenodd" clip-rule="evenodd" d="M435.829 112.013C435.829 107.821 439.234 104.423 443.436 104.423C447.638 104.423 451.042 107.821 451.042 112.013H435.829Z" fill="#16140C"/>
<path fill-rule="evenodd" clip-rule="evenodd" d="M435.829 105.438V87.1111H451.042L435.829 105.438Z" fill="#16140C"/>
</g>
<rect x="476.778" y="71.1111" width="56.8889" height="56.8889" rx="5.68889" fill="white"/>
<g clip-path="url(#clip6_2090_9730)">
<path d="M505.331 101.451C511.254 101.451 516.056 96.6493 516.056 90.7256C516.056 84.802 511.254 79.9999 505.331 79.9999C499.407 79.9999 494.605 84.802 494.605 90.7256C494.605 96.6493 499.407 101.451 505.331 101.451Z" fill="#036C70"/>
<path d="M514.269 110.389C519.699 110.389 524.101 105.988 524.101 100.557C524.101 95.1275 519.699 90.7256 514.269 90.7256C508.839 90.7256 504.437 95.1275 504.437 100.557C504.437 105.988 508.839 110.389 514.269 110.389Z" fill="#1A9BA1"/>
<path d="M506.67 117.54C510.866 117.54 514.268 114.138 514.268 109.943C514.268 105.747 510.866 102.345 506.67 102.345C502.474 102.345 499.073 105.747 499.073 109.943C499.073 114.138 502.474 117.54 506.67 117.54Z" fill="#37C6D0"/>
<path opacity="0.1" d="M507.118 89.6799V108.754C507.114 109.417 506.712 110.012 506.099 110.264C505.904 110.347 505.694 110.389 505.482 110.389H499.083C499.074 110.238 499.074 110.095 499.074 109.943C499.071 109.793 499.077 109.644 499.092 109.496C499.255 106.639 501.015 104.118 503.641 102.98V101.317C497.797 100.391 493.811 94.9032 494.737 89.0593C494.743 89.0189 494.75 88.9784 494.757 88.938C494.801 88.6366 494.864 88.3381 494.944 88.0442H505.482C506.384 88.0477 507.115 88.778 507.118 89.6799Z" fill="black"/>
<path opacity="0.2" d="M504.589 88.9381H494.757C493.764 94.7714 497.687 100.305 503.52 101.299C503.697 101.329 503.874 101.354 504.052 101.375C501.282 102.689 499.262 106.421 499.091 109.496C499.076 109.644 499.07 109.793 499.073 109.943C499.073 110.095 499.073 110.238 499.082 110.39C499.098 110.69 499.137 110.989 499.198 111.283H504.588C505.251 111.279 505.846 110.877 506.098 110.264C506.181 110.069 506.223 109.86 506.223 109.648V90.5738C506.22 89.6722 505.49 88.942 504.589 88.9381Z" fill="black"/>
<path opacity="0.2" d="M504.589 88.9381H494.757C493.764 94.7719 497.688 100.306 503.522 101.299C503.641 101.319 503.761 101.338 503.881 101.354C501.199 102.763 499.26 106.485 499.092 109.496H504.589C505.489 109.489 506.217 108.761 506.224 107.86V90.5738C506.221 89.6718 505.491 88.9415 504.589 88.9381Z" fill="black"/>
<path opacity="0.2" d="M503.694 88.9381H494.756C493.819 94.4453 497.27 99.7488 502.684 101.123C500.634 103.465 499.377 106.396 499.091 109.496H503.695C504.596 109.492 505.327 108.762 505.33 107.86V90.5738C505.33 89.6706 504.598 88.9386 503.694 88.9381Z" fill="black"/>
<path d="M487.305 88.9381H503.692C504.597 88.9381 505.331 89.6716 505.331 90.5765V106.964C505.331 107.868 504.597 108.602 503.692 108.602H487.305C486.4 108.602 485.667 107.868 485.667 106.964V90.5765C485.667 89.6716 486.4 88.9381 487.305 88.9381Z" fill="url(#paint4_linear_2090_9730)"/>
<path d="M492.983 98.5696C492.599 98.3149 492.279 97.9758 492.046 97.5783C491.82 97.1628 491.707 96.6952 491.719 96.2224C491.699 95.5823 491.915 94.9572 492.326 94.4661C492.758 93.9743 493.316 93.6102 493.94 93.4131C494.652 93.179 495.397 93.0637 496.145 93.0717C497.13 93.0357 498.113 93.1734 499.05 93.4784V95.5342C498.643 95.2876 498.2 95.1066 497.736 94.9979C497.234 94.8746 496.718 94.8128 496.2 94.8138C495.654 94.7937 495.112 94.9085 494.621 95.148C494.242 95.3115 493.996 95.6845 493.995 96.0973C493.993 96.3477 494.09 96.5888 494.263 96.7694C494.468 96.9823 494.71 97.1557 494.978 97.2807C495.276 97.4291 495.723 97.6263 496.319 97.8724C496.384 97.8931 496.448 97.9188 496.51 97.9493C497.097 98.1785 497.662 98.4575 498.201 98.7832C498.609 99.0348 498.952 99.3798 499.201 99.7896C499.455 100.254 499.579 100.78 499.558 101.309C499.587 101.966 499.386 102.613 498.99 103.138C498.594 103.62 498.066 103.976 497.47 104.16C496.769 104.38 496.038 104.486 495.303 104.475C494.645 104.478 493.987 104.424 493.337 104.314C492.789 104.224 492.253 104.067 491.743 103.846V101.678C492.231 102.026 492.775 102.286 493.352 102.447C493.927 102.626 494.525 102.722 495.127 102.731C495.685 102.766 496.241 102.648 496.736 102.39C497.083 102.194 497.294 101.823 497.285 101.425C497.287 101.148 497.178 100.882 496.981 100.687C496.737 100.447 496.454 100.25 496.144 100.103C495.786 99.9246 495.26 99.6889 494.564 99.3963C494.011 99.1739 493.481 98.897 492.983 98.5696Z" fill="white"/>
</g>
<defs>
<linearGradient id="paint0_linear_2090_9730" x1="92.9673" y1="46.4266" x2="72.6995" y2="35.0442" gradientUnits="userSpaceOnUse">
<stop stop-color="white" stop-opacity="0.48"/>
<stop offset="0.38" stop-color="white" stop-opacity="0.66"/>
<stop offset="1" stop-color="white"/>
</linearGradient>
<linearGradient id="paint1_linear_2090_9730" x1="64.1194" y1="10.4442" x2="84.3872" y2="21.8266" gradientUnits="userSpaceOnUse">
<stop stop-color="white" stop-opacity="0.5"/>
<stop offset="0.39" stop-color="white" stop-opacity="0.68"/>
<stop offset="1" stop-color="white"/>
</linearGradient>
<linearGradient id="paint2_linear_2090_9730" x1="13.7041" y1="93.0423" x2="7.13872" y2="99.8037" gradientUnits="userSpaceOnUse">
<stop offset="0.15" stop-color="white" stop-opacity="0.4"/>
<stop offset="0.29" stop-color="white" stop-opacity="0.47"/>
<stop offset="0.56" stop-color="white" stop-opacity="0.66"/>
<stop offset="0.95" stop-color="white" stop-opacity="0.96"/>
<stop offset="1" stop-color="white"/>
</linearGradient>
<linearGradient id="paint3_linear_2090_9730" x1="6.51277" y1="100.774" x2="-1.07855" y2="108.15" gradientUnits="userSpaceOnUse">
<stop offset="0.15" stop-color="white" stop-opacity="0.4"/>
<stop offset="0.29" stop-color="white" stop-opacity="0.47"/>
<stop offset="0.56" stop-color="white" stop-opacity="0.66"/>
<stop offset="0.95" stop-color="white" stop-opacity="0.96"/>
<stop offset="1" stop-color="white"/>
</linearGradient>
<linearGradient id="paint4_linear_2090_9730" x1="489.083" y1="87.6579" x2="501.915" y2="109.882" gradientUnits="userSpaceOnUse">
<stop stop-color="#058F92"/>
<stop offset="0.5" stop-color="#038489"/>
<stop offset="1" stop-color="#026D71"/>
</linearGradient>
<clipPath id="clip0_2090_9730">
<rect width="39.1111" height="39.1111" fill="white" transform="translate(201.222 10.6667)"/>
</clipPath>
<clipPath id="clip1_2090_9730">
<rect width="38.5588" height="31.0278" fill="white" transform="translate(272.333 12.4444)"/>
</clipPath>
<clipPath id="clip2_2090_9730">
<rect width="32" height="24.8889" fill="white" transform="translate(347 16)"/>
</clipPath>
<clipPath id="clip3_2090_9730">
<rect width="35.5554" height="22.7777" fill="white" transform="translate(131.889 88.5223)"/>
</clipPath>
<clipPath id="clip4_2090_9730">
<rect width="31.6444" height="31.6444" fill="white" transform="translate(347.355 83.5556)"/>
</clipPath>
<clipPath id="clip5_2090_9730">
<rect width="33.9394" height="26.6667" fill="white" transform="translate(417.142 87.1111)"/>
</clipPath>
<clipPath id="clip6_2090_9730">
<rect width="38.4339" height="37.5401" fill="white" transform="translate(485.667 80)"/>
</clipPath>
</defs>
</svg>
