<svg width="301" height="211" viewBox="0 0 301 211" fill="none" xmlns="http://www.w3.org/2000/svg">
<g filter="url(#filter0_d_2090_14078)">
<rect x="13" y="11" width="275" height="184.167" rx="10.0686" fill="white" shape-rendering="crispEdges"/>
<path d="M30.5605 28.865V37.103H28.8188V28.865H30.5605ZM33.6749 33.531V37.103H31.9613V30.9245H33.5944V32.0146H33.6668C33.8036 31.6552 34.0329 31.371 34.3547 31.1618C34.6765 30.95 35.0667 30.844 35.5252 30.844C35.9543 30.844 36.3284 30.9379 36.6475 31.1256C36.9666 31.3133 37.2146 31.5815 37.3916 31.9301C37.5686 32.276 37.6571 32.689 37.6571 33.169V37.103H35.9436V33.4747C35.9462 33.0966 35.8497 32.8016 35.6539 32.5898C35.4582 32.3753 35.1887 32.268 34.8454 32.268C34.6148 32.268 34.411 32.3176 34.234 32.4168C34.0597 32.516 33.9229 32.6609 33.8237 32.8512C33.7272 33.039 33.6776 33.2656 33.6749 33.531ZM44.5466 30.9245L42.3865 37.103H40.4557L38.2957 30.9245H40.1058L41.3889 35.3452H41.4533L42.7324 30.9245H44.5466ZM45.4235 37.103V30.9245H47.137V37.103H45.4235ZM46.2843 30.128C46.0295 30.128 45.811 30.0436 45.6286 29.8746C45.4489 29.703 45.3591 29.4979 45.3591 29.2592C45.3591 29.0232 45.4489 28.8207 45.6286 28.6518C45.811 28.4802 46.0295 28.3944 46.2843 28.3944C46.539 28.3944 46.7562 28.4802 46.9359 28.6518C47.1183 28.8207 47.2094 29.0232 47.2094 29.2592C47.2094 29.4979 47.1183 29.703 46.9359 29.8746C46.7562 30.0436 46.539 30.128 46.2843 30.128ZM51.796 30.9245V32.2117H48.0753V30.9245H51.796ZM48.92 29.4442H50.6336V35.2044C50.6336 35.3626 50.6577 35.486 50.706 35.5744C50.7542 35.6603 50.8213 35.7206 50.9071 35.7555C50.9956 35.7903 51.0975 35.8078 51.2128 35.8078C51.2932 35.8078 51.3737 35.801 51.4541 35.7876C51.5346 35.7715 51.5963 35.7595 51.6392 35.7514L51.9087 37.0266C51.8229 37.0534 51.7022 37.0842 51.5467 37.1191C51.3911 37.1566 51.2021 37.1794 50.9795 37.1875C50.5665 37.2035 50.2045 37.1486 49.8934 37.0225C49.585 36.8965 49.345 36.7007 49.1734 36.4353C49.0018 36.1698 48.9173 35.8346 48.92 35.4296V29.4442ZM55.6616 37.2237C55.0261 37.2237 54.479 37.0949 54.0205 36.8375C53.5646 36.5774 53.2133 36.21 52.9666 35.7353C52.7199 35.258 52.5965 34.6935 52.5965 34.0419C52.5965 33.4063 52.7199 32.8486 52.9666 32.3686C53.2133 31.8885 53.5606 31.5145 54.0084 31.2463C54.4589 30.9781 54.9872 30.844 55.5932 30.844C56.0008 30.844 56.3803 30.9097 56.7316 31.0411C57.0856 31.1699 57.394 31.3643 57.6568 31.6244C57.9222 31.8845 58.1287 32.2117 58.2762 32.6059C58.4237 32.9974 58.4975 33.456 58.4975 33.9816V34.4522H53.2803V33.3903H56.8844C56.8844 33.1435 56.8308 32.925 56.7235 32.7346C56.6163 32.5442 56.4675 32.3954 56.2771 32.2881C56.0893 32.1782 55.8708 32.1232 55.6214 32.1232C55.3613 32.1232 55.1307 32.1835 54.9295 32.3042C54.7311 32.4222 54.5756 32.5817 54.4629 32.7829C54.3503 32.9813 54.2926 33.2025 54.29 33.4466V34.4562C54.29 34.7619 54.3463 35.0261 54.4589 35.2486C54.5742 35.4712 54.7365 35.6428 54.9456 35.7635C55.1548 35.8842 55.4028 35.9445 55.6898 35.9445C55.8802 35.9445 56.0545 35.9177 56.2127 35.8641C56.3709 35.8104 56.5063 35.73 56.619 35.6227C56.7316 35.5155 56.8174 35.3841 56.8764 35.2285L58.4612 35.3331C58.3808 35.7139 58.2159 36.0464 57.9665 36.3307C57.7198 36.6122 57.4007 36.8321 57.0091 36.9904C56.6203 37.1459 56.1711 37.2237 55.6616 37.2237ZM66.1994 34.4723V30.9245H67.913V37.103H66.2678V35.9807H66.2035C66.064 36.3427 65.8321 36.6337 65.5076 36.8536C65.1858 37.0735 64.7929 37.1834 64.329 37.1834C63.916 37.1834 63.5527 37.0896 63.2389 36.9019C62.9252 36.7141 62.6798 36.4473 62.5028 36.1014C62.3285 35.7555 62.24 35.3411 62.2373 34.8585V30.9245H63.9509V34.5527C63.9536 34.9174 64.0515 35.2057 64.2445 35.4176C64.4376 35.6294 64.6964 35.7353 65.0209 35.7353C65.2274 35.7353 65.4204 35.6884 65.6001 35.5946C65.7798 35.498 65.9246 35.3559 66.0345 35.1682C66.1472 34.9805 66.2021 34.7485 66.1994 34.4723ZM74.4244 32.6863L72.8556 32.7829C72.8288 32.6488 72.7711 32.5281 72.6826 32.4208C72.5941 32.3109 72.4775 32.2237 72.3327 32.1594C72.1906 32.0923 72.0203 32.0588 71.8218 32.0588C71.5563 32.0588 71.3324 32.1151 71.1501 32.2278C70.9677 32.3377 70.8766 32.4852 70.8766 32.6702C70.8766 32.8177 70.9356 32.9424 71.0535 33.0443C71.1715 33.1462 71.374 33.228 71.6609 33.2897L72.7792 33.515C73.3799 33.6383 73.8277 33.8367 74.1227 34.1103C74.4177 34.3838 74.5651 34.7431 74.5651 35.1883C74.5651 35.5932 74.4458 35.9485 74.2071 36.2542C73.9712 36.56 73.6467 36.7986 73.2337 36.9702C72.8234 37.1392 72.3501 37.2237 71.8138 37.2237C70.9959 37.2237 70.3443 37.0534 69.8589 36.7128C69.3762 36.3696 69.0933 35.9029 69.0101 35.313L70.6955 35.2245C70.7465 35.4739 70.8699 35.6643 71.0656 35.7957C71.2614 35.9244 71.5121 35.9888 71.8178 35.9888C72.1182 35.9888 72.3595 35.9311 72.5419 35.8158C72.7269 35.6978 72.8207 35.5463 72.8234 35.3613C72.8207 35.2057 72.755 35.0783 72.6263 34.9791C72.4976 34.8772 72.2992 34.7995 72.031 34.7458L70.961 34.5326C70.3577 34.412 69.9085 34.2028 69.6135 33.9051C69.3212 33.6075 69.1751 33.228 69.1751 32.7668C69.1751 32.3699 69.2823 32.028 69.4969 31.7411C69.7141 31.4541 70.0184 31.2329 70.41 31.0773C70.8042 30.9218 71.2654 30.844 71.7937 30.844C72.574 30.844 73.1881 31.009 73.636 31.3388C74.0865 31.6686 74.3493 32.1178 74.4244 32.6863ZM78.4599 37.2237C77.8243 37.2237 77.2773 37.0949 76.8187 36.8375C76.3628 36.5774 76.0116 36.21 75.7648 35.7353C75.5181 35.258 75.3948 34.6935 75.3948 34.0419C75.3948 33.4063 75.5181 32.8486 75.7648 32.3686C76.0116 31.8885 76.3588 31.5145 76.8067 31.2463C77.2572 30.9781 77.7855 30.844 78.3915 30.844C78.7991 30.844 79.1786 30.9097 79.5299 31.0411C79.8838 31.1699 80.1922 31.3643 80.455 31.6244C80.7205 31.8845 80.927 32.2117 81.0745 32.6059C81.222 32.9974 81.2957 33.456 81.2957 33.9816V34.4522H76.0786V33.3903H79.6827C79.6827 33.1435 79.6291 32.925 79.5218 32.7346C79.4145 32.5442 79.2657 32.3954 79.0753 32.2881C78.8876 32.1782 78.6691 32.1232 78.4197 32.1232C78.1595 32.1232 77.9289 32.1835 77.7278 32.3042C77.5294 32.4222 77.3738 32.5817 77.2612 32.7829C77.1486 32.9813 77.0909 33.2025 77.0882 33.4466V34.4562C77.0882 34.7619 77.1445 35.0261 77.2572 35.2486C77.3725 35.4712 77.5347 35.6428 77.7439 35.7635C77.9531 35.8842 78.2011 35.9445 78.488 35.9445C78.6784 35.9445 78.8527 35.9177 79.011 35.8641C79.1692 35.8104 79.3046 35.73 79.4172 35.6227C79.5299 35.5155 79.6157 35.3841 79.6747 35.2285L81.2595 35.3331C81.1791 35.7139 81.0141 36.0464 80.7648 36.3307C80.518 36.6122 80.1989 36.8321 79.8074 36.9904C79.4186 37.1459 78.9694 37.2237 78.4599 37.2237ZM82.414 37.103V30.9245H84.0752V32.0025H84.1396C84.2522 31.619 84.4413 31.3294 84.7068 31.1337C84.9722 30.9352 85.2779 30.836 85.6239 30.836C85.7097 30.836 85.8022 30.8414 85.9014 30.8521C86.0006 30.8628 86.0878 30.8776 86.1629 30.8963V32.4168C86.0824 32.3927 85.9711 32.3712 85.829 32.3525C85.6869 32.3337 85.5568 32.3243 85.4388 32.3243C85.1868 32.3243 84.9615 32.3793 84.7631 32.4892C84.5673 32.5965 84.4118 32.7467 84.2965 32.9397C84.1838 33.1328 84.1275 33.3554 84.1275 33.6075V37.103H82.414ZM92.1895 32.6863L90.6208 32.7829C90.594 32.6488 90.5363 32.5281 90.4478 32.4208C90.3593 32.3109 90.2427 32.2237 90.0979 32.1594C89.9557 32.0923 89.7854 32.0588 89.587 32.0588C89.3215 32.0588 89.0976 32.1151 88.9152 32.2278C88.7329 32.3377 88.6417 32.4852 88.6417 32.6702C88.6417 32.8177 88.7007 32.9424 88.8187 33.0443C88.9367 33.1462 89.1392 33.228 89.4261 33.2897L90.5443 33.515C91.145 33.6383 91.5929 33.8367 91.8878 34.1103C92.1828 34.3838 92.3303 34.7431 92.3303 35.1883C92.3303 35.5932 92.211 35.9485 91.9723 36.2542C91.7363 36.56 91.4119 36.7986 90.9989 36.9702C90.5886 37.1392 90.1153 37.2237 89.579 37.2237C88.7611 37.2237 88.1094 37.0534 87.624 36.7128C87.1413 36.3696 86.8584 35.9029 86.7753 35.313L88.4607 35.2245C88.5117 35.4739 88.635 35.6643 88.8308 35.7957C89.0265 35.9244 89.2773 35.9888 89.583 35.9888C89.8833 35.9888 90.1247 35.9311 90.307 35.8158C90.4921 35.6978 90.5859 35.5463 90.5886 35.3613C90.5859 35.2057 90.5202 35.0783 90.3915 34.9791C90.2628 34.8772 90.0643 34.7995 89.7962 34.7458L88.7262 34.5326C88.1228 34.412 87.6737 34.2028 87.3787 33.9051C87.0864 33.6075 86.9402 33.228 86.9402 32.7668C86.9402 32.3699 87.0475 32.028 87.262 31.7411C87.4792 31.4541 87.7836 31.2329 88.1751 31.0773C88.5693 30.9218 89.0306 30.844 89.5588 30.844C90.3392 30.844 90.9533 31.009 91.4011 31.3388C91.8516 31.6686 92.1144 32.1178 92.1895 32.6863Z" fill="#343A40"/>
<path d="M269.121 29.8787L261.57 37.4302M269.121 37.4302L261.57 29.8787" stroke="black" stroke-width="1.25858" stroke-linecap="round"/>
<rect x="28.4174" y="56.6236" width="244.165" height="24.5423" rx="4.71968" stroke="#D946EF" stroke-width="0.629291"/>
<rect x="34.3958" y="60.0069" width="94.6888" height="17.7757" rx="2.51716" fill="white"/>
<rect x="34.3958" y="60.0069" width="94.6888" height="17.7757" rx="2.51716" stroke="#CECECE" stroke-width="0.629291"/>
<path d="M41.885 73.661C41.5306 73.661 41.2255 73.6146 40.9699 73.5216C40.7162 73.4286 40.5089 73.3056 40.3482 73.1526C40.1874 72.9996 40.0674 72.8321 39.988 72.6501L40.7346 72.3421C40.7869 72.4273 40.8566 72.5174 40.9437 72.6123C41.0328 72.7091 41.1529 72.7914 41.304 72.8592C41.457 72.927 41.6536 72.9609 41.8937 72.9609C42.223 72.9609 42.4951 72.8805 42.71 72.7198C42.925 72.561 43.0325 72.3073 43.0325 71.9586V71.0813H42.9773C42.925 71.1762 42.8495 71.2818 42.7507 71.398C42.6539 71.5142 42.5202 71.6149 42.3498 71.7001C42.1794 71.7853 41.9576 71.8279 41.6845 71.8279C41.3321 71.8279 41.0144 71.7456 40.7317 71.581C40.4508 71.4144 40.2281 71.1694 40.0635 70.846C39.9008 70.5206 39.8195 70.1207 39.8195 69.6462C39.8195 69.1717 39.8998 68.765 40.0606 68.426C40.2233 68.0871 40.446 67.8276 40.7288 67.6475C41.0115 67.4654 41.3321 67.3744 41.6903 67.3744C41.9673 67.3744 42.191 67.4209 42.3614 67.5138C42.5319 67.6049 42.6645 67.7114 42.7594 67.8334C42.8563 67.9554 42.9308 68.0629 42.9831 68.1559H43.047V67.4325H43.8982V71.9935C43.8982 72.377 43.8091 72.6917 43.631 72.9377C43.4528 73.1836 43.2117 73.3657 42.9076 73.4838C42.6055 73.602 42.2646 73.661 41.885 73.661ZM41.8763 71.1074C42.1261 71.1074 42.3372 71.0493 42.5096 70.9331C42.6839 70.815 42.8156 70.6465 42.9047 70.4277C42.9957 70.2069 43.0412 69.9425 43.0412 69.6346C43.0412 69.3344 42.9967 69.07 42.9076 68.8415C42.8185 68.6129 42.6878 68.4347 42.5154 68.3069C42.343 68.1772 42.13 68.1123 41.8763 68.1123C41.6148 68.1123 41.3969 68.1801 41.2226 68.3156C41.0483 68.4493 40.9166 68.6313 40.8275 68.8618C40.7404 69.0923 40.6968 69.3499 40.6968 69.6346C40.6968 69.927 40.7413 70.1836 40.8304 70.4044C40.9195 70.6252 41.0512 70.7976 41.2255 70.9215C41.4018 71.0455 41.6187 71.1074 41.8763 71.1074ZM46.9864 71.9848C46.5467 71.9848 46.1681 71.8909 45.8505 71.703C45.5348 71.5132 45.2907 71.2469 45.1184 70.9041C44.9479 70.5593 44.8627 70.1555 44.8627 69.6927C44.8627 69.2356 44.9479 68.8327 45.1184 68.4841C45.2907 68.1355 45.5309 67.8634 45.8388 67.6678C46.1487 67.4722 46.5109 67.3744 46.9253 67.3744C47.1771 67.3744 47.4212 67.416 47.6574 67.4993C47.8937 67.5826 48.1058 67.7133 48.2937 67.8915C48.4815 68.0697 48.6297 68.3011 48.7381 68.5858C48.8466 68.8686 48.9008 69.2123 48.9008 69.6171V69.9251H45.3537V69.2743H48.0496C48.0496 69.0458 48.0031 68.8434 47.9102 68.6672C47.8172 68.489 47.6865 68.3486 47.518 68.2459C47.3514 68.1433 47.1558 68.0919 46.9312 68.0919C46.6871 68.0919 46.4741 68.152 46.292 68.2721C46.1119 68.3902 45.9725 68.5451 45.8737 68.7369C45.7769 68.9267 45.7284 69.1329 45.7284 69.3557V69.8641C45.7284 70.1623 45.7807 70.416 45.8853 70.6252C45.9918 70.8344 46.14 70.9941 46.3298 71.1045C46.5196 71.213 46.7414 71.2672 46.9951 71.2672C47.1597 71.2672 47.3098 71.244 47.4454 71.1975C47.5809 71.1491 47.6981 71.0774 47.7969 70.9825C47.8957 70.8876 47.9712 70.7705 48.0235 70.631L48.8456 70.7792C48.7798 71.0213 48.6616 71.2333 48.4912 71.4154C48.3227 71.5955 48.1106 71.7359 47.855 71.8366C47.6013 71.9354 47.3117 71.9848 46.9864 71.9848ZM51.7442 71.9848C51.3259 71.9848 50.9608 71.8889 50.649 71.6972C50.3372 71.5054 50.0951 71.2372 49.9227 70.8925C49.7503 70.5477 49.6641 70.1449 49.6641 69.6839C49.6641 69.2211 49.7503 68.8163 49.9227 68.4696C50.0951 68.1229 50.3372 67.8537 50.649 67.662C50.9608 67.4703 51.3259 67.3744 51.7442 67.3744C52.1625 67.3744 52.5276 67.4703 52.8394 67.662C53.1512 67.8537 53.3933 68.1229 53.5657 68.4696C53.7381 68.8163 53.8242 69.2211 53.8242 69.6839C53.8242 70.1449 53.7381 70.5477 53.5657 70.8925C53.3933 71.2372 53.1512 71.5054 52.8394 71.6972C52.5276 71.8889 52.1625 71.9848 51.7442 71.9848ZM51.7471 71.2556C52.0182 71.2556 52.2429 71.1839 52.4211 71.0406C52.5993 70.8973 52.731 70.7065 52.8162 70.4683C52.9033 70.2301 52.9469 69.9677 52.9469 69.681C52.9469 69.3963 52.9033 69.1349 52.8162 68.8967C52.731 68.6565 52.5993 68.4638 52.4211 68.3185C52.2429 68.1733 52.0182 68.1007 51.7471 68.1007C51.474 68.1007 51.2474 68.1733 51.0673 68.3185C50.8891 68.4638 50.7565 68.6565 50.6693 68.8967C50.5841 69.1349 50.5415 69.3963 50.5415 69.681C50.5415 69.9677 50.5841 70.2301 50.6693 70.4683C50.7565 70.7065 50.8891 70.8973 51.0673 71.0406C51.2474 71.1839 51.474 71.2556 51.7471 71.2556ZM54.7938 71.8947V67.4325H55.6334V68.1413H55.6799C55.7612 67.9012 55.9045 67.7123 56.1098 67.5748C56.3171 67.4354 56.5514 67.3657 56.8129 67.3657C56.8671 67.3657 56.931 67.3676 57.0046 67.3715C57.0801 67.3754 57.1392 67.3802 57.1818 67.386V68.2169C57.147 68.2072 57.085 68.1965 56.9959 68.1849C56.9068 68.1714 56.8177 68.1646 56.7286 68.1646C56.5233 68.1646 56.3403 68.2082 56.1796 68.2953C56.0208 68.3805 55.8949 68.4996 55.8019 68.6526C55.7089 68.8037 55.6625 68.9761 55.6625 69.1697V71.8947H54.7938ZM59.6446 73.661C59.2902 73.661 58.9852 73.6146 58.7295 73.5216C58.4758 73.4286 58.2686 73.3056 58.1078 73.1526C57.9471 72.9996 57.827 72.8321 57.7476 72.6501L58.4942 72.3421C58.5465 72.4273 58.6162 72.5174 58.7034 72.6123C58.7925 72.7091 58.9125 72.7914 59.0636 72.8592C59.2166 72.927 59.4132 72.9609 59.6533 72.9609C59.9826 72.9609 60.2547 72.8805 60.4697 72.7198C60.6847 72.561 60.7921 72.3073 60.7921 71.9586V71.0813H60.7369C60.6847 71.1762 60.6091 71.2818 60.5103 71.398C60.4135 71.5142 60.2799 71.6149 60.1094 71.7001C59.939 71.7853 59.7173 71.8279 59.4442 71.8279C59.0917 71.8279 58.7741 71.7456 58.4913 71.581C58.2105 71.4144 57.9877 71.1694 57.8231 70.846C57.6604 70.5206 57.5791 70.1207 57.5791 69.6462C57.5791 69.1717 57.6595 68.765 57.8202 68.426C57.9829 68.0871 58.2056 67.8276 58.4884 67.6475C58.7712 67.4654 59.0917 67.3744 59.45 67.3744C59.7269 67.3744 59.9506 67.4209 60.1211 67.5138C60.2915 67.6049 60.4242 67.7114 60.5191 67.8334C60.6159 67.9554 60.6905 68.0629 60.7428 68.1559H60.8067V67.4325H61.6579V71.9935C61.6579 72.377 61.5688 72.6917 61.3906 72.9377C61.2124 73.1836 60.9713 73.3657 60.6672 73.4838C60.3651 73.602 60.0242 73.661 59.6446 73.661ZM59.6359 71.1074C59.8858 71.1074 60.0969 71.0493 60.2692 70.9331C60.4435 70.815 60.5752 70.6465 60.6643 70.4277C60.7553 70.2069 60.8009 69.9425 60.8009 69.6346C60.8009 69.3344 60.7563 69.07 60.6672 68.8415C60.5781 68.6129 60.4474 68.4347 60.275 68.3069C60.1027 68.1772 59.8896 68.1123 59.6359 68.1123C59.3745 68.1123 59.1566 68.1801 58.9823 68.3156C58.808 68.4493 58.6763 68.6313 58.5872 68.8618C58.5 69.0923 58.4564 69.3499 58.4564 69.6346C58.4564 69.927 58.501 70.1836 58.5901 70.4044C58.6792 70.6252 58.8109 70.7976 58.9852 70.9215C59.1614 71.0455 59.3783 71.1074 59.6359 71.1074ZM64.746 71.9848C64.3064 71.9848 63.9277 71.8909 63.6101 71.703C63.2944 71.5132 63.0504 71.2469 62.878 70.9041C62.7076 70.5593 62.6224 70.1555 62.6224 69.6927C62.6224 69.2356 62.7076 68.8327 62.878 68.4841C63.0504 68.1355 63.2905 67.8634 63.5985 67.6678C63.9084 67.4722 64.2705 67.3744 64.685 67.3744C64.9368 67.3744 65.1808 67.416 65.4171 67.4993C65.6534 67.5826 65.8654 67.7133 66.0533 67.8915C66.2412 68.0697 66.3893 68.3011 66.4978 68.5858C66.6062 68.8686 66.6605 69.2123 66.6605 69.6171V69.9251H63.1133V69.2743H65.8093C65.8093 69.0458 65.7628 68.8434 65.6698 68.6672C65.5769 68.489 65.4461 68.3486 65.2776 68.2459C65.1111 68.1433 64.9155 68.0919 64.6908 68.0919C64.4468 68.0919 64.2337 68.152 64.0517 68.2721C63.8716 68.3902 63.7321 68.5451 63.6333 68.7369C63.5365 68.9267 63.4881 69.1329 63.4881 69.3557V69.8641C63.4881 70.1623 63.5404 70.416 63.645 70.6252C63.7515 70.8344 63.8996 70.9941 64.0894 71.1045C64.2792 71.213 64.501 71.2672 64.7547 71.2672C64.9193 71.2672 65.0694 71.244 65.205 71.1975C65.3406 71.1491 65.4577 71.0774 65.5565 70.9825C65.6553 70.8876 65.7308 70.7705 65.7831 70.631L66.6053 70.7792C66.5394 71.0213 66.4213 71.2333 66.2508 71.4154C66.0823 71.5955 65.8703 71.7359 65.6146 71.8366C65.3609 71.9354 65.0714 71.9848 64.746 71.9848ZM71.2062 73.5129C70.6058 73.5129 70.0732 73.4306 69.6084 73.2659C69.1455 73.1033 68.7553 72.8631 68.4377 72.5455C68.12 72.2298 67.8789 71.8424 67.7143 71.3834C67.5497 70.9244 67.4674 70.4005 67.4674 69.8118C67.4674 69.2385 67.5506 68.7233 67.7172 68.2663C67.8837 67.8092 68.1258 67.4199 68.4435 67.0984C68.763 66.775 69.1513 66.528 69.6084 66.3576C70.0655 66.1872 70.5845 66.1019 71.1656 66.1019C71.7214 66.1019 72.2114 66.1891 72.6355 66.3634C73.0597 66.5377 73.416 66.7769 73.7046 67.081C73.9951 67.385 74.214 67.7336 74.3612 68.1268C74.5084 68.52 74.582 68.9354 74.582 69.3731C74.582 69.6791 74.5626 69.9783 74.5239 70.2708C74.4851 70.5613 74.4135 70.8247 74.3089 71.061C74.2062 71.2953 74.0571 71.4832 73.8615 71.6246C73.6678 71.764 73.416 71.8366 73.1062 71.8424C72.9415 71.8482 72.7818 71.8289 72.6268 71.7843C72.4719 71.7398 72.3402 71.6681 72.2317 71.5694C72.1233 71.4686 72.0574 71.3408 72.0342 71.1859H71.9993C71.9528 71.3002 71.8754 71.4067 71.7669 71.5054C71.6585 71.6023 71.52 71.6798 71.3515 71.7379C71.1849 71.794 70.9912 71.8173 70.7705 71.8076C70.5264 71.7979 70.3066 71.7427 70.111 71.642C69.9154 71.5413 69.7479 71.4018 69.6084 71.2237C69.4709 71.0455 69.3654 70.8344 69.2918 70.5903C69.2182 70.3463 69.1814 70.0752 69.1814 69.7769C69.1814 69.4903 69.223 69.2337 69.3063 69.0071C69.3896 68.7785 69.5029 68.5819 69.6462 68.4173C69.7914 68.2508 69.958 68.1191 70.1459 68.0222C70.3337 67.9254 70.5322 67.8644 70.7414 67.8392C70.9448 67.816 71.1317 67.8218 71.3021 67.8566C71.4725 67.8915 71.6139 67.9448 71.7262 68.0164C71.8405 68.0881 71.9122 68.1665 71.9412 68.2517H71.979V67.9264H72.6936V70.6223C72.6936 70.7753 72.7333 70.9051 72.8127 71.0116C72.8941 71.1181 73.0093 71.1714 73.1585 71.1714C73.3347 71.1714 73.4722 71.1065 73.571 70.9767C73.6717 70.847 73.7424 70.6475 73.7831 70.3783C73.8257 70.1091 73.847 69.7643 73.847 69.344C73.847 69.0497 73.8073 68.7727 73.7279 68.5132C73.6504 68.2517 73.5351 68.0154 73.3821 67.8043C73.2311 67.5913 73.0452 67.4083 72.8244 67.2553C72.6036 67.1023 72.3518 66.9841 72.069 66.9009C71.7882 66.8176 71.4774 66.7759 71.1365 66.7759C70.6736 66.7759 70.2621 66.8476 69.9018 66.9909C69.5416 67.1323 69.2375 67.3366 68.9896 67.6039C68.7437 67.8712 68.5568 68.1917 68.4289 68.5655C68.3031 68.9373 68.2401 69.3547 68.2401 69.8176C68.2401 70.2998 68.305 70.7278 68.4348 71.1016C68.5645 71.4735 68.7562 71.7872 69.01 72.0429C69.2637 72.2985 69.5774 72.4922 69.9512 72.6239C70.325 72.7575 70.7559 72.8244 71.244 72.8244C71.4609 72.8244 71.6739 72.805 71.8831 72.7663C72.0923 72.7295 72.2782 72.6869 72.4409 72.6384C72.6055 72.592 72.7285 72.5542 72.8098 72.5251L73.0132 73.1614C72.8931 73.2175 72.7333 73.2727 72.5339 73.3269C72.3363 73.3812 72.1213 73.4257 71.8889 73.4606C71.6585 73.4954 71.4309 73.5129 71.2062 73.5129ZM70.939 71.0958C71.1907 71.0958 71.3931 71.0455 71.5461 70.9448C71.7011 70.844 71.8124 70.694 71.8802 70.4945C71.9499 70.293 71.9848 70.0413 71.9848 69.7391C71.9829 69.4448 71.9451 69.2104 71.8715 69.0361C71.7998 68.8599 71.6875 68.734 71.5345 68.6584C71.3834 68.581 71.1888 68.5422 70.9506 68.5422C70.7317 68.5422 70.5448 68.5955 70.3899 68.702C70.2369 68.8085 70.1197 68.9528 70.0384 69.1349C69.959 69.3169 69.9183 69.5193 69.9164 69.742C69.9183 69.9764 69.9512 70.1972 70.0151 70.4044C70.081 70.6097 70.1875 70.7763 70.3347 70.9041C70.4838 71.0319 70.6852 71.0958 70.939 71.0958ZM75.6111 71.8947V65.9451H76.4797V68.1559H76.532C76.5824 68.0629 76.655 67.9554 76.7499 67.8334C76.8448 67.7114 76.9765 67.6049 77.145 67.5138C77.3135 67.4209 77.5362 67.3744 77.8132 67.3744C78.1734 67.3744 78.4949 67.4654 78.7777 67.6475C79.0604 67.8295 79.2822 68.0919 79.4429 68.4347C79.6056 68.7776 79.687 69.1901 79.687 69.6723C79.687 70.1546 79.6066 70.5681 79.4458 70.9128C79.2851 71.2556 79.0643 71.52 78.7835 71.7059C78.5026 71.8899 78.1821 71.9819 77.8219 71.9819C77.5507 71.9819 77.329 71.9364 77.1566 71.8453C76.9862 71.7543 76.8525 71.6478 76.7557 71.5258C76.6589 71.4038 76.5843 71.2953 76.532 71.2004H76.4594V71.8947H75.6111ZM76.4623 69.6636C76.4623 69.9774 76.5078 70.2524 76.5988 70.4887C76.6899 70.7249 76.8215 70.9099 76.9939 71.0435C77.1663 71.1752 77.3774 71.2411 77.6272 71.2411C77.8868 71.2411 78.1037 71.1723 78.278 71.0348C78.4523 70.8954 78.584 70.7065 78.6731 70.4683C78.7641 70.2301 78.8096 69.9619 78.8096 69.6636C78.8096 69.3692 78.7651 69.1049 78.676 68.8705C78.5888 68.6362 78.4571 68.4512 78.2809 68.3156C78.1066 68.1801 77.8887 68.1123 77.6272 68.1123C77.3755 68.1123 77.1624 68.1772 76.9881 68.3069C76.8157 68.4367 76.685 68.6178 76.5959 68.8502C76.5068 69.0826 76.4623 69.3537 76.4623 69.6636ZM82.5419 71.9848C82.1236 71.9848 81.7585 71.8889 81.4467 71.6972C81.1349 71.5054 80.8928 71.2372 80.7204 70.8925C80.5481 70.5477 80.4619 70.1449 80.4619 69.6839C80.4619 69.2211 80.5481 68.8163 80.7204 68.4696C80.8928 68.1229 81.1349 67.8537 81.4467 67.662C81.7585 67.4703 82.1236 67.3744 82.5419 67.3744C82.9603 67.3744 83.3254 67.4703 83.6372 67.662C83.949 67.8537 84.1911 68.1229 84.3634 68.4696C84.5358 68.8163 84.622 69.2211 84.622 69.6839C84.622 70.1449 84.5358 70.5477 84.3634 70.8925C84.1911 71.2372 83.949 71.5054 83.6372 71.6972C83.3254 71.8889 82.9603 71.9848 82.5419 71.9848ZM82.5448 71.2556C82.816 71.2556 83.0407 71.1839 83.2188 71.0406C83.397 70.8973 83.5287 70.7065 83.6139 70.4683C83.7011 70.2301 83.7447 69.9677 83.7447 69.681C83.7447 69.3963 83.7011 69.1349 83.6139 68.8967C83.5287 68.6565 83.397 68.4638 83.2188 68.3185C83.0407 68.1733 82.816 68.1007 82.5448 68.1007C82.2718 68.1007 82.0452 68.1733 81.8651 68.3185C81.6869 68.4638 81.5542 68.6565 81.4671 68.8967C81.3818 69.1349 81.3392 69.3963 81.3392 69.681C81.3392 69.9677 81.3818 70.2301 81.4671 70.4683C81.5542 70.7065 81.6869 70.8973 81.8651 71.0406C82.0452 71.1839 82.2718 71.2556 82.5448 71.2556ZM87.4712 71.9848C87.0528 71.9848 86.6878 71.8889 86.376 71.6972C86.0641 71.5054 85.8221 71.2372 85.6497 70.8925C85.4773 70.5477 85.3911 70.1449 85.3911 69.6839C85.3911 69.2211 85.4773 68.8163 85.6497 68.4696C85.8221 68.1229 86.0641 67.8537 86.376 67.662C86.6878 67.4703 87.0528 67.3744 87.4712 67.3744C87.8895 67.3744 88.2546 67.4703 88.5664 67.662C88.8782 67.8537 89.1203 68.1229 89.2927 68.4696C89.4651 68.8163 89.5512 69.2211 89.5512 69.6839C89.5512 70.1449 89.4651 70.5477 89.2927 70.8925C89.1203 71.2372 88.8782 71.5054 88.5664 71.6972C88.2546 71.8889 87.8895 71.9848 87.4712 71.9848ZM87.4741 71.2556C87.7452 71.2556 87.9699 71.1839 88.1481 71.0406C88.3263 70.8973 88.4579 70.7065 88.5432 70.4683C88.6303 70.2301 88.6739 69.9677 88.6739 69.681C88.6739 69.3963 88.6303 69.1349 88.5432 68.8967C88.4579 68.6565 88.3263 68.4638 88.1481 68.3185C87.9699 68.1733 87.7452 68.1007 87.4741 68.1007C87.201 68.1007 86.9744 68.1733 86.7943 68.3185C86.6161 68.4638 86.4834 68.6565 86.3963 68.8967C86.3111 69.1349 86.2685 69.3963 86.2685 69.681C86.2685 69.9677 86.3111 70.2301 86.3963 70.4683C86.4834 70.7065 86.6161 70.8973 86.7943 71.0406C86.9744 71.1839 87.201 71.2556 87.4741 71.2556ZM93.8646 68.5219L93.0773 68.6613C93.0444 68.5606 92.9921 68.4648 92.9204 68.3737C92.8507 68.2827 92.7558 68.2082 92.6357 68.15C92.5157 68.0919 92.3656 68.0629 92.1854 68.0629C91.9395 68.0629 91.7342 68.1181 91.5696 68.2285C91.4049 68.3369 91.3226 68.4774 91.3226 68.6497C91.3226 68.7989 91.3778 68.9189 91.4882 69.01C91.5986 69.101 91.7768 69.1756 92.0228 69.2337L92.7316 69.3963C93.1422 69.4912 93.4482 69.6375 93.6496 69.835C93.851 70.0326 93.9517 70.2892 93.9517 70.6049C93.9517 70.8721 93.8743 71.1104 93.7193 71.3195C93.5663 71.5267 93.3523 71.6894 93.0773 71.8076C92.8042 71.9257 92.4876 71.9848 92.1273 71.9848C91.6277 71.9848 91.22 71.8783 90.9043 71.6652C90.5886 71.4502 90.3949 71.1452 90.3233 70.7501L91.1628 70.6223C91.2151 70.8411 91.3226 71.0067 91.4853 71.1191C91.648 71.2295 91.8601 71.2847 92.1215 71.2847C92.4062 71.2847 92.6338 71.2256 92.8042 71.1074C92.9747 70.9874 93.0599 70.8411 93.0599 70.6688C93.0599 70.5293 93.0076 70.4122 92.903 70.3173C92.8004 70.2224 92.6425 70.1507 92.4295 70.1023L91.6741 69.9367C91.2577 69.8418 90.9498 69.6907 90.7503 69.4835C90.5528 69.2763 90.454 69.0138 90.454 68.6962C90.454 68.4328 90.5276 68.2023 90.6748 68.0048C90.822 67.8072 91.0253 67.6533 91.2849 67.5429C91.5444 67.4306 91.8417 67.3744 92.1767 67.3744C92.659 67.3744 93.0386 67.479 93.3155 67.6881C93.5925 67.8954 93.7755 68.1733 93.8646 68.5219ZM96.9898 67.4325V68.1297H94.5524V67.4325H96.9898ZM95.206 66.3634H96.0747V70.5845C96.0747 70.753 96.0998 70.8799 96.1502 70.9651C96.2005 71.0484 96.2654 71.1055 96.3448 71.1365C96.4262 71.1655 96.5143 71.1801 96.6092 71.1801C96.6789 71.1801 96.7399 71.1752 96.7922 71.1655C96.8445 71.1559 96.8852 71.1481 96.9142 71.1423L97.0711 71.8599C97.0207 71.8792 96.9491 71.8986 96.8561 71.918C96.7632 71.9393 96.647 71.9509 96.5075 71.9528C96.279 71.9567 96.0659 71.916 95.8684 71.8308C95.6708 71.7456 95.5111 71.6139 95.389 71.4357C95.267 71.2575 95.206 71.0338 95.206 70.7646V66.3634ZM98.5229 71.9499C98.3641 71.9499 98.2276 71.8938 98.1133 71.7814C97.999 71.6672 97.9419 71.5297 97.9419 71.3689C97.9419 71.2101 97.999 71.0745 98.1133 70.9622C98.2276 70.8479 98.3641 70.7908 98.5229 70.7908C98.6817 70.7908 98.8183 70.8479 98.9326 70.9622C99.0468 71.0745 99.104 71.2101 99.104 71.3689C99.104 71.4754 99.0768 71.5732 99.0226 71.6623C98.9703 71.7495 98.9006 71.8192 98.8134 71.8715C98.7263 71.9238 98.6295 71.9499 98.5229 71.9499ZM101.566 71.9935C101.283 71.9935 101.028 71.9412 100.799 71.8366C100.571 71.7301 100.389 71.5761 100.256 71.3747C100.124 71.1733 100.058 70.9264 100.058 70.6339C100.058 70.3821 100.107 70.1749 100.204 70.0122C100.3 69.8495 100.431 69.7207 100.596 69.6258C100.76 69.5309 100.944 69.4593 101.148 69.4109C101.351 69.3624 101.558 69.3256 101.769 69.3005C102.037 69.2695 102.254 69.2443 102.42 69.2249C102.587 69.2036 102.708 69.1697 102.783 69.1233C102.859 69.0768 102.897 69.0012 102.897 68.8967V68.8763C102.897 68.6226 102.825 68.426 102.682 68.2866C102.54 68.1471 102.329 68.0774 102.048 68.0774C101.756 68.0774 101.525 68.1423 101.357 68.2721C101.19 68.3999 101.075 68.5422 101.011 68.6991L100.195 68.5132C100.292 68.242 100.433 68.0232 100.619 67.8566C100.807 67.6881 101.023 67.5661 101.267 67.4906C101.511 67.4131 101.767 67.3744 102.037 67.3744C102.215 67.3744 102.404 67.3957 102.603 67.4383C102.805 67.479 102.992 67.5545 103.167 67.6649C103.343 67.7753 103.487 67.9331 103.6 68.1384C103.712 68.3418 103.768 68.6062 103.768 68.9315V71.8947H102.92V71.2847H102.885C102.829 71.397 102.745 71.5074 102.632 71.6158C102.52 71.7243 102.376 71.8144 102.199 71.886C102.023 71.9577 101.812 71.9935 101.566 71.9935ZM101.755 71.2963C101.995 71.2963 102.2 71.2488 102.371 71.1539C102.543 71.059 102.674 70.9351 102.763 70.7821C102.854 70.6271 102.899 70.4615 102.899 70.2853V69.7101C102.868 69.7411 102.808 69.7701 102.719 69.7972C102.632 69.8224 102.532 69.8447 102.42 69.8641C102.308 69.8815 102.198 69.898 102.092 69.9134C101.985 69.927 101.896 69.9386 101.825 69.9483C101.656 69.9696 101.502 70.0054 101.363 70.0558C101.225 70.1062 101.115 70.1788 101.031 70.2737C100.95 70.3666 100.909 70.4906 100.909 70.6455C100.909 70.8605 100.989 71.0232 101.148 71.1336C101.307 71.242 101.509 71.2963 101.755 71.2963ZM104.925 71.8947V67.4325H105.794V71.8947H104.925ZM105.364 66.744C105.213 66.744 105.083 66.6936 104.974 66.5929C104.868 66.4903 104.815 66.3683 104.815 66.2269C104.815 66.0835 104.868 65.9615 104.974 65.8608C105.083 65.7582 105.213 65.7069 105.364 65.7069C105.515 65.7069 105.644 65.7582 105.75 65.8608C105.859 65.9615 105.913 66.0835 105.913 66.2269C105.913 66.3683 105.859 66.4903 105.75 66.5929C105.644 66.6936 105.515 66.744 105.364 66.744Z" fill="#1D1D1F"/>
<path fill-rule="evenodd" clip-rule="evenodd" d="M116.143 66.0217C116.237 65.9273 116.365 65.8743 116.499 65.8743C116.632 65.8743 116.76 65.9273 116.855 66.0217L119.016 68.1829L121.177 66.0217C121.224 65.9736 121.279 65.9353 121.34 65.9089C121.402 65.8825 121.468 65.8686 121.535 65.868C121.602 65.8674 121.668 65.8802 121.73 65.9055C121.792 65.9308 121.848 65.9682 121.895 66.0154C121.942 66.0627 121.98 66.1189 122.005 66.1808C122.03 66.2427 122.043 66.309 122.043 66.3758C122.042 66.4426 122.028 66.5087 122.002 66.5701C121.975 66.6316 121.937 66.6871 121.889 66.7335L119.728 68.8948L121.889 71.056C121.981 71.151 122.031 71.2781 122.03 71.4101C122.029 71.5421 121.976 71.6684 121.883 71.7617C121.789 71.8551 121.663 71.908 121.531 71.9092C121.399 71.9103 121.272 71.8596 121.177 71.7679L119.016 69.6066L116.855 71.7679C116.76 71.8596 116.632 71.9103 116.5 71.9092C116.368 71.908 116.242 71.8551 116.149 71.7617C116.056 71.6684 116.003 71.5421 116.001 71.4101C116 71.2781 116.051 71.151 116.143 71.056L118.304 68.8948L116.143 66.7335C116.048 66.6391 115.995 66.5111 115.995 66.3776C115.995 66.2441 116.048 66.1161 116.143 66.0217Z" fill="#3F3F46"/>
<rect x="134.119" y="60.0069" width="86.6888" height="17.7757" rx="2.51716" fill="white"/>
<rect x="134.119" y="60.0069" width="86.6888" height="17.7757" rx="2.51716" stroke="#CECECE" stroke-width="0.629291"/>
<path d="M141.036 71.9935C140.753 71.9935 140.497 71.9412 140.269 71.8366C140.04 71.7301 139.859 71.5761 139.726 71.3747C139.594 71.1733 139.528 70.9264 139.528 70.6339C139.528 70.3821 139.576 70.1749 139.673 70.0122C139.77 69.8495 139.901 69.7207 140.066 69.6258C140.23 69.5309 140.414 69.4593 140.617 69.4109C140.821 69.3624 141.028 69.3256 141.239 69.3005C141.506 69.2695 141.723 69.2443 141.89 69.2249C142.056 69.2036 142.178 69.1697 142.253 69.1233C142.329 69.0768 142.366 69.0012 142.366 68.8967V68.8763C142.366 68.6226 142.295 68.426 142.151 68.2866C142.01 68.1471 141.799 68.0774 141.518 68.0774C141.226 68.0774 140.995 68.1423 140.827 68.2721C140.66 68.3999 140.545 68.5422 140.481 68.6991L139.665 68.5132C139.761 68.242 139.903 68.0232 140.089 67.8566C140.277 67.6881 140.493 67.5661 140.737 67.4906C140.981 67.4131 141.237 67.3744 141.506 67.3744C141.685 67.3744 141.873 67.3957 142.073 67.4383C142.274 67.479 142.462 67.5545 142.637 67.6649C142.813 67.7753 142.957 67.9331 143.069 68.1384C143.182 68.3418 143.238 68.6062 143.238 68.9315V71.8947H142.39V71.2847H142.355C142.299 71.397 142.214 71.5074 142.102 71.6158C141.99 71.7243 141.845 71.8144 141.669 71.886C141.493 71.9577 141.282 71.9935 141.036 71.9935ZM141.225 71.2963C141.465 71.2963 141.67 71.2488 141.841 71.1539C142.013 71.059 142.144 70.9351 142.233 70.7821C142.324 70.6271 142.369 70.4615 142.369 70.2853V69.7101C142.338 69.7411 142.278 69.7701 142.189 69.7972C142.102 69.8224 142.002 69.8447 141.89 69.8641C141.778 69.8815 141.668 69.898 141.562 69.9134C141.455 69.927 141.366 69.9386 141.294 69.9483C141.126 69.9696 140.972 70.0054 140.832 70.0558C140.695 70.1062 140.585 70.1788 140.501 70.2737C140.42 70.3666 140.379 70.4906 140.379 70.6455C140.379 70.8605 140.459 71.0232 140.617 71.1336C140.776 71.242 140.979 71.2963 141.225 71.2963ZM145.263 69.2453V71.8947H144.395V67.4325H145.229V68.1588H145.284C145.386 67.9225 145.547 67.7327 145.766 67.5894C145.987 67.446 146.265 67.3744 146.6 67.3744C146.904 67.3744 147.17 67.4383 147.399 67.5661C147.627 67.692 147.804 67.8799 147.93 68.1297C148.056 68.3796 148.119 68.6885 148.119 69.0564V71.8947H147.251V69.161C147.251 68.8376 147.166 68.5848 146.998 68.4028C146.829 68.2188 146.598 68.1268 146.304 68.1268C146.102 68.1268 145.923 68.1704 145.766 68.2575C145.611 68.3447 145.488 68.4725 145.397 68.641C145.308 68.8076 145.263 69.009 145.263 69.2453ZM150.955 71.9819C150.594 71.9819 150.273 71.8899 149.99 71.7059C149.709 71.52 149.488 71.2556 149.328 70.9128C149.169 70.5681 149.09 70.1546 149.09 69.6723C149.09 69.1901 149.17 68.7776 149.331 68.4347C149.493 68.0919 149.716 67.8295 149.999 67.6475C150.282 67.4654 150.602 67.3744 150.96 67.3744C151.237 67.3744 151.46 67.4209 151.629 67.5138C151.799 67.6049 151.931 67.7114 152.024 67.8334C152.119 67.9554 152.192 68.0629 152.244 68.1559H152.297V65.9451H153.165V71.8947H152.317V71.2004H152.244C152.192 71.2953 152.117 71.4038 152.018 71.5258C151.921 71.6478 151.787 71.7543 151.617 71.8453C151.447 71.9364 151.226 71.9819 150.955 71.9819ZM151.146 71.2411C151.396 71.2411 151.607 71.1752 151.78 71.0435C151.954 70.9099 152.086 70.7249 152.175 70.4887C152.266 70.2524 152.311 69.9774 152.311 69.6636C152.311 69.3537 152.267 69.0826 152.178 68.8502C152.089 68.6178 151.958 68.4367 151.785 68.3069C151.613 68.1772 151.4 68.1123 151.146 68.1123C150.885 68.1123 150.667 68.1801 150.493 68.3156C150.318 68.4512 150.187 68.6362 150.098 68.8705C150.01 69.1049 149.967 69.3692 149.967 69.6636C149.967 69.9619 150.011 70.2301 150.1 70.4683C150.19 70.7065 150.321 70.8954 150.496 71.0348C150.672 71.1723 150.889 71.2411 151.146 71.2411ZM154.954 73.5681C154.824 73.5681 154.706 73.5574 154.6 73.5361C154.493 73.5167 154.414 73.4954 154.362 73.4722L154.571 72.7605C154.73 72.8031 154.871 72.8215 154.995 72.8156C155.119 72.8098 155.228 72.7634 155.323 72.6762C155.42 72.589 155.505 72.4467 155.579 72.2492L155.686 71.9528L154.054 67.4325H154.983L156.113 70.8954H156.16L157.29 67.4325H158.222L156.384 72.4903C156.298 72.7227 156.19 72.9193 156.058 73.08C155.926 73.2427 155.77 73.3647 155.588 73.4461C155.405 73.5274 155.194 73.5681 154.954 73.5681ZM162.621 73.5129C162.02 73.5129 161.488 73.4306 161.023 73.2659C160.56 73.1033 160.17 72.8631 159.852 72.5455C159.535 72.2298 159.293 71.8424 159.129 71.3834C158.964 70.9244 158.882 70.4005 158.882 69.8118C158.882 69.2385 158.965 68.7233 159.132 68.2663C159.298 67.8092 159.54 67.4199 159.858 67.0984C160.178 66.775 160.566 66.528 161.023 66.3576C161.48 66.1872 161.999 66.1019 162.58 66.1019C163.136 66.1019 163.626 66.1891 164.05 66.3634C164.474 66.5377 164.831 66.7769 165.119 67.081C165.41 67.385 165.629 67.7336 165.776 68.1268C165.923 68.52 165.996 68.9354 165.996 69.3731C165.996 69.6791 165.977 69.9783 165.938 70.2708C165.9 70.5613 165.828 70.8247 165.723 71.061C165.621 71.2953 165.472 71.4832 165.276 71.6246C165.082 71.764 164.831 71.8366 164.521 71.8424C164.356 71.8482 164.196 71.8289 164.041 71.7843C163.886 71.7398 163.755 71.6681 163.646 71.5694C163.538 71.4686 163.472 71.3408 163.449 71.1859H163.414C163.367 71.3002 163.29 71.4067 163.181 71.5054C163.073 71.6023 162.935 71.6798 162.766 71.7379C162.599 71.794 162.406 71.8173 162.185 71.8076C161.941 71.7979 161.721 71.7427 161.526 71.642C161.33 71.5413 161.162 71.4018 161.023 71.2237C160.885 71.0455 160.78 70.8344 160.706 70.5903C160.633 70.3463 160.596 70.0752 160.596 69.7769C160.596 69.4903 160.638 69.2337 160.721 69.0071C160.804 68.7785 160.917 68.5819 161.061 68.4173C161.206 68.2508 161.373 68.1191 161.56 68.0222C161.748 67.9254 161.947 67.8644 162.156 67.8392C162.359 67.816 162.546 67.8218 162.717 67.8566C162.887 67.8915 163.028 67.9448 163.141 68.0164C163.255 68.0881 163.327 68.1665 163.356 68.2517H163.394V67.9264H164.108V70.6223C164.108 70.7753 164.148 70.9051 164.227 71.0116C164.309 71.1181 164.424 71.1714 164.573 71.1714C164.749 71.1714 164.887 71.1065 164.986 70.9767C165.086 70.847 165.157 70.6475 165.198 70.3783C165.24 70.1091 165.262 69.7643 165.262 69.344C165.262 69.0497 165.222 68.7727 165.142 68.5132C165.065 68.2517 164.95 68.0154 164.797 67.8043C164.646 67.5913 164.46 67.4083 164.239 67.2553C164.018 67.1023 163.766 66.9841 163.484 66.9009C163.203 66.8176 162.892 66.7759 162.551 66.7759C162.088 66.7759 161.677 66.8476 161.316 66.9909C160.956 67.1323 160.652 67.3366 160.404 67.6039C160.158 67.8712 159.971 68.1917 159.843 68.5655C159.718 68.9373 159.655 69.3547 159.655 69.8176C159.655 70.2998 159.72 70.7278 159.849 71.1016C159.979 71.4735 160.171 71.7872 160.425 72.0429C160.678 72.2985 160.992 72.4922 161.366 72.6239C161.74 72.7575 162.17 72.8244 162.659 72.8244C162.875 72.8244 163.088 72.805 163.298 72.7663C163.507 72.7295 163.693 72.6869 163.855 72.6384C164.02 72.592 164.143 72.5542 164.224 72.5251L164.428 73.1614C164.308 73.2175 164.148 73.2727 163.948 73.3269C163.751 73.3812 163.536 73.4257 163.303 73.4606C163.073 73.4954 162.845 73.5129 162.621 73.5129ZM162.353 71.0958C162.605 71.0958 162.808 71.0455 162.961 70.9448C163.116 70.844 163.227 70.694 163.295 70.4945C163.364 70.293 163.399 70.0413 163.399 69.7391C163.397 69.4448 163.36 69.2104 163.286 69.0361C163.214 68.8599 163.102 68.734 162.949 68.6584C162.798 68.581 162.603 68.5422 162.365 68.5422C162.146 68.5422 161.959 68.5955 161.804 68.702C161.651 68.8085 161.534 68.9528 161.453 69.1349C161.374 69.3169 161.333 69.5193 161.331 69.742C161.333 69.9764 161.366 70.1972 161.43 70.4044C161.496 70.6097 161.602 70.7763 161.749 70.9041C161.898 71.0319 162.1 71.0958 162.353 71.0958ZM167.026 71.8947V65.9451H167.894V68.1559H167.947C167.997 68.0629 168.07 67.9554 168.164 67.8334C168.259 67.7114 168.391 67.6049 168.56 67.5138C168.728 67.4209 168.951 67.3744 169.228 67.3744C169.588 67.3744 169.909 67.4654 170.192 67.6475C170.475 67.8295 170.697 68.0919 170.857 68.4347C171.02 68.7776 171.101 69.1901 171.101 69.6723C171.101 70.1546 171.021 70.5681 170.86 70.9128C170.7 71.2556 170.479 71.52 170.198 71.7059C169.917 71.8899 169.597 71.9819 169.236 71.9819C168.965 71.9819 168.744 71.9364 168.571 71.8453C168.401 71.7543 168.267 71.6478 168.17 71.5258C168.073 71.4038 167.999 71.2953 167.947 71.2004H167.874V71.8947H167.026ZM167.877 69.6636C167.877 69.9774 167.922 70.2524 168.013 70.4887C168.104 70.7249 168.236 70.9099 168.408 71.0435C168.581 71.1752 168.792 71.2411 169.042 71.2411C169.301 71.2411 169.518 71.1723 169.693 71.0348C169.867 70.8954 169.999 70.7065 170.088 70.4683C170.179 70.2301 170.224 69.9619 170.224 69.6636C170.224 69.3692 170.18 69.1049 170.091 68.8705C170.003 68.6362 169.872 68.4512 169.695 68.3156C169.521 68.1801 169.303 68.1123 169.042 68.1123C168.79 68.1123 168.577 68.1772 168.403 68.3069C168.23 68.4367 168.1 68.6178 168.01 68.8502C167.921 69.0826 167.877 69.3537 167.877 69.6636ZM173.956 71.9848C173.538 71.9848 173.173 71.8889 172.861 71.6972C172.549 71.5054 172.307 71.2372 172.135 70.8925C171.963 70.5477 171.876 70.1449 171.876 69.6839C171.876 69.2211 171.963 68.8163 172.135 68.4696C172.307 68.1229 172.549 67.8537 172.861 67.662C173.173 67.4703 173.538 67.3744 173.956 67.3744C174.375 67.3744 174.74 67.4703 175.052 67.662C175.364 67.8537 175.606 68.1229 175.778 68.4696C175.95 68.8163 176.037 69.2211 176.037 69.6839C176.037 70.1449 175.95 70.5477 175.778 70.8925C175.606 71.2372 175.364 71.5054 175.052 71.6972C174.74 71.8889 174.375 71.9848 173.956 71.9848ZM173.959 71.2556C174.231 71.2556 174.455 71.1839 174.633 71.0406C174.812 70.8973 174.943 70.7065 175.028 70.4683C175.116 70.2301 175.159 69.9677 175.159 69.681C175.159 69.3963 175.116 69.1349 175.028 68.8967C174.943 68.6565 174.812 68.4638 174.633 68.3185C174.455 68.1733 174.231 68.1007 173.959 68.1007C173.686 68.1007 173.46 68.1733 173.28 68.3185C173.101 68.4638 172.969 68.6565 172.882 68.8967C172.796 69.1349 172.754 69.3963 172.754 69.681C172.754 69.9677 172.796 70.2301 172.882 70.4683C172.969 70.7065 173.101 70.8973 173.28 71.0406C173.46 71.1839 173.686 71.2556 173.959 71.2556ZM178.886 71.9848C178.467 71.9848 178.102 71.8889 177.791 71.6972C177.479 71.5054 177.237 71.2372 177.064 70.8925C176.892 70.5477 176.806 70.1449 176.806 69.6839C176.806 69.2211 176.892 68.8163 177.064 68.4696C177.237 68.1229 177.479 67.8537 177.791 67.662C178.102 67.4703 178.467 67.3744 178.886 67.3744C179.304 67.3744 179.669 67.4703 179.981 67.662C180.293 67.8537 180.535 68.1229 180.707 68.4696C180.88 68.8163 180.966 69.2211 180.966 69.6839C180.966 70.1449 180.88 70.5477 180.707 70.8925C180.535 71.2372 180.293 71.5054 179.981 71.6972C179.669 71.8889 179.304 71.9848 178.886 71.9848ZM178.889 71.2556C179.16 71.2556 179.384 71.1839 179.563 71.0406C179.741 70.8973 179.872 70.7065 179.958 70.4683C180.045 70.2301 180.088 69.9677 180.088 69.681C180.088 69.3963 180.045 69.1349 179.958 68.8967C179.872 68.6565 179.741 68.4638 179.563 68.3185C179.384 68.1733 179.16 68.1007 178.889 68.1007C178.616 68.1007 178.389 68.1733 178.209 68.3185C178.031 68.4638 177.898 68.6565 177.811 68.8967C177.726 69.1349 177.683 69.3963 177.683 69.681C177.683 69.9677 177.726 70.2301 177.811 70.4683C177.898 70.7065 178.031 70.8973 178.209 71.0406C178.389 71.1839 178.616 71.2556 178.889 71.2556ZM185.279 68.5219L184.492 68.6613C184.459 68.5606 184.407 68.4648 184.335 68.3737C184.265 68.2827 184.17 68.2082 184.05 68.15C183.93 68.0919 183.78 68.0629 183.6 68.0629C183.354 68.0629 183.149 68.1181 182.984 68.2285C182.819 68.3369 182.737 68.4774 182.737 68.6497C182.737 68.7989 182.792 68.9189 182.903 69.01C183.013 69.101 183.191 69.1756 183.437 69.2337L184.146 69.3963C184.557 69.4912 184.863 69.6375 185.064 69.835C185.266 70.0326 185.366 70.2892 185.366 70.6049C185.366 70.8721 185.289 71.1104 185.134 71.3195C184.981 71.5267 184.767 71.6894 184.492 71.8076C184.219 71.9257 183.902 71.9848 183.542 71.9848C183.042 71.9848 182.635 71.8783 182.319 71.6652C182.003 71.4502 181.809 71.1452 181.738 70.7501L182.577 70.6223C182.63 70.8411 182.737 71.0067 182.9 71.1191C183.063 71.2295 183.275 71.2847 183.536 71.2847C183.821 71.2847 184.048 71.2256 184.219 71.1074C184.389 70.9874 184.474 70.8411 184.474 70.6688C184.474 70.5293 184.422 70.4122 184.318 70.3173C184.215 70.2224 184.057 70.1507 183.844 70.1023L183.089 69.9367C182.672 69.8418 182.364 69.6907 182.165 69.4835C181.967 69.2763 181.869 69.0138 181.869 68.6962C181.869 68.4328 181.942 68.2023 182.089 68.0048C182.237 67.8072 182.44 67.6533 182.699 67.5429C182.959 67.4306 183.256 67.3744 183.591 67.3744C184.074 67.3744 184.453 67.479 184.73 67.6881C185.007 67.8954 185.19 68.1733 185.279 68.5219ZM188.404 67.4325V68.1297H185.967V67.4325H188.404ZM186.621 66.3634H187.489V70.5845C187.489 70.753 187.514 70.8799 187.565 70.9651C187.615 71.0484 187.68 71.1055 187.759 71.1365C187.841 71.1655 187.929 71.1801 188.024 71.1801C188.093 71.1801 188.154 71.1752 188.207 71.1655C188.259 71.1559 188.3 71.1481 188.329 71.1423L188.486 71.8599C188.435 71.8792 188.364 71.8986 188.271 71.918C188.178 71.9393 188.061 71.9509 187.922 71.9528C187.694 71.9567 187.48 71.916 187.283 71.8308C187.085 71.7456 186.926 71.6139 186.804 71.4357C186.682 71.2575 186.621 71.0338 186.621 70.7646V66.3634ZM189.937 71.9499C189.779 71.9499 189.642 71.8938 189.528 71.7814C189.414 71.6672 189.356 71.5297 189.356 71.3689C189.356 71.2101 189.414 71.0745 189.528 70.9622C189.642 70.8479 189.779 70.7908 189.937 70.7908C190.096 70.7908 190.233 70.8479 190.347 70.9622C190.461 71.0745 190.518 71.2101 190.518 71.3689C190.518 71.4754 190.491 71.5732 190.437 71.6623C190.385 71.7495 190.315 71.8192 190.228 71.8715C190.141 71.9238 190.044 71.9499 189.937 71.9499ZM192.981 71.9935C192.698 71.9935 192.442 71.9412 192.214 71.8366C191.985 71.7301 191.804 71.5761 191.67 71.3747C191.539 71.1733 191.473 70.9264 191.473 70.6339C191.473 70.3821 191.521 70.1749 191.618 70.0122C191.715 69.8495 191.846 69.7207 192.01 69.6258C192.175 69.5309 192.359 69.4593 192.562 69.4109C192.766 69.3624 192.973 69.3256 193.184 69.3005C193.451 69.2695 193.668 69.2443 193.835 69.2249C194.001 69.2036 194.122 69.1697 194.198 69.1233C194.273 69.0768 194.311 69.0012 194.311 68.8967V68.8763C194.311 68.6226 194.239 68.426 194.096 68.2866C193.955 68.1471 193.744 68.0774 193.463 68.0774C193.17 68.0774 192.94 68.1423 192.771 68.2721C192.605 68.3999 192.49 68.5422 192.426 68.6991L191.609 68.5132C191.706 68.242 191.848 68.0232 192.034 67.8566C192.221 67.6881 192.437 67.5661 192.681 67.4906C192.925 67.4131 193.182 67.3744 193.451 67.3744C193.629 67.3744 193.818 67.3957 194.018 67.4383C194.219 67.479 194.407 67.5545 194.581 67.6649C194.758 67.7753 194.902 67.9331 195.014 68.1384C195.126 68.3418 195.183 68.6062 195.183 68.9315V71.8947H194.334V71.2847H194.299C194.243 71.397 194.159 71.5074 194.047 71.6158C193.934 71.7243 193.79 71.8144 193.614 71.886C193.438 71.9577 193.227 71.9935 192.981 71.9935ZM193.169 71.2963C193.41 71.2963 193.615 71.2488 193.785 71.1539C193.958 71.059 194.088 70.9351 194.177 70.7821C194.268 70.6271 194.314 70.4615 194.314 70.2853V69.7101C194.283 69.7411 194.223 69.7701 194.134 69.7972C194.047 69.8224 193.947 69.8447 193.835 69.8641C193.722 69.8815 193.613 69.898 193.506 69.9134C193.4 69.927 193.311 69.9386 193.239 69.9483C193.071 69.9696 192.917 70.0054 192.777 70.0558C192.64 70.1062 192.529 70.1788 192.446 70.2737C192.365 70.3666 192.324 70.4906 192.324 70.6455C192.324 70.8605 192.403 71.0232 192.562 71.1336C192.721 71.242 192.923 71.2963 193.169 71.2963ZM196.34 71.8947V67.4325H197.208V71.8947H196.34ZM196.778 66.744C196.627 66.744 196.497 66.6936 196.389 66.5929C196.282 66.4903 196.229 66.3683 196.229 66.2269C196.229 66.0835 196.282 65.9615 196.389 65.8608C196.497 65.7582 196.627 65.7069 196.778 65.7069C196.929 65.7069 197.058 65.7582 197.165 65.8608C197.273 65.9615 197.327 66.0835 197.327 66.2269C197.327 66.3683 197.273 66.4903 197.165 66.5929C197.058 66.6936 196.929 66.744 196.778 66.744Z" fill="#1D1D1F"/>
<path fill-rule="evenodd" clip-rule="evenodd" d="M207.866 66.0217C207.96 65.9273 208.088 65.8743 208.222 65.8743C208.355 65.8743 208.483 65.9273 208.578 66.0217L210.739 68.1829L212.9 66.0217C212.947 65.9736 213.002 65.9353 213.064 65.9089C213.125 65.8825 213.191 65.8686 213.258 65.868C213.325 65.8674 213.391 65.8802 213.453 65.9055C213.515 65.9308 213.571 65.9682 213.618 66.0154C213.666 66.0627 213.703 66.1189 213.728 66.1808C213.754 66.2427 213.766 66.309 213.766 66.3758C213.765 66.4426 213.751 66.5087 213.725 66.5701C213.699 66.6316 213.66 66.6871 213.612 66.7335L211.451 68.8948L213.612 71.056C213.704 71.151 213.755 71.2781 213.753 71.4101C213.752 71.5421 213.699 71.6684 213.606 71.7617C213.513 71.8551 213.386 71.908 213.254 71.9092C213.122 71.9103 212.995 71.8596 212.9 71.7679L210.739 69.6066L208.578 71.7679C208.483 71.8596 208.356 71.9103 208.224 71.9092C208.092 71.908 207.965 71.8551 207.872 71.7617C207.779 71.6684 207.726 71.5421 207.725 71.4101C207.723 71.2781 207.774 71.151 207.866 71.056L210.027 68.8948L207.866 66.7335C207.772 66.6391 207.719 66.5111 207.719 66.3776C207.719 66.2441 207.772 66.1161 207.866 66.0217Z" fill="#3F3F46"/>
<line x1="226.157" y1="62.2872" x2="226.157" y2="75.5023" stroke="#D946EF" stroke-width="0.629291"/>
<path d="M28.7348 100.549V94.1419H31.1375C31.6297 94.1419 32.0427 94.2274 32.3764 94.3984C32.7122 94.5694 32.9656 94.8093 33.1367 95.118C33.3098 95.4246 33.3963 95.7823 33.3963 96.1911C33.3963 96.602 33.3087 96.9586 33.1335 97.2611C32.9604 97.5614 32.7049 97.794 32.367 97.9587C32.0291 98.1214 31.6141 98.2028 31.1219 98.2028H29.4105V97.2392H30.9654C31.2533 97.2392 31.4889 97.1995 31.6725 97.1203C31.856 97.0389 31.9916 96.9211 32.0792 96.7667C32.1689 96.6103 32.2137 96.4184 32.2137 96.1911C32.2137 95.9637 32.1689 95.7698 32.0792 95.6092C31.9895 95.4465 31.8529 95.3234 31.6694 95.24C31.4858 95.1545 31.2491 95.1117 30.9592 95.1117H29.8955V100.549H28.7348ZM32.0448 97.6459L33.631 100.549H32.3357L30.7777 97.6459H32.0448ZM36.442 100.643C35.9727 100.643 35.566 100.54 35.2219 100.333C34.8777 100.127 34.6107 99.838 34.4209 99.4667C34.2332 99.0954 34.1394 98.6616 34.1394 98.1652C34.1394 97.6688 34.2332 97.2339 34.4209 96.8606C34.6107 96.4873 34.8777 96.1973 35.2219 95.9909C35.566 95.7844 35.9727 95.6811 36.442 95.6811C36.9113 95.6811 37.318 95.7844 37.6621 95.9909C38.0063 96.1973 38.2722 96.4873 38.4599 96.8606C38.6497 97.2339 38.7446 97.6688 38.7446 98.1652C38.7446 98.6616 38.6497 99.0954 38.4599 99.4667C38.2722 99.838 38.0063 100.127 37.6621 100.333C37.318 100.54 36.9113 100.643 36.442 100.643ZM36.4483 99.7358C36.7027 99.7358 36.9155 99.6659 37.0865 99.5262C37.2575 99.3843 37.3847 99.1945 37.4682 98.9567C37.5537 98.719 37.5964 98.4541 37.5964 98.1621C37.5964 97.868 37.5537 97.6021 37.4682 97.3643C37.3847 97.1244 37.2575 96.9336 37.0865 96.7918C36.9155 96.6499 36.7027 96.579 36.4483 96.579C36.1875 96.579 35.9706 96.6499 35.7975 96.7918C35.6265 96.9336 35.4982 97.1244 35.4127 97.3643C35.3293 97.6021 35.2876 97.868 35.2876 98.1621C35.2876 98.4541 35.3293 98.719 35.4127 98.9567C35.4982 99.1945 35.6265 99.3843 35.7975 99.5262C35.9706 99.6659 36.1875 99.7358 36.4483 99.7358ZM40.8384 94.1419V100.549H39.7059V94.1419H40.8384ZM44.1305 100.643C43.6487 100.643 43.2326 100.543 42.8822 100.343C42.5339 100.14 42.2658 99.8547 42.0781 99.4855C41.8904 99.1142 41.7966 98.6773 41.7966 98.1746C41.7966 97.6803 41.8904 97.2465 42.0781 96.8731C42.2679 96.4977 42.5328 96.2057 42.8728 95.9971C43.2128 95.7865 43.6122 95.6811 44.071 95.6811C44.3672 95.6811 44.6467 95.7291 44.9095 95.825C45.1744 95.9189 45.408 96.0649 45.6103 96.263C45.8147 96.4612 45.9753 96.7136 46.0921 97.0202C46.2089 97.3247 46.2673 97.6876 46.2673 98.1089V98.4562H42.3284V97.6928H45.1817C45.1796 97.4759 45.1327 97.283 45.0409 97.114C44.9491 96.943 44.8208 96.8085 44.6561 96.7104C44.4934 96.6124 44.3036 96.5634 44.0867 96.5634C43.8552 96.5634 43.6518 96.6197 43.4766 96.7323C43.3014 96.8429 43.1648 96.9889 43.0668 97.1703C42.9708 97.3497 42.9218 97.5468 42.9197 97.7616V98.428C42.9197 98.7075 42.9708 98.9474 43.073 99.1476C43.1752 99.3457 43.3181 99.498 43.5016 99.6044C43.6852 99.7087 43.9 99.7608 44.1461 99.7608C44.3109 99.7608 44.46 99.7379 44.5935 99.692C44.727 99.644 44.8427 99.5741 44.9408 99.4824C45.0388 99.3906 45.1128 99.2769 45.1629 99.1413L46.2204 99.2602C46.1536 99.5397 46.0264 99.7837 45.8387 99.9923C45.653 100.199 45.4153 100.359 45.1254 100.474C44.8354 100.587 44.5038 100.643 44.1305 100.643Z" fill="#1D1D1F"/>
<path d="M33.137 109.484H267.863C270.469 109.484 272.582 111.597 272.582 114.204V129.307C272.582 131.913 270.469 134.027 267.863 134.027H33.137C30.5306 134.027 28.4174 131.913 28.4172 129.307V114.204C28.4173 111.597 30.5305 109.484 33.137 109.484Z" stroke="#D7D7D7" stroke-width="0.629291"/>
<path d="M39.4166 124.755H38.3904L40.6961 118.348H41.813L44.1188 124.755H43.0926L41.2812 119.512H41.2311L39.4166 124.755ZM39.5886 122.246H42.9174V123.059H39.5886V122.246ZM46.6905 124.849C46.3026 124.849 45.9563 124.75 45.6518 124.552C45.3494 124.352 45.1116 124.067 44.9385 123.698C44.7675 123.326 44.682 122.881 44.682 122.362C44.682 121.842 44.7685 121.398 44.9416 121.029C45.1168 120.66 45.3567 120.377 45.6612 120.181C45.9657 119.985 46.3109 119.887 46.6968 119.887C46.995 119.887 47.2349 119.937 47.4163 120.037C47.5999 120.135 47.7417 120.25 47.8418 120.381C47.944 120.513 48.0233 120.629 48.0796 120.729H48.1359V118.348H49.0713V124.755H48.1578V124.007H48.0796C48.0233 124.11 47.9419 124.226 47.8356 124.358C47.7313 124.489 47.5874 124.604 47.4038 124.702C47.2203 124.8 46.9825 124.849 46.6905 124.849ZM46.897 124.051C47.166 124.051 47.3934 123.98 47.579 123.838C47.7667 123.695 47.9086 123.495 48.0045 123.241C48.1025 122.986 48.1515 122.69 48.1515 122.352C48.1515 122.019 48.1036 121.727 48.0076 121.476C47.9117 121.226 47.7709 121.031 47.5853 120.891C47.3996 120.752 47.1702 120.682 46.897 120.682C46.6154 120.682 46.3808 120.755 46.1931 120.901C46.0053 121.047 45.8635 121.246 45.7676 121.498C45.6737 121.751 45.6268 122.035 45.6268 122.352C45.6268 122.674 45.6748 122.962 45.7707 123.219C45.8666 123.476 46.0085 123.679 46.1962 123.829C46.386 123.977 46.6196 124.051 46.897 124.051ZM50.4065 124.755V119.95H51.3044V120.732H51.3638C51.4639 120.467 51.6277 120.26 51.855 120.112C52.0823 119.962 52.3545 119.887 52.6716 119.887C52.9928 119.887 53.2618 119.962 53.4787 120.112C53.6977 120.263 53.8594 120.469 53.9637 120.732H54.0137C54.1284 120.475 54.3109 120.271 54.5612 120.119C54.8115 119.964 55.1098 119.887 55.456 119.887C55.8919 119.887 56.2475 120.024 56.5228 120.297C56.8002 120.57 56.9389 120.982 56.9389 121.533V124.755H56.0035V121.62C56.0035 121.295 55.9148 121.059 55.7376 120.913C55.5603 120.767 55.3486 120.694 55.1025 120.694C54.7979 120.694 54.5612 120.788 54.3923 120.976C54.2233 121.161 54.1389 121.4 54.1389 121.692V124.755H53.2065V121.561C53.2065 121.3 53.1252 121.091 52.9625 120.932C52.7998 120.774 52.5881 120.694 52.3274 120.694C52.1501 120.694 51.9864 120.741 51.8362 120.835C51.6881 120.927 51.5682 121.055 51.4764 121.22C51.3868 121.385 51.3419 121.575 51.3419 121.792V124.755H50.4065ZM58.1927 124.755V119.95H59.1281V124.755H58.1927ZM58.6651 119.208C58.5024 119.208 58.3627 119.154 58.2459 119.046C58.1312 118.935 58.0738 118.804 58.0738 118.651C58.0738 118.497 58.1312 118.366 58.2459 118.257C58.3627 118.147 58.5024 118.091 58.6651 118.091C58.8278 118.091 58.9665 118.147 59.0812 118.257C59.198 118.366 59.2564 118.497 59.2564 118.651C59.2564 118.804 59.198 118.935 59.0812 119.046C58.9665 119.154 58.8278 119.208 58.6651 119.208ZM61.3221 121.902V124.755H60.3866V119.95H61.2845V120.732H61.344C61.4545 120.477 61.6276 120.273 61.8633 120.119C62.1011 119.964 62.4004 119.887 62.7612 119.887C63.0887 119.887 63.3755 119.956 63.6216 120.094C63.8677 120.229 64.0585 120.431 64.1941 120.701C64.3297 120.97 64.3975 121.302 64.3975 121.699V124.755H63.462V121.811C63.462 121.463 63.3713 121.191 63.1898 120.995C63.0084 120.796 62.7591 120.697 62.4421 120.697C62.2252 120.697 62.0323 120.744 61.8633 120.838C61.6965 120.932 61.564 121.07 61.466 121.251C61.37 121.431 61.3221 121.647 61.3221 121.902Z" fill="#1D1D1F"/>
<path d="M252.579 120.945L255.726 123.827L258.872 120.945" stroke="#0A090B" stroke-width="1.25858" stroke-linecap="round" stroke-linejoin="round"/>
<path d="M163.256 165.526H162.086C162.053 165.334 161.991 165.164 161.901 165.016C161.812 164.866 161.7 164.738 161.567 164.634C161.433 164.53 161.281 164.452 161.11 164.399C160.941 164.345 160.758 164.318 160.562 164.318C160.214 164.318 159.905 164.406 159.636 164.581C159.367 164.754 159.157 165.008 159.004 165.344C158.852 165.678 158.776 166.086 158.776 166.567C158.776 167.058 158.852 167.471 159.004 167.806C159.159 168.14 159.369 168.392 159.636 168.564C159.905 168.732 160.213 168.817 160.559 168.817C160.751 168.817 160.93 168.792 161.097 168.742C161.266 168.69 161.417 168.614 161.551 168.513C161.687 168.413 161.8 168.29 161.892 168.144C161.986 167.998 162.05 167.831 162.086 167.644L163.256 167.65C163.212 167.954 163.117 168.24 162.971 168.507C162.827 168.774 162.639 169.01 162.405 169.214C162.171 169.417 161.898 169.575 161.585 169.69C161.272 169.802 160.925 169.859 160.544 169.859C159.98 169.859 159.478 169.728 159.036 169.468C158.593 169.207 158.245 168.83 157.991 168.338C157.736 167.846 157.609 167.256 157.609 166.567C157.609 165.877 157.737 165.287 157.994 164.797C158.25 164.304 158.6 163.928 159.042 163.667C159.484 163.407 159.985 163.276 160.544 163.276C160.9 163.276 161.232 163.326 161.538 163.426C161.845 163.527 162.118 163.674 162.358 163.868C162.598 164.059 162.795 164.295 162.949 164.575C163.106 164.852 163.208 165.169 163.256 165.526ZM165.652 169.868C165.347 169.868 165.073 169.814 164.829 169.705C164.587 169.595 164.395 169.432 164.253 169.217C164.114 169.003 164.044 168.738 164.044 168.423C164.044 168.152 164.094 167.927 164.194 167.75C164.294 167.573 164.431 167.431 164.604 167.325C164.777 167.218 164.972 167.138 165.189 167.084C165.408 167.027 165.634 166.987 165.868 166.962C166.149 166.932 166.378 166.906 166.553 166.883C166.728 166.858 166.855 166.821 166.934 166.771C167.016 166.719 167.056 166.638 167.056 166.53V166.511C167.056 166.275 166.987 166.093 166.847 165.964C166.707 165.834 166.506 165.77 166.243 165.77C165.966 165.77 165.746 165.83 165.583 165.951C165.422 166.072 165.314 166.215 165.258 166.38L164.2 166.23C164.283 165.938 164.421 165.694 164.613 165.498C164.805 165.299 165.04 165.151 165.317 165.053C165.594 164.953 165.901 164.903 166.237 164.903C166.468 164.903 166.699 164.93 166.928 164.984C167.158 165.039 167.367 165.128 167.557 165.253C167.747 165.377 167.899 165.544 168.014 165.757C168.131 165.97 168.189 166.236 168.189 166.555V169.771H167.1V169.111H167.063C166.994 169.245 166.897 169.37 166.772 169.486C166.649 169.601 166.493 169.694 166.306 169.765C166.12 169.834 165.902 169.868 165.652 169.868ZM165.946 169.036C166.173 169.036 166.37 168.991 166.537 168.901C166.704 168.81 166.832 168.689 166.922 168.538C167.014 168.388 167.06 168.225 167.06 168.047V167.481C167.024 167.51 166.964 167.537 166.878 167.562C166.795 167.587 166.701 167.609 166.597 167.628C166.492 167.647 166.389 167.664 166.287 167.678C166.185 167.693 166.096 167.705 166.021 167.716C165.852 167.739 165.701 167.776 165.567 167.828C165.434 167.88 165.328 167.953 165.251 168.047C165.174 168.139 165.136 168.258 165.136 168.404C165.136 168.613 165.212 168.77 165.364 168.876C165.516 168.983 165.71 169.036 165.946 169.036ZM170.46 166.955V169.771H169.328V164.966H170.41V165.782H170.467C170.577 165.513 170.753 165.299 170.995 165.141C171.239 164.982 171.541 164.903 171.899 164.903C172.231 164.903 172.52 164.974 172.766 165.116C173.014 165.258 173.206 165.463 173.342 165.732C173.479 166.001 173.547 166.328 173.545 166.711V169.771H172.413V166.887C172.413 166.565 172.329 166.314 172.162 166.133C171.998 165.951 171.769 165.86 171.477 165.86C171.279 165.86 171.103 165.904 170.948 165.992C170.796 166.077 170.676 166.201 170.589 166.364C170.503 166.527 170.46 166.724 170.46 166.955ZM176.793 169.865C176.313 169.865 175.901 169.76 175.557 169.549C175.215 169.338 174.951 169.047 174.765 168.676C174.582 168.303 174.49 167.873 174.49 167.387C174.49 166.899 174.584 166.468 174.772 166.095C174.959 165.72 175.224 165.428 175.566 165.219C175.91 165.008 176.317 164.903 176.786 164.903C177.176 164.903 177.522 164.975 177.822 165.119C178.124 165.261 178.365 165.462 178.545 165.723C178.724 165.981 178.826 166.284 178.851 166.63H177.769C177.725 166.399 177.621 166.206 177.456 166.051C177.293 165.895 177.075 165.817 176.802 165.817C176.57 165.817 176.367 165.879 176.192 166.004C176.017 166.127 175.88 166.305 175.782 166.536C175.686 166.768 175.638 167.045 175.638 167.368C175.638 167.696 175.686 167.977 175.782 168.213C175.878 168.447 176.013 168.627 176.186 168.754C176.361 168.88 176.566 168.942 176.802 168.942C176.969 168.942 177.118 168.911 177.249 168.848C177.383 168.784 177.494 168.691 177.584 168.57C177.674 168.449 177.735 168.302 177.769 168.129H178.851C178.824 168.469 178.724 168.77 178.551 169.033C178.378 169.294 178.142 169.498 177.844 169.646C177.546 169.792 177.195 169.865 176.793 169.865ZM181.909 169.865C181.427 169.865 181.011 169.765 180.66 169.565C180.312 169.362 180.044 169.077 179.856 168.707C179.669 168.336 179.575 167.899 179.575 167.397C179.575 166.902 179.669 166.468 179.856 166.095C180.046 165.72 180.311 165.428 180.651 165.219C180.991 165.008 181.39 164.903 181.849 164.903C182.145 164.903 182.425 164.951 182.688 165.047C182.952 165.141 183.186 165.287 183.388 165.485C183.593 165.683 183.753 165.936 183.87 166.242C183.987 166.547 184.045 166.91 184.045 167.331V167.678H180.107V166.915H182.96C182.958 166.698 182.911 166.505 182.819 166.336C182.727 166.165 182.599 166.03 182.434 165.932C182.271 165.834 182.082 165.785 181.865 165.785C181.633 165.785 181.43 165.842 181.255 165.954C181.08 166.065 180.943 166.211 180.845 166.392C180.749 166.572 180.7 166.769 180.698 166.984V167.65C180.698 167.929 180.749 168.169 180.851 168.37C180.953 168.568 181.096 168.72 181.28 168.826C181.463 168.931 181.678 168.983 181.924 168.983C182.089 168.983 182.238 168.96 182.372 168.914C182.505 168.866 182.621 168.796 182.719 168.704C182.817 168.613 182.891 168.499 182.941 168.363L183.998 168.482C183.932 168.762 183.804 169.006 183.617 169.214C183.431 169.421 183.193 169.581 182.903 169.696C182.614 169.809 182.282 169.865 181.909 169.865ZM186.136 163.364V169.771H185.004V163.364H186.136Z" fill="#74747A"/>
<rect x="204.76" y="154.478" width="68.1373" height="25.5858" rx="5.03432" fill="#D946EF"/>
<path d="M218.942 165.125C218.913 164.852 218.79 164.639 218.573 164.487C218.358 164.335 218.079 164.259 217.735 164.259C217.493 164.259 217.285 164.295 217.112 164.368C216.939 164.441 216.807 164.54 216.715 164.665C216.623 164.79 216.576 164.933 216.574 165.094C216.574 165.227 216.604 165.343 216.665 165.441C216.727 165.539 216.812 165.623 216.918 165.691C217.025 165.758 217.142 165.815 217.272 165.86C217.401 165.906 217.531 165.945 217.663 165.976L218.264 166.126C218.505 166.183 218.738 166.259 218.961 166.355C219.186 166.451 219.388 166.572 219.565 166.718C219.744 166.864 219.886 167.04 219.991 167.246C220.095 167.453 220.147 167.695 220.147 167.972C220.147 168.348 220.051 168.678 219.859 168.964C219.667 169.248 219.39 169.47 219.027 169.63C218.666 169.789 218.229 169.868 217.716 169.868C217.218 169.868 216.785 169.791 216.418 169.637C216.053 169.482 215.767 169.257 215.56 168.961C215.356 168.665 215.246 168.304 215.229 167.878H216.371C216.387 168.102 216.456 168.287 216.577 168.435C216.698 168.583 216.856 168.694 217.05 168.767C217.246 168.84 217.465 168.876 217.707 168.876C217.959 168.876 218.18 168.839 218.37 168.764C218.562 168.687 218.712 168.58 218.82 168.445C218.929 168.307 218.984 168.146 218.986 167.963C218.984 167.796 218.935 167.658 218.839 167.55C218.743 167.439 218.609 167.348 218.436 167.275C218.265 167.199 218.064 167.133 217.835 167.074L217.106 166.887C216.578 166.751 216.161 166.546 215.855 166.27C215.55 165.993 215.398 165.625 215.398 165.166C215.398 164.788 215.5 164.458 215.704 164.174C215.911 163.89 216.191 163.67 216.546 163.514C216.901 163.355 217.302 163.276 217.75 163.276C218.205 163.276 218.604 163.355 218.946 163.514C219.29 163.67 219.56 163.888 219.756 164.168C219.952 164.445 220.053 164.764 220.059 165.125H218.942ZM223.259 169.865C222.777 169.865 222.361 169.765 222.011 169.565C221.662 169.362 221.394 169.077 221.207 168.707C221.019 168.336 220.925 167.899 220.925 167.397C220.925 166.902 221.019 166.468 221.207 166.095C221.397 165.72 221.661 165.428 222.001 165.219C222.341 165.008 222.741 164.903 223.2 164.903C223.496 164.903 223.775 164.951 224.038 165.047C224.303 165.141 224.537 165.287 224.739 165.485C224.943 165.683 225.104 165.936 225.221 166.242C225.338 166.547 225.396 166.91 225.396 167.331V167.678H221.457V166.915H224.31C224.308 166.698 224.261 166.505 224.17 166.336C224.078 166.165 223.949 166.03 223.785 165.932C223.622 165.834 223.432 165.785 223.215 165.785C222.984 165.785 222.78 165.842 222.605 165.954C222.43 166.065 222.293 166.211 222.195 166.392C222.099 166.572 222.05 166.769 222.048 166.984V167.65C222.048 167.929 222.099 168.169 222.202 168.37C222.304 168.568 222.447 168.72 222.63 168.826C222.814 168.931 223.029 168.983 223.275 168.983C223.44 168.983 223.589 168.96 223.722 168.914C223.856 168.866 223.971 168.796 224.069 168.704C224.167 168.613 224.241 168.499 224.292 168.363L225.349 168.482C225.282 168.762 225.155 169.006 224.967 169.214C224.782 169.421 224.544 169.581 224.254 169.696C223.964 169.809 223.632 169.865 223.259 169.865ZM227.487 166.955V169.771H226.354V164.966H227.437V165.782H227.493C227.603 165.513 227.78 165.299 228.022 165.141C228.266 164.982 228.567 164.903 228.926 164.903C229.257 164.903 229.546 164.974 229.792 165.116C230.041 165.258 230.232 165.463 230.368 165.732C230.506 166.001 230.573 166.328 230.571 166.711V169.771H229.439V166.887C229.439 166.565 229.355 166.314 229.189 166.133C229.024 165.951 228.795 165.86 228.503 165.86C228.305 165.86 228.129 165.904 227.975 165.992C227.822 166.077 227.702 166.201 227.615 166.364C227.529 166.527 227.487 166.724 227.487 166.955ZM233.506 169.856C233.128 169.856 232.791 169.759 232.492 169.565C232.194 169.371 231.958 169.089 231.785 168.72C231.612 168.351 231.526 167.902 231.526 167.375C231.526 166.841 231.613 166.39 231.788 166.023C231.966 165.654 232.204 165.376 232.505 165.188C232.805 164.998 233.14 164.903 233.509 164.903C233.791 164.903 234.022 164.951 234.204 165.047C234.385 165.141 234.529 165.255 234.635 165.388C234.742 165.519 234.824 165.644 234.883 165.76H234.929V163.364H236.065V169.771H234.951V169.014H234.883C234.824 169.131 234.74 169.255 234.629 169.386C234.519 169.516 234.373 169.626 234.191 169.718C234.01 169.81 233.781 169.856 233.506 169.856ZM233.822 168.926C234.062 168.926 234.266 168.862 234.435 168.732C234.604 168.601 234.732 168.419 234.82 168.185C234.908 167.951 234.951 167.679 234.951 167.368C234.951 167.058 234.908 166.788 234.82 166.558C234.734 166.329 234.607 166.15 234.438 166.023C234.271 165.896 234.066 165.832 233.822 165.832C233.57 165.832 233.359 165.898 233.19 166.029C233.021 166.161 232.894 166.342 232.808 166.574C232.723 166.805 232.68 167.07 232.68 167.368C232.68 167.669 232.723 167.937 232.808 168.172C232.896 168.406 233.024 168.591 233.193 168.726C233.364 168.86 233.574 168.926 233.822 168.926ZM239.457 169.771V164.966H240.59V169.771H239.457ZM240.027 164.284C239.847 164.284 239.693 164.224 239.564 164.105C239.434 163.984 239.37 163.839 239.37 163.67C239.37 163.499 239.434 163.354 239.564 163.236C239.693 163.115 239.847 163.054 240.027 163.054C240.208 163.054 240.362 163.115 240.49 163.236C240.619 163.354 240.684 163.499 240.684 163.67C240.684 163.839 240.619 163.984 240.49 164.105C240.362 164.224 240.208 164.284 240.027 164.284ZM242.887 166.955V169.771H241.754V164.966H242.837V165.782H242.893C243.004 165.513 243.18 165.299 243.422 165.141C243.666 164.982 243.967 164.903 244.326 164.903C244.658 164.903 244.947 164.974 245.193 165.116C245.441 165.258 245.633 165.463 245.768 165.732C245.906 166.001 245.974 166.328 245.972 166.711V169.771H244.839V166.887C244.839 166.565 244.756 166.314 244.589 166.133C244.424 165.951 244.196 165.86 243.904 165.86C243.706 165.86 243.529 165.904 243.375 165.992C243.223 166.077 243.103 166.201 243.015 166.364C242.93 166.527 242.887 166.724 242.887 166.955ZM251.243 164.966L249.532 169.771H248.281L246.569 164.966H247.777L248.881 168.535H248.931L250.039 164.966H251.243ZM252.027 169.771V164.966H253.16V169.771H252.027ZM252.597 164.284C252.417 164.284 252.263 164.224 252.133 164.105C252.004 163.984 251.94 163.839 251.94 163.67C251.94 163.499 252.004 163.354 252.133 163.236C252.263 163.115 252.417 163.054 252.597 163.054C252.778 163.054 252.932 163.115 253.06 163.236C253.189 163.354 253.254 163.499 253.254 163.67C253.254 163.839 253.189 163.984 253.06 164.105C252.932 164.224 252.778 164.284 252.597 164.284ZM256.724 164.966V165.842H253.961V164.966H256.724ZM254.643 163.814H255.776V168.326C255.776 168.478 255.799 168.595 255.845 168.676C255.893 168.755 255.955 168.81 256.032 168.839C256.11 168.868 256.195 168.883 256.289 168.883C256.36 168.883 256.425 168.877 256.483 168.867C256.543 168.857 256.589 168.847 256.621 168.839L256.812 169.724C256.751 169.745 256.664 169.768 256.552 169.793C256.441 169.818 256.306 169.833 256.145 169.837C255.861 169.845 255.606 169.802 255.379 169.709C255.151 169.613 254.971 169.465 254.837 169.264C254.706 169.064 254.641 168.814 254.643 168.513V163.814ZM259.747 169.865C259.265 169.865 258.849 169.765 258.499 169.565C258.15 169.362 257.882 169.077 257.695 168.707C257.507 168.336 257.413 167.899 257.413 167.397C257.413 166.902 257.507 166.468 257.695 166.095C257.884 165.72 258.149 165.428 258.489 165.219C258.829 165.008 259.229 164.903 259.687 164.903C259.984 164.903 260.263 164.951 260.526 165.047C260.791 165.141 261.024 165.287 261.227 165.485C261.431 165.683 261.592 165.936 261.709 166.242C261.825 166.547 261.884 166.91 261.884 167.331V167.678H257.945V166.915H260.798C260.796 166.698 260.749 166.505 260.657 166.336C260.566 166.165 260.437 166.03 260.272 165.932C260.11 165.834 259.92 165.785 259.703 165.785C259.472 165.785 259.268 165.842 259.093 165.954C258.918 166.065 258.781 166.211 258.683 166.392C258.587 166.572 258.538 166.769 258.536 166.984V167.65C258.536 167.929 258.587 168.169 258.689 168.37C258.792 168.568 258.935 168.72 259.118 168.826C259.302 168.931 259.516 168.983 259.763 168.983C259.927 168.983 260.076 168.96 260.21 168.914C260.343 168.866 260.459 168.796 260.557 168.704C260.655 168.613 260.729 168.499 260.779 168.363L261.837 168.482C261.77 168.762 261.643 169.006 261.455 169.214C261.269 169.421 261.032 169.581 260.742 169.696C260.452 169.809 260.12 169.865 259.747 169.865Z" fill="white"/>
</g>
<defs>
<filter id="filter0_d_2090_14078" x="0.414187" y="0.93135" width="300.172" height="209.339" filterUnits="userSpaceOnUse" color-interpolation-filters="sRGB">
<feFlood flood-opacity="0" result="BackgroundImageFix"/>
<feColorMatrix in="SourceAlpha" type="matrix" values="0 0 0 0 0 0 0 0 0 0 0 0 0 0 0 0 0 0 127 0" result="hardAlpha"/>
<feOffset dy="2.51716"/>
<feGaussianBlur stdDeviation="6.29291"/>
<feComposite in2="hardAlpha" operator="out"/>
<feColorMatrix type="matrix" values="0 0 0 0 0 0 0 0 0 0 0 0 0 0 0 0 0 0 0.15 0"/>
<feBlend mode="normal" in2="BackgroundImageFix" result="effect1_dropShadow_2090_14078"/>
<feBlend mode="normal" in="SourceGraphic" in2="effect1_dropShadow_2090_14078" result="shape"/>
</filter>
</defs>
</svg>
