<svg width="442" height="64" viewBox="0 0 442 64" fill="none" xmlns="http://www.w3.org/2000/svg">
<rect x="0.877686" width="64" height="64" rx="32" fill="url(#paint0_linear_637_3352)"/>
<path d="M80.5146 60.5019V4.02372H103.106C107.25 4.02372 110.712 4.64283 113.492 5.88106C116.272 7.11928 118.356 8.82499 119.746 10.9982C121.161 13.1714 121.869 15.6731 121.869 18.5034C121.869 20.7018 121.414 22.635 120.504 24.3028C119.62 25.9706 118.407 27.3352 116.865 28.3965C115.349 29.4578 113.606 30.2033 111.634 30.6329V31.2015C113.782 31.3025 115.804 31.909 117.699 33.0209C119.594 34.1328 121.123 35.6995 122.286 37.7211C123.473 39.7174 124.067 42.1054 124.067 44.8851C124.067 47.8669 123.322 50.5455 121.831 52.9209C120.365 55.271 118.192 57.1283 115.311 58.4929C112.43 59.8322 108.867 60.5019 104.622 60.5019H80.5146ZM92.4168 50.7603H102.196C105.507 50.7603 107.92 50.116 109.436 48.8272C110.977 47.5384 111.748 45.8327 111.748 43.71C111.748 42.1433 111.369 40.7661 110.611 39.5784C109.878 38.3655 108.817 37.4178 107.427 36.7356C106.037 36.0533 104.382 35.7121 102.462 35.7121H92.4168V50.7603ZM92.4168 27.6763H101.286C102.929 27.6763 104.382 27.3857 105.646 26.8045C106.934 26.2233 107.945 25.402 108.678 24.3407C109.411 23.2541 109.777 21.9653 109.777 20.4744C109.777 18.4528 109.057 16.8229 107.617 15.5847C106.201 14.3212 104.167 13.6894 101.514 13.6894H92.4168V27.6763Z" fill="#1D1D1F"/>
<path d="M141.124 61.2979C138.446 61.2979 136.033 60.8304 133.885 59.8954C131.762 58.9351 130.094 57.52 128.881 55.6501C127.668 53.7801 127.062 51.4553 127.062 48.6756C127.062 46.3002 127.491 44.3292 128.35 42.7624C129.21 41.1704 130.385 39.8817 131.876 38.8961C133.367 37.9106 135.06 37.1651 136.955 36.6597C138.85 36.1544 140.859 35.8006 142.982 35.5984C145.433 35.371 147.404 35.1436 148.895 34.9161C150.386 34.6887 151.472 34.3476 152.155 33.8927C152.862 33.4126 153.216 32.7303 153.216 31.8458V31.6563C153.216 29.9127 152.66 28.5608 151.548 27.6005C150.462 26.6402 148.92 26.1601 146.924 26.1601C144.826 26.1601 143.146 26.6276 141.883 27.5626C140.644 28.4723 139.823 29.6347 139.419 31.0498L128.54 30.178C129.096 27.6005 130.183 25.3768 131.8 23.5068C133.417 21.6115 135.502 20.1585 138.054 19.1477C140.632 18.1117 143.613 17.5936 147 17.5936C149.35 17.5936 151.599 17.8716 153.747 18.4275C155.895 18.9835 157.803 19.8427 159.47 21.0051C161.163 22.1422 162.503 23.6205 163.488 25.4399C164.474 27.2594 164.967 29.4199 164.967 31.9216V60.5019H153.785V54.5887H153.481C152.799 55.928 151.889 57.1031 150.752 58.1139C149.615 59.0994 148.251 59.8828 146.659 60.464C145.067 61.0199 143.222 61.2979 141.124 61.2979ZM144.498 53.1862C146.216 53.1862 147.732 52.8451 149.047 52.1628C150.386 51.4553 151.422 50.5203 152.155 49.3579C152.913 48.1702 153.292 46.8435 153.292 45.3779V40.8672C152.938 41.0946 152.433 41.3094 151.776 41.5116C151.144 41.7137 150.436 41.8906 149.653 42.0422C148.87 42.1939 148.086 42.3328 147.303 42.4592C146.52 42.5603 145.812 42.6613 145.18 42.7624C143.79 42.9646 142.577 43.2931 141.541 43.7479C140.505 44.1775 139.697 44.7714 139.115 45.5295C138.56 46.2623 138.282 47.1846 138.282 48.2965C138.282 49.8885 138.863 51.1015 140.025 51.9354C141.188 52.7693 142.679 53.1862 144.498 53.1862Z" fill="#1D1D1F"/>
<path d="M207.003 30.2159L196.276 30.8603C195.998 29.521 195.252 28.3712 194.04 27.411C192.827 26.4255 191.197 25.9327 189.15 25.9327C187.33 25.9327 185.802 26.3117 184.563 27.0698C183.35 27.8279 182.744 28.8387 182.744 30.1022C182.744 31.113 183.136 31.9848 183.919 32.7176C184.728 33.4252 186.105 33.9811 188.051 34.3855L195.745 35.9016C199.864 36.7356 202.935 38.0875 204.956 39.9575C206.978 41.8274 207.988 44.2912 207.988 47.3489C207.988 50.1539 207.18 52.605 205.563 54.7024C203.945 56.7746 201.722 58.4045 198.891 59.5921C196.061 60.7546 192.814 61.3358 189.15 61.3358C183.54 61.3358 179.067 60.1607 175.731 57.8106C172.421 55.4605 170.488 52.2765 169.932 48.2586L181.417 47.6521C181.796 49.3705 182.655 50.6719 183.995 51.5563C185.334 52.4408 187.052 52.883 189.15 52.883C191.197 52.883 192.852 52.4787 194.115 51.67C195.404 50.8614 196.048 49.838 196.048 48.5998C196.048 46.5024 194.229 45.0872 190.59 44.3544L183.275 42.8382C179.156 42.0043 176.085 40.5766 174.064 38.555C172.042 36.5334 171.031 33.9432 171.031 30.7845C171.031 28.0554 171.777 25.7053 173.268 23.7342C174.759 21.7632 176.843 20.247 179.522 19.1856C182.226 18.1243 185.385 17.5936 188.998 17.5936C194.355 17.5936 198.563 18.7308 201.62 21.0051C204.703 23.2541 206.498 26.3244 207.003 30.2159Z" fill="#1D1D1F"/>
<path d="M232.21 61.3358C227.863 61.3358 224.111 60.4513 220.952 58.6824C217.793 56.9135 215.367 54.3992 213.674 51.1394C212.006 47.8543 211.172 43.9754 211.172 39.5026C211.172 35.1562 212.006 31.3404 213.674 28.0554C215.367 24.7703 217.743 22.2054 220.8 20.3607C223.883 18.516 227.497 17.5936 231.641 17.5936C234.446 17.5936 237.061 18.0485 239.487 18.9582C241.913 19.8427 244.036 21.182 245.855 22.9761C247.675 24.745 249.09 26.9814 250.101 29.6853C251.111 32.3639 251.617 35.51 251.617 39.1236V42.3076H215.835V35.0677H245.931L240.473 36.963C240.473 34.8151 240.144 32.9451 239.487 31.3531C238.83 29.7611 237.845 28.5355 236.531 27.6763C235.242 26.7919 233.637 26.3496 231.717 26.3496C229.796 26.3496 228.166 26.7919 226.827 27.6763C225.513 28.5608 224.502 29.7611 223.795 31.2773C223.087 32.7935 222.733 34.5371 222.733 36.5081V41.6253C222.733 43.9248 223.138 45.8959 223.946 47.5384C224.755 49.1557 225.88 50.4066 227.32 51.291C228.786 52.1502 230.466 52.5798 232.361 52.5798C233.675 52.5798 234.863 52.3902 235.924 52.0112C236.986 51.6321 237.895 51.0762 238.653 50.3434C239.437 49.6106 240.018 48.7261 240.397 47.69L251.238 48.4102C250.707 51.013 249.595 53.2873 247.902 55.2331C246.234 57.1536 244.074 58.6572 241.421 59.7438C238.767 60.8051 235.697 61.3358 232.21 61.3358Z" fill="#1D1D1F"/>
<path d="M297.595 61.26C292.592 61.26 288.107 60.1228 284.139 57.8485C280.172 55.5742 277.038 52.2765 274.739 47.9554C272.439 43.6342 271.289 38.416 271.289 32.3007C271.289 26.1349 272.439 20.8914 274.739 16.5702C277.064 12.2238 280.21 8.92607 284.177 6.67706C288.17 4.40277 292.643 3.26562 297.595 3.26562C300.88 3.26562 303.925 3.73312 306.73 4.6681C309.535 5.57782 312.012 6.91712 314.16 8.68601C316.333 10.4296 318.102 12.5776 319.466 15.1298C320.831 17.6568 321.703 20.5502 322.082 23.81H310.028C309.801 22.2686 309.346 20.8787 308.664 19.6405C308.007 18.4023 307.135 17.3536 306.048 16.4944C304.987 15.6352 303.761 14.9782 302.371 14.5233C301.007 14.0432 299.503 13.8032 297.861 13.8032C294.98 13.8032 292.44 14.536 290.242 16.0016C288.069 17.442 286.376 19.5394 285.163 22.2938C283.975 25.023 283.381 28.3586 283.381 32.3007C283.381 36.3186 283.988 39.7048 285.201 42.4592C286.413 45.1883 288.107 47.2478 290.28 48.6377C292.453 50.0275 294.967 50.7224 297.823 50.7224C299.415 50.7224 300.893 50.5076 302.258 50.078C303.622 49.6485 304.835 49.0293 305.897 48.2207C306.958 47.4121 307.842 46.4265 308.55 45.2641C309.283 44.0765 309.775 42.7245 310.028 41.2083H322.082C321.779 43.8111 321.008 46.3128 319.77 48.7135C318.557 51.1141 316.902 53.262 314.804 55.1573C312.707 57.0273 310.218 58.5182 307.337 59.6301C304.456 60.7167 301.209 61.26 297.595 61.26Z" fill="#1D1D1F"/>
<path d="M339.708 36.0154V60.5019H327.995V4.02372H339.329V25.6674H339.859C340.819 23.1656 342.361 21.1946 344.484 19.7542C346.632 18.3138 349.31 17.5936 352.519 17.5936C355.451 17.5936 358.016 18.238 360.214 19.5268C362.413 20.7903 364.118 22.6097 365.331 24.9851C366.569 27.3604 367.189 30.2159 367.189 33.5516V60.5019H355.438V35.6363C355.438 33.0335 354.768 30.9993 353.429 29.5336C352.115 28.068 350.258 27.3352 347.857 27.3352C346.24 27.3352 344.825 27.6889 343.612 28.3965C342.399 29.0788 341.439 30.0643 340.731 31.3531C340.049 32.6418 339.708 34.1959 339.708 36.0154Z" fill="#1D1D1F"/>
<path d="M386.141 61.2979C383.462 61.2979 381.049 60.8304 378.901 59.8954C376.779 58.9351 375.111 57.52 373.898 55.6501C372.685 53.7801 372.078 51.4553 372.078 48.6756C372.078 46.3002 372.508 44.3292 373.367 42.7624C374.226 41.1704 375.401 39.8817 376.892 38.8961C378.383 37.9106 380.076 37.1651 381.971 36.6597C383.867 36.1544 385.876 35.8006 387.998 35.5984C390.449 35.371 392.421 35.1436 393.911 34.9161C395.402 34.6887 396.489 34.3476 397.171 33.8927C397.879 33.4126 398.233 32.7303 398.233 31.8458V31.6563C398.233 29.9127 397.677 28.5608 396.565 27.6005C395.478 26.6402 393.937 26.1601 391.94 26.1601C389.843 26.1601 388.163 26.6276 386.899 27.5626C385.661 28.4723 384.84 29.6347 384.435 31.0498L373.557 30.178C374.113 27.6005 375.199 25.3768 376.816 23.5068C378.434 21.6115 380.518 20.1585 383.071 19.1477C385.648 18.1117 388.63 17.5936 392.016 17.5936C394.366 17.5936 396.615 17.8716 398.763 18.4275C400.911 18.9835 402.819 19.8427 404.487 21.0051C406.18 22.1422 407.519 23.6205 408.505 25.4399C409.49 27.2594 409.983 29.4199 409.983 31.9216V60.5019H398.801V54.5887H398.498C397.816 55.928 396.906 57.1031 395.769 58.1139C394.632 59.0994 393.267 59.8828 391.675 60.464C390.083 61.0199 388.238 61.2979 386.141 61.2979ZM389.515 53.1862C391.233 53.1862 392.749 52.8451 394.063 52.1628C395.402 51.4553 396.438 50.5203 397.171 49.3579C397.929 48.1702 398.308 46.8435 398.308 45.3779V40.8672C397.955 41.0946 397.449 41.3094 396.792 41.5116C396.16 41.7137 395.453 41.8906 394.67 42.0422C393.886 42.1939 393.103 42.3328 392.319 42.4592C391.536 42.5603 390.829 42.6613 390.197 42.7624C388.807 42.9646 387.594 43.2931 386.558 43.7479C385.522 44.1775 384.713 44.7714 384.132 45.5295C383.576 46.2623 383.298 47.1846 383.298 48.2965C383.298 49.8885 383.879 51.1015 385.042 51.9354C386.204 52.7693 387.695 53.1862 389.515 53.1862Z" fill="#1D1D1F"/>
<path d="M439.321 18.1243V26.994H413.811V18.1243H439.321ZM419.611 8.04163H431.324V47.4626C431.324 48.8777 431.639 49.9264 432.271 50.6087C432.903 51.2657 433.914 51.5942 435.303 51.5942C435.758 51.5942 436.264 51.5563 436.82 51.4805C437.376 51.4047 437.856 51.3163 438.26 51.2152L440.117 60.0091C438.829 60.3882 437.578 60.6661 436.365 60.843C435.177 61.0199 434.002 61.1083 432.84 61.1083C428.62 61.1083 425.36 60.0596 423.06 57.9622C420.761 55.8396 419.611 52.8577 419.611 49.0167V8.04163Z" fill="#1D1D1F"/>
<defs>
<linearGradient id="paint0_linear_637_3352" x1="0.877685" y1="32" x2="64.8777" y2="32" gradientUnits="userSpaceOnUse">
<stop stop-color="#F5C3AF"/>
<stop offset="0.46875" stop-color="#EA89D7"/>
<stop offset="1" stop-color="#6767D9"/>
</linearGradient>
</defs>
</svg>
