<svg width="24" height="24" viewBox="0 0 24 24" fill="none" xmlns="http://www.w3.org/2000/svg">
<path fill-rule="evenodd" clip-rule="evenodd" d="M4.3999 3.3999C3.84762 3.3999 3.3999 3.84762 3.3999 4.3999V14.5912C3.3999 15.1435 3.84762 15.5912 4.3999 15.5912H6.67816C7.23045 15.5912 7.67816 16.0389 7.67816 16.5912V19.1857L10.9798 15.8841C11.1673 15.6966 11.4216 15.5912 11.6869 15.5912H19.5999C20.1522 15.5912 20.5999 15.1435 20.5999 14.5912V4.3999C20.5999 3.84762 20.1522 3.3999 19.5999 3.3999H4.3999ZM1.3999 4.3999C1.3999 2.74304 2.74305 1.3999 4.3999 1.3999H19.5999C21.2568 1.3999 22.5999 2.74305 22.5999 4.3999V14.5912C22.5999 16.2481 21.2568 17.5912 19.5999 17.5912H12.1011L7.38527 22.307C7.09927 22.593 6.66915 22.6786 6.29548 22.5238C5.9218 22.369 5.67816 22.0044 5.67816 21.5999V17.5912H4.3999C2.74305 17.5912 1.3999 16.2481 1.3999 14.5912V4.3999Z" fill="#A1A1AA"/>
</svg>
