<svg width="12" height="8" viewBox="0 0 12 8" fill="none" xmlns="http://www.w3.org/2000/svg">
<path fill-rule="evenodd" clip-rule="evenodd" d="M11.3656 0.234229C11.5156 0.384251 11.5998 0.587698 11.5998 0.799829C11.5998 1.01196 11.5156 1.21541 11.3656 1.36543L4.9656 7.76543C4.81558 7.9154 4.61213 7.99966 4.4 7.99966C4.18787 7.99966 3.98442 7.9154 3.8344 7.76543L0.634398 4.56543C0.488671 4.41455 0.408036 4.21247 0.409858 4.00271C0.411681 3.79295 0.495816 3.5923 0.644143 3.44397C0.792469 3.29565 0.993119 3.21151 1.20288 3.20969C1.41263 3.20787 1.61472 3.2885 1.7656 3.43423L4.4 6.06863L10.2344 0.234229C10.3844 0.0842524 10.5879 0 10.8 0C11.0121 0 11.2156 0.0842524 11.3656 0.234229Z" fill="#3F3F46"/>
</svg>
