<svg width="24" height="24" viewBox="0 0 24 24" fill="none" xmlns="http://www.w3.org/2000/svg">
<path fill-rule="evenodd" clip-rule="evenodd" d="M11.9999 6.28003C9.65548 6.28003 7.63687 7.69157 6.75328 9.71599C6.63514 9.98666 6.4034 10.1913 6.12018 10.275C4.54628 10.7401 3.3999 12.1976 3.3999 13.92C3.3999 16.0186 5.101 17.72 7.1999 17.72H11.9999V18.72V19.72H7.1999C3.9963 19.72 1.3999 17.123 1.3999 13.92C1.3999 11.4514 2.94126 9.34418 5.11355 8.50649C6.38833 5.99991 8.9929 4.28003 11.9999 4.28003C15.7081 4.28003 18.8057 6.89498 19.5492 10.3823C21.3361 11.0939 22.5999 12.8383 22.5999 14.88C22.5999 17.5529 20.4328 19.72 17.7599 19.72H11.9999V18.72V17.72H17.7599C19.3282 17.72 20.5999 16.4484 20.5999 14.88C20.5999 13.5441 19.676 12.4211 18.4304 12.1198C18.0268 12.0222 17.7255 11.6852 17.6734 11.2732C17.3177 8.45794 14.9117 6.28003 11.9999 6.28003Z" fill="#A1A1AA"/>
</svg>
