<svg width="32" height="32" viewBox="0 0 32 32" fill="none" xmlns="http://www.w3.org/2000/svg">
<mask id="mask0_1543_4374" style="mask-type:alpha" maskUnits="userSpaceOnUse" x="0" y="0" width="32" height="32">
<rect width="32" height="32" fill="#D9D9D9"/>
</mask>
<g mask="url(#mask0_1543_4374)">
<path d="M13.7115 20.0385V15.5385H12.2692V14.346H14.9037V20.0385H13.7115ZM17.0963 20.0385C16.8129 20.0385 16.5754 19.9427 16.3837 19.751C16.1921 19.5593 16.0963 19.3218 16.0963 19.0385V15.346C16.0963 15.0627 16.1921 14.8252 16.3837 14.6335C16.5754 14.4418 16.8129 14.346 17.0963 14.346H18.9808C19.2641 14.346 19.5016 14.4418 19.6932 14.6335C19.8849 14.8252 19.9808 15.0627 19.9808 15.346V19.0385C19.9808 19.3218 19.8849 19.5593 19.6932 19.751C19.5016 19.9427 19.2641 20.0385 18.9808 20.0385H17.0963ZM17.4038 18.846H18.673C18.7115 18.846 18.7404 18.8364 18.7598 18.8173C18.7789 18.7981 18.7885 18.7693 18.7885 18.7308V15.6538C18.7885 15.6153 18.7789 15.5864 18.7598 15.5673C18.7404 15.5481 18.7115 15.5385 18.673 15.5385H17.4038C17.3654 15.5385 17.3366 15.5481 17.3173 15.5673C17.2981 15.5864 17.2885 15.6153 17.2885 15.6538V18.7308C17.2885 18.7693 17.2981 18.7981 17.3173 18.8173C17.3366 18.8364 17.3654 18.846 17.4038 18.846ZM16.5 25.6923C15.3205 25.6923 14.2154 25.4692 13.1848 25.023C12.1539 24.5768 11.2552 23.9704 10.4885 23.2038C9.72183 22.4371 9.11542 21.5383 8.66925 20.5075C8.22308 19.4768 8 18.3718 8 17.1923C8 16.0128 8.22308 14.9077 8.66925 13.877C9.11542 12.8462 9.72183 11.9474 10.4885 11.1807C11.2552 10.4141 12.1539 9.80767 13.1848 9.3615C14.2154 8.91533 15.3205 8.69225 16.5 8.69225H16.7655L15.1578 7.0845L16.2115 6L19.6538 9.43275L16.2308 12.8653L15.177 11.7807L16.7655 10.1923H16.5C14.55 10.1923 12.8958 10.8714 11.5375 12.2298C10.1792 13.5881 9.5 15.2423 9.5 17.1923C9.5 19.1423 10.1792 20.7964 11.5375 22.1548C12.8958 23.5131 14.55 24.1923 16.5 24.1923C18.45 24.1923 20.1042 23.5131 21.4625 22.1548C22.8208 20.7964 23.5 19.1423 23.5 17.1923H25C25 18.3718 24.7769 19.4768 24.3307 20.5075C23.8846 21.5383 23.2782 22.4371 22.5115 23.2038C21.7448 23.9704 20.8461 24.5768 19.8152 25.023C18.7846 25.4692 17.6795 25.6923 16.5 25.6923Z" fill="#343A40"/>
</g>
</svg>
