<svg width="18" height="18" viewBox="0 0 18 18" fill="none" xmlns="http://www.w3.org/2000/svg">
<path fill-rule="evenodd" clip-rule="evenodd" d="M10.3969 2.59689C10.0407 1.13437 7.95934 1.13437 7.60308 2.59689C7.54989 2.81666 7.44557 3.02077 7.29859 3.1926C7.15162 3.36443 6.96615 3.49914 6.75728 3.58575C6.54842 3.67237 6.32205 3.70845 6.0966 3.69106C5.87115 3.67366 5.653 3.60329 5.45989 3.48566C4.1736 2.70189 2.70168 4.17379 3.48545 5.46006C3.99172 6.2907 3.54264 7.37447 2.59761 7.60416C1.13413 7.95948 1.13413 10.0417 2.59761 10.3961C2.81744 10.4493 3.02159 10.5538 3.19342 10.7008C3.36526 10.8479 3.49993 11.0335 3.58646 11.2425C3.673 11.4515 3.70895 11.6779 3.6914 11.9034C3.67385 12.1289 3.60328 12.3471 3.48545 12.5402C2.70168 13.8264 4.1736 15.2983 5.45989 14.5146C5.65296 14.3967 5.87114 14.3262 6.09664 14.3086C6.32215 14.2911 6.54862 14.327 6.7576 14.4136C6.96658 14.5001 7.15217 14.6348 7.29925 14.8066C7.44634 14.9784 7.55076 15.1826 7.60402 15.4024C7.95934 16.8659 10.0416 16.8659 10.396 15.4024C10.4494 15.1827 10.5539 14.9787 10.7011 14.807C10.8482 14.6353 11.0337 14.5007 11.2427 14.4142C11.4516 14.3277 11.678 14.2917 11.9034 14.3091C12.1288 14.3266 12.347 14.397 12.5401 14.5146C13.8264 15.2983 15.2983 13.8264 14.5145 12.5402C14.3969 12.3471 14.3265 12.1289 14.3091 11.9035C14.2916 11.678 14.3276 11.4516 14.4141 11.2427C14.5006 11.0338 14.6352 10.8483 14.8069 10.7011C14.9787 10.554 15.1827 10.4495 15.4024 10.3961C16.8659 10.0408 16.8659 7.95854 15.4024 7.60416C15.1826 7.5509 14.9784 7.44648 14.8066 7.2994C14.6347 7.15231 14.5001 6.96673 14.4135 6.75775C14.327 6.54877 14.291 6.32231 14.3086 6.09681C14.3262 5.8713 14.3967 5.65313 14.5145 5.46006C15.2983 4.17379 13.8264 2.70189 12.5401 3.48566C12.347 3.60348 12.1289 3.67405 11.9034 3.6916C11.6778 3.70915 11.4514 3.6732 11.2424 3.58666C11.0334 3.50013 10.8478 3.36546 10.7007 3.19363C10.5537 3.0218 10.4492 2.81766 10.396 2.59783L10.3969 2.59689Z" stroke="#1D1D1F" stroke-width="2"/>
<path d="M10.6667 9C10.6667 9.92047 9.92047 10.6667 9 10.6667C8.07953 10.6667 7.33333 9.92047 7.33333 9C7.33333 8.07953 8.07953 7.33333 9 7.33333C9.92047 7.33333 10.6667 8.07953 10.6667 9Z" stroke="#1D1D1F" stroke-width="2"/>
</svg>
