<svg width="32" height="32" viewBox="0 0 32 32" fill="none" xmlns="http://www.w3.org/2000/svg">
<path d="M15.0984 7.80369H9.4119C7.52756 7.80369 6 9.3312 6 11.2155V22.5882C6 24.4725 7.52756 26 9.4119 26H20.7849C22.6692 26 24.1968 24.4725 24.1968 22.5882L24.1968 16.9018M11.6865 20.3136L15.8244 19.4799C16.044 19.4356 16.2457 19.3274 16.4041 19.1689L25.6671 9.90116C26.1112 9.45682 26.1109 8.73657 25.6664 8.2926L23.7042 6.33264C23.2599 5.88886 22.54 5.88916 22.0961 6.33332L12.8321 15.6021C12.674 15.7602 12.566 15.9615 12.5217 16.1807L11.6865 20.3136Z" stroke="black" stroke-width="2" stroke-linecap="round" stroke-linejoin="round"/>
</svg>
