<svg width="32" height="32" viewBox="0 0 32 32" fill="none" xmlns="http://www.w3.org/2000/svg">
<mask id="mask0_1543_4368" style="mask-type:alpha" maskUnits="userSpaceOnUse" x="0" y="0" width="32" height="32">
<rect width="32" height="32" fill="#D9D9D9"/>
</mask>
<g mask="url(#mask0_1543_4368)">
<path d="M16 25.4999C14.8205 25.4999 13.7154 25.2768 12.6848 24.8306C11.6539 24.3845 10.7552 23.778 9.9885 23.0114C9.22183 22.2447 8.61542 21.346 8.16925 20.3151C7.72308 19.2845 7.5 18.1794 7.5 16.9999H9C9 18.9499 9.67917 20.604 11.0375 21.9624C12.3958 23.3207 14.05 23.9999 16 23.9999C17.95 23.9999 19.6042 23.3207 20.9625 21.9624C22.3208 20.604 23 18.9499 23 16.9999C23 15.0499 22.3208 13.3957 20.9625 12.0374C19.6042 10.679 17.95 9.99987 16 9.99987H15.7345L17.323 11.5884L16.2692 12.6729L12.8463 9.24037L16.2885 5.80762L17.3422 6.89212L15.7345 8.49987H16C17.1795 8.49987 18.2846 8.72295 19.3152 9.16912C20.3461 9.61528 21.2448 10.2217 22.0115 10.9884C22.7782 11.755 23.3846 12.6538 23.8307 13.6846C24.2769 14.7153 24.5 15.8204 24.5 16.9999C24.5 18.1794 24.2769 19.2845 23.8307 20.3151C23.3846 21.346 22.7782 22.2447 22.0115 23.0114C21.2448 23.778 20.3461 24.3845 19.3152 24.8306C18.2846 25.2768 17.1795 25.4999 16 25.4999ZM13.2115 19.8461V15.3461H11.7692V14.1536H14.4037V19.8461H13.2115ZM16.5963 19.8461C16.3129 19.8461 16.0754 19.7503 15.8837 19.5586C15.6921 19.367 15.5963 19.1295 15.5963 18.8461V15.1536C15.5963 14.8703 15.6921 14.6328 15.8837 14.4411C16.0754 14.2495 16.3129 14.1536 16.5963 14.1536H18.4808C18.7641 14.1536 19.0016 14.2495 19.1932 14.4411C19.3849 14.6328 19.4808 14.8703 19.4808 15.1536V18.8461C19.4808 19.1295 19.3849 19.367 19.1932 19.5586C19.0016 19.7503 18.7641 19.8461 18.4808 19.8461H16.5963ZM16.9038 18.6536H18.173C18.2115 18.6536 18.2404 18.644 18.2598 18.6249C18.2789 18.6057 18.2885 18.5769 18.2885 18.5384V15.4614C18.2885 15.4229 18.2789 15.394 18.2598 15.3749C18.2404 15.3557 18.2115 15.3461 18.173 15.3461H16.9038C16.8654 15.3461 16.8366 15.3557 16.8173 15.3749C16.7981 15.394 16.7885 15.4229 16.7885 15.4614V18.5384C16.7885 18.5769 16.7981 18.6057 16.8173 18.6249C16.8366 18.644 16.8654 18.6536 16.9038 18.6536Z" fill="#343A40"/>
</g>
</svg>
