<svg width="24" height="24" viewBox="0 0 24 24" fill="none" xmlns="http://www.w3.org/2000/svg">
<path fill-rule="evenodd" clip-rule="evenodd" d="M12 11C11.4477 11 11 11.4477 11 12C11 12.5523 11.4477 13 12 13C12.5523 13 13 12.5523 13 12C13 11.4477 12.5523 11 12 11ZM9 12C9 10.3431 10.3431 9 12 9C13.6569 9 15 10.3431 15 12C15 13.6569 13.6569 15 12 15C10.3431 15 9 13.6569 9 12Z" fill="#A1A1AA"/>
<path fill-rule="evenodd" clip-rule="evenodd" d="M14.6479 4.0796C13.9725 1.3068 10.0275 1.3068 9.35211 4.0796L9.35176 4.08104C9.32497 4.19174 9.27241 4.29456 9.19837 4.38112C9.12433 4.46769 9.0309 4.53555 8.92568 4.57918C8.89053 4.59376 8.8544 4.60549 8.81763 4.61433C8.74432 4.63195 8.66848 4.63807 8.59285 4.63223C8.47932 4.62347 8.36934 4.58797 8.27209 4.52876C5.83336 3.04293 3.04251 5.83359 4.52859 8.27242C4.63453 8.44624 4.65733 8.64229 4.6136 8.82038C4.55213 9.07071 4.35922 9.28555 4.08096 9.35328C1.30761 10.0268 1.3048 13.9748 4.08179 14.6472C4.1925 14.674 4.2953 14.7266 4.38184 14.8007C4.4684 14.8748 4.53624 14.9683 4.57983 15.0736C4.62342 15.1788 4.64154 15.2929 4.63269 15.4065C4.62385 15.5201 4.58795 15.6306 4.52859 15.7279C3.04249 18.1667 5.83404 20.9571 8.27279 19.4711C8.37006 19.4117 8.47997 19.3762 8.59357 19.3673C8.70718 19.3585 8.82127 19.3766 8.92655 19.4202C9.03182 19.4638 9.12532 19.5316 9.19941 19.6182C9.27351 19.7048 9.32623 19.8081 9.35306 19.9188C10.0264 22.6921 13.9737 22.6953 14.6469 19.9192C14.6738 19.8084 14.7265 19.7056 14.8007 19.619C14.8749 19.5324 14.9684 19.4646 15.0738 19.4209C15.1791 19.3773 15.2932 19.3592 15.4069 19.368C15.5206 19.3768 15.6306 19.4123 15.728 19.4716C18.1667 20.9573 20.9575 18.1667 19.4714 15.7279C19.4122 15.6305 19.3767 15.5206 19.3679 15.407C19.3591 15.2933 19.3773 15.1792 19.4209 15.0739C19.4645 14.9685 19.5324 14.875 19.6189 14.8008C19.7055 14.7266 19.8084 14.6739 19.9192 14.647C22.6924 13.9733 22.6951 10.0255 19.9182 9.35308C19.8075 9.32624 19.7047 9.27365 19.6182 9.19957C19.5316 9.12548 19.4638 9.03199 19.4202 8.92672C19.3766 8.82144 19.3585 8.70737 19.3673 8.59377C19.3761 8.48018 19.4121 8.36968 19.4714 8.27242C20.9575 5.83355 18.166 3.0432 15.7272 4.52919C15.6299 4.58854 15.52 4.62409 15.4064 4.63293C15.2928 4.64178 15.1787 4.62366 15.0735 4.58007C14.9682 4.53648 14.8747 4.46864 14.8006 4.38207C14.7363 4.307 14.6882 4.21968 14.6591 4.12558L14.6479 4.0796ZM11.2955 4.55222C11.1945 4.96869 10.9968 5.35546 10.7183 5.68111C10.4396 6.00695 10.0879 6.26238 9.6918 6.42663C9.29574 6.59087 8.86649 6.65929 8.439 6.6263C8.18254 6.60652 7.93106 6.55057 7.69182 6.46082C7.53226 6.40096 7.37815 6.32606 7.23165 6.23682C7.22416 6.23226 7.21666 6.22785 7.20915 6.22359C7.01614 6.11409 6.81616 6.10347 6.64136 6.15956C6.41552 6.23203 6.2317 6.41586 6.15926 6.64168C6.10315 6.81657 6.11384 7.01664 6.22352 7.20969C6.22769 7.21701 6.23199 7.22433 6.23644 7.23163C7.1965 8.80695 6.34496 10.8612 4.55331 11.2967C3.81454 11.4761 3.81719 12.5253 4.55248 12.7034C4.96933 12.8044 5.35653 13.0024 5.68238 13.2813C6.00822 13.5602 6.26358 13.9121 6.42767 14.3084C6.59177 14.7047 6.65995 15.1341 6.62666 15.5617C6.59339 15.9892 6.45963 16.4029 6.23628 16.7689C5.8418 17.417 6.58331 18.1585 7.23153 17.7635C7.5975 17.5403 8.01099 17.4066 8.43837 17.3734C8.86599 17.3401 9.29541 17.4083 9.69169 17.5724C10.088 17.7364 10.4399 17.9918 10.7188 18.3176C10.9976 18.6434 11.1956 19.0303 11.2966 19.4469C11.476 20.1857 12.5252 20.1828 12.7033 19.4475C12.8046 19.031 13.003 18.6433 13.2819 18.3177C13.5608 17.9922 13.9125 17.7371 14.3086 17.5731C14.7047 17.4091 15.1338 17.3408 15.5612 17.3739C15.9886 17.407 16.4022 17.5404 16.7683 17.7634C17.4166 18.1585 18.1585 17.4167 17.7635 16.7686C17.5405 16.4024 17.407 15.9887 17.3739 15.5613C17.3408 15.1339 17.409 14.7048 17.573 14.3087C17.7371 13.9126 17.9922 13.5609 18.3177 13.282C18.6433 13.0031 19.03 12.8049 19.4465 12.7036C20.1853 12.5242 20.1828 11.475 19.4475 11.2969C19.0307 11.1959 18.6435 10.9979 18.3176 10.719C17.9918 10.4401 17.7364 10.0882 17.5723 9.69188C17.4082 9.29561 17.3401 8.86618 17.3733 8.43857C17.4066 8.011 17.5405 7.59721 17.7639 7.23113C18.158 6.5831 17.4166 5.84182 16.7685 6.23675C16.5539 6.36761 16.323 6.4677 16.0826 6.53482C15.9129 6.58219 15.7384 6.61314 15.5616 6.6269C15.134 6.66019 14.7046 6.59201 14.3083 6.42792C13.912 6.26383 13.5601 6.00848 13.2812 5.68264C13.1658 5.54781 13.0642 5.40249 12.9777 5.24891C12.855 5.03135 12.7625 4.79721 12.7033 4.55285L12.6924 4.50804C12.482 3.81623 11.4718 3.83096 11.2955 4.55222Z" fill="#A1A1AA"/>
</svg>
