<svg width="32" height="32" viewBox="0 0 32 32" fill="none" xmlns="http://www.w3.org/2000/svg">
<mask id="mask0_1571_4788" style="mask-type:alpha" maskUnits="userSpaceOnUse" x="0" y="0" width="32" height="32">
<rect width="32" height="32" fill="#D9D9D9"/>
</mask>
<g mask="url(#mask0_1571_4788)">
<path d="M18.0386 24.1093V22.5593C19.4809 22.1005 20.6427 21.2672 21.5241 20.0593C22.4056 18.8517 22.8463 17.4902 22.8463 15.9748C22.8463 14.4595 22.4056 13.098 21.5241 11.8903C20.6427 10.6825 19.4809 9.84917 18.0386 9.39033V7.84033C19.9001 8.339 21.4167 9.33833 22.5886 10.8383C23.7602 12.3383 24.3461 14.0505 24.3461 15.9748C24.3461 17.8992 23.7602 19.6113 22.5886 21.1113C21.4167 22.6113 19.9001 23.6107 18.0386 24.1093ZM7.65405 18.4998V13.4998H11.3656L15.6538 9.21158V22.7881L11.3656 18.4998H7.65405ZM18.0386 19.6536V12.2961C18.7129 12.6627 19.2341 13.1791 19.6021 13.8451C19.9699 14.5111 20.1538 15.2293 20.1538 15.9998C20.1538 16.76 19.9682 17.4673 19.5971 18.1218C19.2259 18.7763 18.7064 19.2869 18.0386 19.6536ZM14.1538 12.8498L12.0038 14.9998H9.1538V16.9998H12.0038L14.1538 19.1498V12.8498Z" fill="#1C1B1F"/>
</g>
</svg>
