<svg width="290" height="216" viewBox="0 0 290 216" fill="none" xmlns="http://www.w3.org/2000/svg">
<g filter="url(#filter0_dd_1217_4316)">
<rect x="41" y="21.0002" width="208" height="134" rx="24" fill="white"/>
<rect x="40.5" y="20.5002" width="209" height="135" rx="24.5" stroke="#D6DCE5"/>
<path d="M92.3136 108.103C92.3136 109.973 93.6499 110.189 94.838 110.189C100.081 110.189 101.801 106.235 101.801 102.618C101.801 98.0827 98.8904 94.8066 94.207 94.8066C93.2116 94.8066 92.753 94.8761 92.3136 94.9026V108.103ZM89.9369 96.7203C89.9369 94.5382 88.7951 94.682 87.7056 94.6573V94.0303C88.6499 94.0741 89.6207 94.0741 90.568 94.0741C91.5866 94.0741 92.9707 94.0303 94.767 94.0303C101.049 94.0303 104.472 98.225 104.472 102.523C104.472 104.925 103.066 110.967 94.4754 110.967C93.2406 110.967 92.0959 110.92 90.957 110.92C89.8645 110.92 88.7951 110.945 87.7056 110.967V110.334C89.1577 110.189 89.8645 110.141 89.9369 108.492V96.7203Z" fill="#231F20"/>
<path d="M107.921 96.1407C107.287 96.1407 106.73 95.5572 106.73 94.9276C106.73 94.3198 107.312 93.7597 107.921 93.7597C108.549 93.7597 109.111 94.2705 109.111 94.9276C109.111 95.5822 108.575 96.1407 107.921 96.1407ZM105.322 110.335H105.784C106.463 110.335 106.947 110.335 106.947 109.531V102.958C106.947 101.891 106.586 101.744 105.685 101.262V100.873C106.827 100.531 108.185 100.074 108.284 99.9971C108.454 99.9026 108.597 99.878 108.72 99.878C108.841 99.878 108.889 100.022 108.889 100.216V109.531C108.889 110.335 109.425 110.335 110.101 110.335H110.515V110.967C109.689 110.967 108.841 110.919 107.967 110.919C107.094 110.919 106.22 110.944 105.322 110.967V110.335Z" fill="#231F20"/>
<path d="M112.821 103.103C112.821 102.208 112.554 101.964 111.415 101.505V101.041C112.457 100.702 113.45 100.384 114.617 99.8772C114.689 99.8772 114.76 99.9254 114.76 100.117V101.698C116.146 100.702 117.336 99.8772 118.962 99.8772C121.024 99.8772 121.752 101.381 121.752 103.274V109.532C121.752 110.335 122.288 110.335 122.965 110.335H123.402V110.966C122.55 110.966 121.702 110.92 120.831 110.92C119.956 110.92 119.083 110.945 118.209 110.966V110.335H118.646C119.327 110.335 119.808 110.335 119.808 109.532V103.251C119.808 101.865 118.962 101.187 117.577 101.187C116.801 101.187 115.564 101.817 114.76 102.352V109.532C114.76 110.335 115.299 110.335 115.978 110.335H116.414V110.966C115.564 110.966 114.713 110.92 113.838 110.92C112.967 110.92 112.093 110.945 111.219 110.966V110.335H111.659C112.336 110.335 112.821 110.335 112.821 109.532V103.103Z" fill="#231F20"/>
<path d="M129.544 103.492C130.148 103.492 130.219 103.177 130.219 102.887C130.219 101.646 129.467 100.652 128.109 100.652C126.631 100.652 125.611 101.743 125.319 103.492H129.544ZM125.248 104.271C125.197 104.489 125.197 104.851 125.248 105.677C125.39 107.984 126.873 109.876 128.813 109.876C130.148 109.876 131.195 109.146 132.09 108.249L132.43 108.589C131.313 110.069 129.932 111.329 127.942 111.329C124.082 111.329 123.307 107.594 123.307 106.041C123.307 101.285 126.509 99.8776 128.205 99.8776C130.172 99.8776 132.286 101.114 132.308 103.685C132.308 103.834 132.308 103.978 132.286 104.124L132.064 104.271H125.248Z" fill="#231F20"/>
<path d="M132.866 110.335H133.523C134.202 110.335 134.684 110.335 134.684 109.531V102.715C134.684 101.965 133.789 101.818 133.424 101.622V101.262C135.194 100.508 136.168 99.8783 136.387 99.8783C136.531 99.8783 136.603 99.9478 136.603 100.193V102.375H136.655C137.259 101.431 138.279 99.8783 139.759 99.8783C140.365 99.8783 141.14 100.288 141.14 101.162C141.14 101.818 140.683 102.403 140.001 102.403C139.247 102.403 139.247 101.818 138.399 101.818C137.987 101.818 136.628 102.375 136.628 103.835V109.531C136.628 110.335 137.112 110.335 137.792 110.335H139.151V110.968C137.816 110.944 136.799 110.919 135.756 110.919C134.759 110.919 133.741 110.944 132.866 110.968V110.335Z" fill="#231F20"/>
<path d="M142.207 107.594C142.525 109.194 143.496 110.555 145.268 110.555C146.698 110.555 147.229 109.68 147.229 108.831C147.229 105.969 141.943 106.887 141.943 102.983C141.943 101.622 143.036 99.878 145.706 99.878C146.48 99.878 147.524 100.096 148.47 100.58L148.641 103.056H148.084C147.841 101.528 146.989 100.651 145.437 100.651C144.465 100.651 143.545 101.211 143.545 102.255C143.545 105.096 149.173 104.22 149.173 108.03C149.173 109.631 147.888 111.33 145.002 111.33C144.027 111.33 142.888 110.992 142.039 110.508L141.772 107.716L142.207 107.594Z" fill="#231F20"/>
<path d="M171.085 98.4199H170.479C170.019 95.5822 168.003 94.4418 165.289 94.4418C162.495 94.4418 158.441 96.3088 158.441 102.13C158.441 107.035 161.942 110.555 165.675 110.555C168.077 110.555 170.068 108.906 170.554 106.356L171.11 106.5L170.554 110.045C169.534 110.677 166.789 111.33 165.187 111.33C159.51 111.33 155.922 107.666 155.922 102.207C155.922 97.2318 160.36 93.6637 165.118 93.6637C167.084 93.6637 168.974 94.2951 170.843 94.9493L171.085 98.4199Z" fill="#231F20"/>
<path d="M171.958 110.335H172.421C173.102 110.335 173.587 110.335 173.587 109.531V96.022C173.587 94.4418 173.223 94.3926 172.301 94.1271V93.738C173.27 93.4221 174.29 92.9886 174.801 92.6933C175.066 92.5484 175.262 92.4248 175.333 92.4248C175.481 92.4248 175.528 92.5716 175.528 92.7672V109.531C175.528 110.335 176.063 110.335 176.742 110.335H177.154V110.968C176.333 110.968 175.481 110.919 174.605 110.919C173.734 110.919 172.861 110.944 171.958 110.968V110.335Z" fill="#231F20"/>
<path d="M187.542 109.63C187.542 110.07 187.806 110.092 188.221 110.092C188.51 110.092 188.877 110.07 189.193 110.07V110.581C188.145 110.677 186.158 111.186 185.693 111.331L185.575 111.258V109.295C184.121 110.484 183.001 111.331 181.276 111.331C179.967 111.331 178.611 110.484 178.611 108.447V102.233C178.611 101.6 178.512 100.992 177.157 100.873V100.412C178.031 100.385 179.967 100.243 180.285 100.243C180.555 100.243 180.555 100.412 180.555 100.945V107.205C180.555 107.932 180.555 110.019 182.664 110.019C183.487 110.019 184.579 109.387 185.598 108.544V102.01C185.598 101.527 184.434 101.262 183.562 101.017V100.58C185.746 100.433 187.107 100.243 187.347 100.243C187.542 100.243 187.542 100.412 187.542 100.68V109.63Z" fill="#231F20"/>
<path d="M192.369 108.224C192.369 109.147 193.243 110.699 194.87 110.699C197.469 110.699 198.56 108.15 198.56 105.99C198.56 103.371 196.569 101.187 194.677 101.187C193.775 101.187 193.025 101.771 192.369 102.331V108.224ZM192.369 101.622C193.339 100.8 194.653 99.8787 195.986 99.8787C198.801 99.8787 200.5 102.331 200.5 104.973C200.5 108.15 198.171 111.33 194.698 111.33C192.901 111.33 191.958 110.749 191.326 110.483L190.599 111.039L190.091 110.773C190.304 109.343 190.427 107.933 190.427 106.454V96.022C190.427 94.4422 190.065 94.3915 189.142 94.126V93.7373C190.116 93.4221 191.131 92.9886 191.642 92.6926C191.908 92.5488 192.102 92.4256 192.177 92.4256C192.322 92.4256 192.369 92.5719 192.369 92.7679V101.622Z" fill="#231F20"/>
<path d="M87.678 125.075H87.8626C88.3369 125.075 88.8404 125.012 88.8404 124.323V117.407C88.8404 116.718 88.3369 116.655 87.8626 116.655H87.678V116.253C88.1946 116.253 88.9856 116.308 89.6339 116.308C90.294 116.308 91.085 116.253 91.7046 116.253V116.655H91.52C91.0456 116.655 90.5422 116.718 90.5422 117.407V124.323C90.5422 125.012 91.0456 125.075 91.52 125.075H91.7046V125.474C91.0717 125.474 90.2782 125.421 89.6196 125.421C88.9709 125.421 88.1946 125.474 87.678 125.474V125.075Z" fill="#231F20"/>
<path d="M91.648 125.417L91.6494 125.135H91.5218C91.0504 125.135 90.4874 125.053 90.4845 124.323V117.406C90.4874 116.677 91.0504 116.595 91.5218 116.595H91.648V116.315C91.0386 116.315 90.2741 116.366 89.6343 116.366C89.0077 116.366 88.2472 116.317 87.7364 116.315V116.595H87.8626C88.3329 116.595 88.8955 116.677 88.8955 117.406V124.323C88.8955 125.053 88.3329 125.135 87.8626 125.135H87.7364V125.417C88.2472 125.409 88.9944 125.363 89.6199 125.363C90.2624 125.363 91.0272 125.412 91.648 125.417ZM91.7046 125.53C91.0677 125.53 90.2756 125.478 89.6199 125.478C88.9727 125.478 88.1965 125.53 87.6783 125.53H87.6206V125.021H87.8626C88.3417 125.009 88.7782 124.97 88.7812 124.323V117.406C88.7782 116.761 88.3417 116.717 87.8626 116.709H87.6206V116.201H87.6783C88.1965 116.201 88.9871 116.251 89.6343 116.251C90.2914 116.251 91.0809 116.201 91.7046 116.201H91.7627V116.709H91.5218C91.0416 116.717 90.6021 116.761 90.6007 117.406V124.323C90.6021 124.97 91.0416 125.009 91.5218 125.021H91.7627V125.53H91.7046Z" fill="#231F20"/>
<path d="M100.777 122.872L100.803 122.846V117.894C100.803 116.811 100.05 116.654 99.6527 116.654H99.364V116.254C99.9833 116.254 100.593 116.308 101.213 116.308C101.752 116.308 102.296 116.254 102.835 116.254V116.654H102.64C102.083 116.654 101.46 116.758 101.46 118.329V124.339C101.46 124.8 101.476 125.261 101.542 125.67H101.04L94.2393 118.093V123.53C94.2393 124.682 94.4629 125.074 95.4801 125.074H95.7033V125.473C95.1377 125.473 94.5688 125.421 94 125.421C93.4094 125.421 92.8001 125.473 92.2065 125.473V125.074H92.3908C93.302 125.074 93.5807 124.458 93.5807 123.4V117.84C93.5807 117.1 92.9699 116.654 92.3779 116.654H92.2065V116.254C92.7059 116.254 93.2222 116.308 93.7227 116.308C94.1202 116.308 94.5048 116.254 94.8994 116.254L100.777 122.872Z" fill="#231F20"/>
<path d="M100.746 122.845V122.84L100.734 122.832L100.746 122.845ZM101.039 125.613H101.477C101.417 125.217 101.407 124.776 101.407 124.339V118.328C101.407 116.744 102.07 116.596 102.639 116.596H102.778V116.314C102.257 116.317 101.737 116.367 101.213 116.367C100.608 116.367 100.019 116.317 99.421 116.314V116.596H99.6516C100.059 116.596 100.859 116.776 100.859 117.894L100.843 122.886L100.815 122.91L100.77 122.952L94.9002 116.314C94.5067 116.314 94.1239 116.367 93.7234 116.367C93.2402 116.367 92.7423 116.317 92.2639 116.314L92.2624 116.596H92.3783C92.9979 116.596 93.6363 117.069 93.6363 117.841V123.4C93.6363 124.458 93.3417 125.131 92.3915 125.136L92.2639 125.131V125.417C92.8354 125.41 93.423 125.362 94.0003 125.362C94.5534 125.362 95.1017 125.41 95.6455 125.417V125.136H95.479C94.4401 125.131 94.1816 124.682 94.1816 123.531V117.944L101.039 125.613ZM101.541 125.729L100.997 125.709L94.2949 118.241V123.531C94.3122 124.682 94.4865 125.007 95.479 125.021H95.7632V125.529H95.7036C95.1337 125.529 94.5648 125.478 94.0003 125.478C93.4112 125.478 92.8048 125.529 92.2043 125.529H92.1462V125.021H92.3915C93.2649 125.014 93.5131 124.454 93.5245 123.4V117.841C93.5215 117.138 92.9442 116.71 92.3783 116.709H92.1462V116.2H92.2043C92.7103 116.2 93.2255 116.252 93.7234 116.252C94.1151 116.252 94.4982 116.2 94.9435 116.22L100.746 122.751V117.894C100.739 116.844 100.039 116.718 99.6516 116.709H99.3033V116.2H99.3629C99.9855 116.2 100.595 116.252 101.213 116.252C101.748 116.252 102.291 116.2 102.835 116.2H102.894V116.709H102.639C102.092 116.725 101.535 116.774 101.519 118.328V124.339C101.519 124.798 101.532 125.259 101.596 125.662L101.608 125.729H101.541Z" fill="#231F20"/>
<path d="M104.812 116.916C103.821 116.916 103.785 117.153 103.585 118.117H103.19C103.244 117.748 103.307 117.378 103.35 116.994C103.4 116.625 103.428 116.254 103.428 115.874H103.746C103.852 116.27 104.181 116.254 104.538 116.254H111.351C111.707 116.254 112.038 116.242 112.065 115.846L112.378 115.901C112.33 116.254 112.277 116.612 112.236 116.969C112.209 117.324 112.209 117.683 112.209 118.039L111.814 118.186C111.788 117.696 111.719 116.916 110.836 116.916H108.671V123.941C108.671 124.961 109.134 125.075 109.767 125.075H110.016V125.473C109.503 125.473 108.577 125.421 107.865 125.421C107.074 125.421 106.147 125.473 105.632 125.473V125.075H105.883C106.611 125.075 106.978 125.011 106.978 123.97V116.916H104.812Z" fill="#231F20"/>
<path d="M110.019 125.529C109.498 125.529 108.574 125.477 107.865 125.477C107.074 125.477 106.153 125.529 105.632 125.529H105.577V125.02H105.884C106.613 125.003 106.906 124.994 106.92 123.969V116.972H104.812V116.86H107.036V123.969C107.036 125.027 106.61 125.136 105.884 125.136H105.69V125.414C106.212 125.41 107.098 125.363 107.865 125.363C108.554 125.363 109.436 125.41 109.958 125.414V125.136H109.767C109.128 125.136 108.612 124.981 108.612 123.941V116.86H110.836C111.723 116.861 111.839 117.613 111.866 118.104L112.155 117.998C112.155 117.655 112.157 117.31 112.178 116.96C112.216 116.624 112.265 116.286 112.315 115.948L112.114 115.914C112.049 116.297 111.679 116.319 111.35 116.315H104.47C104.158 116.315 103.821 116.299 103.704 115.932H103.483C103.483 116.297 103.457 116.65 103.405 117.004C103.367 117.365 103.309 117.715 103.259 118.06H103.541C103.717 117.143 103.828 116.844 104.812 116.86V116.972C103.837 116.992 103.859 117.155 103.641 118.131L103.634 118.176H103.123L103.132 118.108C103.183 117.74 103.252 117.369 103.293 116.985C103.345 116.62 103.371 116.252 103.371 115.873V115.816H103.791L103.799 115.858C103.891 116.191 104.133 116.193 104.47 116.2H111.35C111.715 116.193 111.985 116.187 112.007 115.841L112.011 115.781L112.071 115.792L112.442 115.85L112.436 115.907C112.384 116.262 112.332 116.62 112.294 116.972C112.267 117.326 112.267 117.683 112.267 118.038V118.079L112.229 118.095L111.761 118.266L111.759 118.186C111.723 117.691 111.67 116.972 110.836 116.972H108.728V123.941C108.741 124.937 109.137 125.007 109.767 125.02H110.073V125.529H110.019Z" fill="#231F20"/>
<path d="M112.803 125.075H112.987C113.461 125.075 113.963 125.012 113.963 124.323V117.407C113.963 116.718 113.461 116.655 112.987 116.655H112.803V116.253C113.605 116.253 114.983 116.308 116.089 116.308C117.2 116.308 118.572 116.253 119.467 116.253C119.445 116.823 119.458 117.697 119.497 118.277L119.098 118.383C119.036 117.526 118.876 116.839 117.489 116.839H115.658V120.295H117.225C118.019 120.295 118.191 119.85 118.268 119.136H118.663C118.638 119.651 118.624 120.165 118.624 120.68C118.624 121.183 118.638 121.684 118.663 122.184L118.268 122.264C118.191 121.472 118.151 120.957 117.238 120.957H115.658V124.033C115.658 124.892 116.421 124.892 117.264 124.892C118.851 124.892 119.549 124.786 119.945 123.281L120.314 123.374C120.143 124.076 119.984 124.771 119.866 125.474C119.023 125.474 117.502 125.421 116.314 125.421C115.124 125.421 113.554 125.474 112.803 125.474V125.075Z" fill="#231F20"/>
<path d="M119.818 125.414C119.931 124.749 120.082 124.081 120.246 123.417L119.984 123.351C119.588 124.83 118.824 124.96 117.264 124.949C116.431 124.949 115.6 124.949 115.596 124.033V120.901H117.238C118.161 120.889 118.252 121.448 118.317 122.199L118.604 122.14C118.58 121.654 118.567 121.164 118.567 120.68C118.567 120.185 118.58 119.691 118.604 119.19H118.317C118.245 119.881 118.032 120.362 117.223 120.354H115.596V116.779H117.489C118.863 116.771 119.092 117.481 119.149 118.308L119.433 118.231C119.411 117.858 119.399 117.384 119.399 116.943C119.399 116.712 119.403 116.501 119.409 116.315C118.512 116.317 117.174 116.367 116.089 116.367C115.005 116.367 113.668 116.317 112.859 116.315V116.596H112.987C113.458 116.596 114.02 116.677 114.023 117.405V124.323C114.02 125.052 113.458 125.13 112.987 125.136H112.859V125.414C113.627 125.412 115.155 125.362 116.314 125.362C117.479 125.362 118.965 125.412 119.818 125.414ZM119.866 125.529C119.018 125.529 117.501 125.476 116.314 125.476C115.124 125.476 113.557 125.529 112.803 125.529H112.745V125.021H112.987C113.464 125.013 113.901 124.969 113.905 124.323V117.405C113.901 116.763 113.464 116.719 112.987 116.708H112.745V116.2H112.803C113.607 116.2 114.983 116.252 116.089 116.252C117.197 116.252 118.569 116.2 119.467 116.2H119.526V116.258C119.514 116.457 119.51 116.69 119.51 116.943C119.51 117.397 119.526 117.896 119.551 118.272V118.32L119.509 118.333L119.044 118.454L119.043 118.385C118.965 117.53 118.851 116.906 117.489 116.895H115.71V120.238H117.223C117.987 120.232 118.12 119.842 118.21 119.129L118.216 119.079H118.724V119.136C118.696 119.651 118.68 120.165 118.68 120.68C118.68 121.179 118.696 121.681 118.724 122.185V122.23L118.676 122.241L118.216 122.331L118.21 122.27C118.12 121.465 118.116 121.024 117.238 121.014L115.71 121.011V124.033C115.712 124.836 116.402 124.831 117.264 124.836C118.856 124.827 119.491 124.749 119.889 123.265L119.902 123.212L119.959 123.224L120.381 123.332L120.369 123.388C120.198 124.084 120.041 124.785 119.922 125.481L119.913 125.529H119.866Z" fill="#231F20"/>
<path d="M123.788 120.718H124.433C125.754 120.718 126.467 120.219 126.467 118.66C126.467 117.487 125.714 116.731 124.539 116.731C124.139 116.731 123.971 116.773 123.788 116.785V120.718ZM122.098 117.655C122.098 116.69 121.57 116.654 121.161 116.654H120.92V116.254C121.342 116.254 122.162 116.308 122.969 116.308C123.758 116.308 124.393 116.254 125.095 116.254C126.755 116.254 128.234 116.704 128.234 118.581C128.234 119.768 127.444 120.493 126.402 120.907L128.661 124.283C129.029 124.843 129.29 124.998 129.939 125.075V125.473C129.503 125.473 129.081 125.421 128.646 125.421C128.234 125.421 127.813 125.473 127.404 125.473C126.388 124.141 125.515 122.713 124.657 121.193H123.788V124.019C123.788 125.039 124.261 125.075 124.868 125.075H125.109V125.473C124.353 125.473 123.588 125.421 122.835 125.421C122.203 125.421 121.581 125.473 120.92 125.473V125.075H121.161C121.645 125.075 122.098 124.853 122.098 124.363V117.655Z" fill="#231F20"/>
<path d="M124.433 120.662C125.739 120.649 126.399 120.196 126.41 118.661C126.405 117.509 125.687 116.794 124.538 116.787C124.181 116.787 124.014 116.819 123.845 116.838V120.662H124.433ZM124.433 120.774H123.729V116.73L123.779 116.726C123.96 116.711 124.137 116.677 124.538 116.677C125.739 116.677 126.522 117.458 126.525 118.661C126.521 120.237 125.764 120.774 124.433 120.774ZM123.729 121.136H124.688L124.704 121.165C125.563 122.684 126.433 124.109 127.404 125.417C127.808 125.417 128.233 125.363 128.642 125.363C129.064 125.363 129.472 125.408 129.883 125.414V125.124C129.261 125.049 128.973 124.864 128.613 124.317L126.313 120.878L126.38 120.851C127.413 120.445 128.178 119.739 128.179 118.578C128.178 116.749 126.753 116.321 125.096 116.315C124.398 116.315 123.761 116.366 122.969 116.366C122.19 116.366 121.409 116.317 120.977 116.315V116.597H121.16C121.569 116.597 122.151 116.663 122.151 117.656V124.363C122.151 124.895 121.657 125.135 121.16 125.135H120.977V125.414C121.614 125.412 122.213 125.363 122.832 125.363C123.572 125.363 124.317 125.412 125.048 125.414V125.135H124.868C124.266 125.135 123.729 125.061 123.729 124.019V121.136ZM129.939 125.528C129.497 125.528 129.077 125.478 128.642 125.478C128.241 125.478 127.818 125.528 127.357 125.509C126.347 124.179 125.479 122.761 124.625 121.251H123.845V124.019C123.858 125.013 124.257 125.004 124.868 125.021H125.164V125.528H125.105C124.349 125.528 123.581 125.478 122.832 125.478C122.201 125.478 121.583 125.528 120.919 125.528H120.865V125.021H121.16C121.635 125.016 122.033 124.809 122.037 124.363V117.656C122.029 116.72 121.569 116.721 121.16 116.709H120.865V116.201H120.919C121.35 116.201 122.164 116.251 122.969 116.251C123.755 116.251 124.391 116.201 125.096 116.201C126.757 116.201 128.291 116.663 128.295 118.578C128.295 119.771 127.506 120.516 126.489 120.93L128.706 124.252C129.075 124.8 129.304 124.938 129.947 125.021L129.994 125.025V125.528H129.939Z" fill="#231F20"/>
<path d="M138.903 122.872L138.928 122.846V117.894C138.928 116.811 138.176 116.654 137.781 116.654H137.49V116.254C138.112 116.254 138.716 116.308 139.34 116.308C139.882 116.308 140.422 116.254 140.965 116.254V116.654H140.769C140.213 116.654 139.591 116.758 139.591 118.329V124.339C139.591 124.8 139.602 125.261 139.667 125.67H139.168L132.368 118.093V123.53C132.368 124.682 132.593 125.074 133.61 125.074H133.836V125.473C133.266 125.473 132.697 125.421 132.13 125.421C131.535 125.421 130.929 125.473 130.335 125.473V125.074H130.516C131.431 125.074 131.706 124.458 131.706 123.4V117.84C131.706 117.1 131.099 116.654 130.507 116.654H130.335V116.254C130.835 116.254 131.354 116.308 131.853 116.308C132.248 116.308 132.631 116.254 133.027 116.254L138.903 122.872Z" fill="#231F20"/>
<path d="M138.871 122.845V122.84L138.864 122.832L138.871 122.845ZM139.169 125.613H139.6C139.545 125.218 139.533 124.776 139.533 124.339V118.328C139.533 116.744 140.202 116.599 140.768 116.596H140.905V116.314C140.386 116.317 139.863 116.367 139.34 116.367C138.735 116.367 138.143 116.317 137.548 116.314V116.596H137.782C138.188 116.599 138.989 116.776 138.989 117.894L138.97 122.886L138.945 122.91L138.903 122.955L133.027 116.314C132.635 116.314 132.249 116.367 131.853 116.367C131.363 116.367 130.87 116.317 130.391 116.314V116.596H130.505C131.127 116.599 131.763 117.066 131.763 117.841V123.399C131.763 124.458 131.463 125.131 130.516 125.136H130.391V125.414C130.963 125.41 131.55 125.362 132.13 125.362C132.682 125.362 133.23 125.41 133.777 125.414V125.136H133.611C132.57 125.136 132.31 124.683 132.307 123.531V117.944L139.169 125.613ZM139.668 125.729L139.125 125.709L132.425 118.241V123.531C132.441 124.683 132.615 125.007 133.611 125.021H133.89V125.529H133.834C133.262 125.529 132.695 125.475 132.13 125.475C131.54 125.475 130.928 125.529 130.336 125.529H130.273V125.021H130.516C131.388 125.017 131.64 124.454 131.649 123.399V117.841C131.646 117.135 131.073 116.71 130.505 116.709H130.273V116.2H130.336C130.838 116.2 131.356 116.252 131.853 116.252C132.242 116.252 132.624 116.2 133.066 116.216L138.871 122.751V117.894C138.87 116.844 138.165 116.715 137.782 116.709H137.432V116.2H137.49C138.115 116.2 138.723 116.252 139.34 116.252C139.877 116.252 140.419 116.2 140.963 116.2H141.02V116.709H140.768C140.223 116.722 139.662 116.774 139.648 118.328V124.339C139.648 124.798 139.659 125.255 139.726 125.662L139.732 125.729H139.668Z" fill="#231F20"/>
<path d="M145.017 117.734H144.991L143.762 121.472H146.23L145.017 117.734ZM143.091 123.585C142.956 124.033 142.795 124.38 142.795 124.613C142.795 125.011 143.354 125.075 143.788 125.075H143.934V125.472C143.403 125.446 142.864 125.421 142.334 125.421C141.858 125.421 141.385 125.446 140.911 125.472V125.075H140.988C141.502 125.075 141.941 124.771 142.134 124.217L144.249 118.16C144.42 117.669 144.661 117.011 144.738 116.519C145.161 116.375 145.69 116.112 145.941 115.953C145.981 115.938 146.002 115.928 146.045 115.928C146.083 115.928 146.111 115.928 146.138 115.966C146.177 116.072 146.217 116.191 146.259 116.297L148.686 123.203C148.844 123.664 149.004 124.155 149.174 124.551C149.333 124.92 149.612 125.075 150.047 125.075H150.124V125.472C149.532 125.446 148.937 125.421 148.305 125.421C147.659 125.421 146.997 125.446 146.326 125.472V125.075H146.47C146.772 125.075 147.287 125.025 147.287 124.694C147.287 124.522 147.17 124.165 147.02 123.743L146.507 122.21H143.509L143.091 123.585Z" fill="#231F20"/>
<path d="M143.838 121.416H146.149L145 117.876L143.838 121.416ZM143.68 121.531L144.945 117.679H145.055L146.309 121.531H143.68ZM146.38 125.41C147.032 125.39 147.674 125.363 148.304 125.363C148.919 125.363 149.492 125.39 150.067 125.41V125.136H150.047C149.596 125.141 149.286 124.959 149.121 124.573C148.949 124.173 148.789 123.682 148.633 123.221L146.203 116.315C146.162 116.209 146.122 116.09 146.09 115.995C146.077 115.982 146.081 115.982 146.07 115.982H146.045C146.019 115.982 146.003 115.99 145.97 116C145.714 116.164 145.183 116.425 144.791 116.528C144.712 117.03 144.474 117.687 144.301 118.176L142.19 124.238C141.988 124.811 141.526 125.136 140.987 125.136H140.967V125.41C141.418 125.39 141.877 125.363 142.335 125.363C142.846 125.363 143.366 125.39 143.871 125.41V125.136H143.787C143.356 125.13 142.756 125.084 142.741 124.615C142.741 124.352 142.901 124.013 143.033 123.569L143.091 123.585L143.033 123.568L143.468 122.156H146.544L147.073 123.724C147.223 124.15 147.343 124.501 147.343 124.695C147.323 125.1 146.768 125.129 146.47 125.136H146.38V125.41ZM150.12 125.529C149.53 125.505 148.936 125.476 148.304 125.476C147.659 125.476 147.001 125.505 146.325 125.529L146.266 125.534V125.016H146.47C146.773 125.016 147.226 124.949 147.226 124.695C147.229 124.544 147.114 124.181 146.968 123.762L146.466 122.269H143.552L143.14 123.601C143.005 124.054 142.85 124.402 142.85 124.615C142.855 124.937 143.349 125.016 143.787 125.016H143.989V125.534L143.929 125.529C143.401 125.505 142.86 125.476 142.335 125.476C141.861 125.476 141.385 125.505 140.912 125.529L140.854 125.534V125.016H140.987C141.479 125.016 141.888 124.734 142.078 124.199L144.194 118.14C144.368 117.65 144.604 116.992 144.719 116.467C145.133 116.324 145.662 116.058 145.918 115.898C145.956 115.885 145.991 115.866 146.045 115.866C146.077 115.865 146.149 115.875 146.189 115.946C146.229 116.054 146.27 116.171 146.309 116.277L148.742 123.185C148.897 123.646 149.056 124.133 149.227 124.522C149.379 124.877 149.623 125.016 150.047 125.016H150.183V125.534L150.12 125.529Z" fill="#231F20"/>
<path d="M150.708 116.916C149.715 116.916 149.677 117.153 149.479 118.117H149.081C149.135 117.748 149.202 117.378 149.24 116.994C149.294 116.625 149.32 116.254 149.32 115.874H149.637C149.743 116.27 150.073 116.254 150.429 116.254H157.242C157.598 116.254 157.926 116.242 157.953 115.846L158.271 115.901C158.22 116.254 158.17 116.612 158.126 116.969C158.094 117.324 158.094 117.683 158.094 118.039L157.702 118.186C157.681 117.696 157.611 116.916 156.727 116.916H154.561V123.941C154.561 124.961 155.024 125.075 155.658 125.075H155.907V125.473C155.394 125.473 154.47 125.421 153.756 125.421C152.965 125.421 152.038 125.473 151.522 125.473V125.075H151.774C152.504 125.075 152.874 125.011 152.874 123.97V116.916H150.708Z" fill="#231F20"/>
<path d="M155.906 125.529C155.391 125.529 154.467 125.477 153.756 125.477C152.967 125.477 152.044 125.529 151.522 125.529H151.467V125.02H151.774C152.503 125.003 152.793 124.994 152.812 123.969V116.972H150.706V116.86H152.926V123.969C152.926 125.027 152.501 125.13 151.774 125.136H151.58V125.416C152.102 125.41 152.989 125.363 153.756 125.363C154.445 125.363 155.329 125.41 155.851 125.416L155.848 125.136H155.655C155.02 125.13 154.507 124.981 154.505 123.941V116.86H156.726C157.616 116.861 157.729 117.613 157.755 118.104L158.042 117.998C158.042 117.655 158.042 117.31 158.069 116.963C158.106 116.624 158.158 116.286 158.204 115.95L158.007 115.914C157.943 116.297 157.574 116.319 157.241 116.315H150.361C150.049 116.316 149.714 116.299 149.593 115.927H149.377C149.373 116.297 149.35 116.65 149.296 117.004C149.26 117.368 149.196 117.715 149.147 118.06H149.431C149.605 117.143 149.717 116.841 150.706 116.86V116.972C149.726 116.989 149.749 117.155 149.534 118.131L149.524 118.176H149.013L149.022 118.108C149.076 117.74 149.142 117.369 149.181 116.989C149.235 116.62 149.26 116.252 149.26 115.873V115.816H149.678L149.689 115.858C149.782 116.191 150.026 116.193 150.361 116.2H157.241C157.607 116.193 157.875 116.187 157.897 115.841L157.898 115.781L157.962 115.792L158.338 115.85L158.326 115.907C158.27 116.262 158.222 116.62 158.183 116.972C158.158 117.326 158.158 117.683 158.158 118.038V118.079L158.118 118.095L157.649 118.266V118.186C157.616 117.691 157.562 116.972 156.726 116.972H154.618V123.941C154.631 124.937 155.027 125.007 155.655 125.02H155.965V125.529H155.906Z" fill="#231F20"/>
<path d="M158.758 125.075H158.942C159.421 125.075 159.92 125.012 159.92 124.323V117.407C159.92 116.718 159.421 116.655 158.942 116.655H158.758V116.253C159.273 116.253 160.063 116.308 160.711 116.308C161.371 116.308 162.163 116.253 162.787 116.253V116.655H162.602C162.124 116.655 161.62 116.718 161.62 117.407V124.323C161.62 125.012 162.124 125.075 162.602 125.075H162.787V125.474C162.151 125.474 161.359 125.421 160.699 125.421C160.05 125.421 159.273 125.474 158.758 125.474V125.075Z" fill="#231F20"/>
<path d="M162.725 125.414V125.136H162.602C162.128 125.136 161.566 125.052 161.566 124.323V117.405C161.566 116.677 162.128 116.596 162.602 116.596H162.725V116.315C162.116 116.317 161.355 116.367 160.71 116.367C160.084 116.367 159.326 116.317 158.816 116.315V116.596H158.942C159.41 116.596 159.976 116.677 159.976 117.405V124.323C159.976 125.052 159.41 125.136 158.942 125.136H158.816V125.414C159.326 125.407 160.071 125.362 160.699 125.362C161.34 125.362 162.105 125.41 162.725 125.414ZM162.787 125.529C162.148 125.529 161.358 125.476 160.699 125.476C160.053 125.476 159.272 125.529 158.757 125.529H158.703V125.021H158.942C159.42 125.013 159.858 124.969 159.859 124.323V117.405C159.858 116.763 159.42 116.718 158.942 116.708H158.703V116.2H158.757C159.272 116.2 160.066 116.252 160.71 116.252C161.371 116.252 162.161 116.2 162.787 116.2H162.84V116.708H162.602C162.119 116.718 161.684 116.763 161.68 117.405V124.323C161.684 124.969 162.119 125.013 162.602 125.021H162.84V125.529H162.787Z" fill="#231F20"/>
<path d="M168.25 125.09C170.815 125.09 171.258 122.831 171.258 120.907C171.258 118.976 170.219 116.64 168.026 116.64C165.717 116.64 165.03 118.699 165.03 120.466C165.03 122.831 166.113 125.09 168.25 125.09ZM168.053 116.058C170.866 116.058 173.11 117.802 173.11 120.616C173.11 123.653 170.933 125.671 168.119 125.671C165.316 125.671 163.183 123.771 163.183 120.929C163.183 118.187 165.308 116.058 168.053 116.058Z" fill="#231F20"/>
<path d="M164.97 120.466C164.975 118.691 165.671 116.581 168.026 116.581C170.271 116.585 171.315 118.966 171.317 120.907C171.315 122.831 170.861 125.145 168.249 125.145V125.034C170.764 125.032 171.198 122.831 171.203 120.907C171.203 118.992 170.172 116.7 168.026 116.697C165.761 116.7 165.091 118.709 165.086 120.466C165.089 122.821 166.162 125.028 168.249 125.034V125.145C166.06 125.142 164.975 122.844 164.97 120.466ZM163.122 120.93C163.129 118.154 165.278 116.005 168.052 115.999V116.116C165.335 116.116 163.234 118.214 163.234 120.93C163.238 123.738 165.346 125.611 168.119 125.613C170.903 125.611 173.049 123.62 173.056 120.613C173.055 117.836 170.844 116.119 168.052 116.116V115.999C170.887 116.005 173.16 117.766 173.165 120.613C173.163 123.681 170.96 125.723 168.119 125.729C165.296 125.723 163.129 123.799 163.122 120.93Z" fill="#231F20"/>
<path d="M182.01 122.872L182.036 122.846V117.894C182.036 116.811 181.283 116.654 180.882 116.654H180.598V116.254C181.215 116.254 181.826 116.308 182.444 116.308C182.99 116.308 183.529 116.254 184.069 116.254V116.654H183.871C183.315 116.654 182.693 116.758 182.693 118.329V124.339C182.693 124.8 182.709 125.261 182.775 125.67H182.271L175.472 118.093V123.53C175.472 124.682 175.696 125.074 176.714 125.074H176.938V125.473C176.37 125.473 175.804 125.421 175.234 125.421C174.641 125.421 174.031 125.473 173.437 125.473V125.074H173.624C174.538 125.074 174.809 124.458 174.809 123.4V117.84C174.809 117.1 174.206 116.654 173.608 116.654H173.437V116.254C173.94 116.254 174.454 116.308 174.957 116.308C175.352 116.308 175.735 116.254 176.131 116.254L182.01 122.872Z" fill="#231F20"/>
<path d="M181.976 122.845V122.84L181.964 122.832L181.976 122.845ZM182.271 125.613H182.707C182.649 125.217 182.638 124.776 182.638 124.339V118.328C182.638 116.742 183.305 116.599 183.871 116.596H184.013V116.314C183.489 116.317 182.969 116.367 182.44 116.367C181.843 116.367 181.252 116.317 180.653 116.314V116.596H180.882C181.294 116.599 182.091 116.779 182.091 117.894L182.075 122.886L182.051 122.91L182.01 122.955L176.13 116.314C175.742 116.314 175.356 116.367 174.957 116.367C174.469 116.367 173.971 116.317 173.494 116.314V116.596H173.607C174.23 116.599 174.868 117.066 174.868 117.841V123.4C174.868 124.458 174.574 125.131 173.623 125.136H173.494V125.414C174.067 125.41 174.653 125.362 175.235 125.362C175.787 125.362 176.335 125.41 176.881 125.414V125.136H176.709C175.674 125.136 175.415 124.683 175.415 123.531V117.944L182.271 125.613ZM182.774 125.729L182.227 125.709L175.527 118.241V123.531C175.543 124.683 175.718 125.005 176.709 125.017H176.997V125.529H176.939C176.367 125.529 175.8 125.478 175.235 125.478C174.644 125.478 174.037 125.529 173.436 125.529H173.383V125.017H173.623C174.494 125.014 174.745 124.454 174.752 123.4V117.841C174.752 117.135 174.178 116.71 173.607 116.709H173.383V116.2H173.436C173.943 116.2 174.458 116.252 174.957 116.252C175.347 116.252 175.727 116.2 176.177 116.22L181.976 122.751V117.894C181.973 116.844 181.273 116.718 180.882 116.709H180.539V116.2H180.596C181.217 116.2 181.829 116.252 182.44 116.252C182.984 116.252 183.52 116.2 184.068 116.2H184.125V116.709H183.871C183.329 116.725 182.765 116.774 182.753 118.328V124.339C182.753 124.798 182.765 125.259 182.826 125.662L182.838 125.729H182.774Z" fill="#231F20"/>
<path d="M188.119 117.734H188.093L186.864 121.472H189.338L188.119 117.734ZM186.191 123.585C186.062 124.033 185.902 124.38 185.902 124.613C185.902 125.011 186.461 125.075 186.89 125.075H187.038V125.472C186.509 125.446 185.969 125.421 185.439 125.421C184.959 125.421 184.488 125.446 184.016 125.472V125.075H184.089C184.606 125.075 185.045 124.771 185.241 124.217L187.356 118.16C187.527 117.669 187.764 117.011 187.842 116.519C188.264 116.375 188.792 116.112 189.043 115.953C189.084 115.938 189.111 115.928 189.151 115.928C189.188 115.928 189.213 115.928 189.242 115.966C189.283 116.072 189.321 116.191 189.364 116.297L191.791 123.203C191.947 123.664 192.109 124.155 192.28 124.551C192.437 124.92 192.717 125.075 193.152 125.075H193.23V125.472C192.637 125.446 192.041 125.421 191.408 125.421C190.761 125.421 190.1 125.446 189.427 125.472V125.075H189.573C189.874 125.075 190.393 125.025 190.393 124.694C190.393 124.522 190.272 124.165 190.126 123.743L189.613 122.21H186.619L186.191 123.585Z" fill="#231F20"/>
<path d="M186.946 121.413H189.257L188.105 117.879L186.946 121.413ZM186.784 121.526L188.057 117.679H188.163L189.41 121.526H186.784ZM189.484 125.412C190.136 125.39 190.78 125.363 191.41 125.363C192.022 125.363 192.597 125.39 193.171 125.41V125.136H193.151C192.704 125.136 192.39 124.959 192.226 124.573C192.05 124.173 191.893 123.682 191.736 123.221L189.309 116.315C189.27 116.209 189.226 116.09 189.194 116C189.184 115.982 189.184 115.982 189.174 115.982H189.151C189.123 115.982 189.109 115.99 189.074 116C188.818 116.161 188.292 116.426 187.896 116.528C187.817 117.03 187.576 117.687 187.408 118.176L185.293 124.238C185.091 124.811 184.634 125.136 184.09 125.136H184.068V125.41C184.526 125.39 184.981 125.363 185.441 125.363C185.952 125.363 186.471 125.39 186.983 125.41V125.136H186.89C186.462 125.13 185.86 125.084 185.844 124.614C185.847 124.352 186.011 124.015 186.14 123.569L186.191 123.585L186.14 123.568L186.573 122.156H189.654L190.181 123.724C190.329 124.149 190.446 124.501 190.446 124.695C190.428 125.1 189.873 125.129 189.57 125.136H189.484V125.412ZM193.228 125.529C192.633 125.506 192.036 125.477 191.41 125.477C190.764 125.477 190.102 125.506 189.43 125.529L189.371 125.534V125.021H189.57C189.877 125.021 190.333 124.949 190.336 124.695C190.337 124.544 190.22 124.183 190.069 123.762L189.569 122.269H186.654L186.248 123.601C186.116 124.055 185.956 124.402 185.96 124.614C185.96 124.937 186.455 125.021 186.89 125.021H187.093V125.534L187.034 125.529C186.507 125.506 185.965 125.477 185.441 125.477C184.965 125.477 184.492 125.506 184.016 125.529L183.958 125.534V125.021H184.09C184.582 125.015 184.995 124.733 185.187 124.199L187.301 118.14C187.469 117.65 187.707 116.992 187.821 116.467C188.238 116.324 188.769 116.058 189.023 115.898C189.058 115.885 189.099 115.869 189.151 115.869C189.184 115.865 189.254 115.875 189.296 115.948C189.334 116.052 189.373 116.171 189.414 116.277L191.845 123.185C192.002 123.646 192.161 124.133 192.334 124.525C192.489 124.876 192.725 125.015 193.151 125.021H193.286V125.534L193.228 125.529Z" fill="#231F20"/>
<path d="M196.56 124.179C196.56 124.707 196.927 124.865 197.349 124.919C197.89 124.96 198.484 124.96 199.094 124.893C199.646 124.829 200.124 124.51 200.359 124.179C200.57 123.887 200.686 123.52 200.77 123.227H201.153C201.005 123.98 200.821 124.722 200.661 125.473C199.5 125.473 198.337 125.421 197.179 125.421C196.016 125.421 194.852 125.473 193.691 125.473V125.074H193.873C194.352 125.074 194.867 125.012 194.867 124.191V117.406C194.867 116.717 194.352 116.655 193.873 116.655H193.691V116.254C194.39 116.254 195.078 116.308 195.776 116.308C196.451 116.308 197.111 116.254 197.786 116.254V116.655H197.453C196.953 116.655 196.56 116.668 196.56 117.369V124.179Z" fill="#231F20"/>
<path d="M200.617 125.414C200.769 124.699 200.943 123.997 201.081 123.283H200.81C200.73 123.575 200.613 123.927 200.403 124.213C200.158 124.557 199.668 124.879 199.095 124.949C198.748 124.986 198.406 125.003 198.084 125.003C197.828 125.003 197.577 124.991 197.339 124.975C196.913 124.927 196.495 124.744 196.499 124.18V117.368C196.499 116.632 196.962 116.596 197.454 116.596H197.727V116.315C197.076 116.317 196.432 116.367 195.777 116.367C195.09 116.367 194.421 116.317 193.747 116.315V116.596H193.873C194.346 116.596 194.922 116.677 194.922 117.404V124.19C194.922 125.045 194.348 125.136 193.873 125.136H193.747V125.414C194.886 125.412 196.031 125.362 197.18 125.362C198.326 125.362 199.47 125.412 200.617 125.414ZM200.662 125.529C199.498 125.529 198.337 125.477 197.18 125.477C196.016 125.477 194.852 125.529 193.689 125.529H193.635V125.021H193.873C194.352 125.01 194.808 124.975 194.812 124.19V117.404C194.808 116.763 194.356 116.718 193.873 116.708H193.635V116.2H193.689C194.393 116.2 195.079 116.252 195.777 116.252C196.448 116.252 197.108 116.2 197.786 116.2H197.838V116.708H197.454C196.942 116.722 196.623 116.699 196.611 117.368V124.18C196.616 124.672 196.937 124.802 197.354 124.863C197.583 124.879 197.831 124.888 198.084 124.888C198.406 124.888 198.741 124.872 199.086 124.836C199.623 124.772 200.084 124.463 200.314 124.148C200.517 123.863 200.633 123.502 200.71 123.214L200.724 123.168H201.222L201.209 123.241C201.061 123.994 200.88 124.733 200.72 125.487L200.706 125.529H200.662Z" fill="#231F20"/>
<path d="M200.77 117.276H200.932C201.112 117.276 201.195 117.141 201.195 116.921C201.195 116.699 201.063 116.622 200.922 116.622H200.77V117.276ZM200.3 118.01V117.94C200.468 117.917 200.501 117.924 200.501 117.815V116.788C200.501 116.641 200.486 116.592 200.304 116.601V116.528H201.018C201.259 116.528 201.485 116.647 201.485 116.898C201.485 117.107 201.35 117.257 201.157 117.317L201.384 117.638C201.493 117.779 201.613 117.917 201.693 117.965V118.01H201.422C201.292 118.01 201.179 117.734 200.922 117.37H200.77V117.83C200.77 117.924 200.802 117.917 200.97 117.94V118.01H200.3ZM200.991 118.403C201.613 118.403 202.09 117.875 202.09 117.276C202.09 116.676 201.622 116.141 200.991 116.141C200.364 116.141 199.888 116.676 199.888 117.276C199.888 117.875 200.364 118.403 200.991 118.403ZM200.991 115.883C201.786 115.883 202.38 116.495 202.38 117.276C202.38 118.056 201.786 118.661 200.991 118.661C200.197 118.661 199.599 118.056 199.599 117.276C199.599 116.495 200.197 115.883 200.991 115.883Z" fill="#231F20"/>
<path d="M118.559 69.2929C118.559 56.9413 128.572 46.9291 140.924 46.9291C153.275 46.9291 163.288 56.9413 163.288 69.2929C163.288 81.6449 153.275 91.657 140.924 91.657C128.572 91.657 118.559 81.6449 118.559 69.2929Z" fill="white"/>
<path d="M154.449 68.8524C154.439 63.1246 150.86 58.2416 145.815 56.3069V81.3981C150.86 79.4606 154.439 74.5819 154.449 68.8524ZM136.192 81.3923V56.3084C131.153 58.2504 127.578 63.1276 127.565 68.8524C127.578 74.5761 131.153 79.4547 136.192 81.3923ZM141.006 47.6451C129.294 47.6495 119.805 57.1402 119.803 68.8524C119.805 80.5634 129.294 90.0526 141.006 90.0541C152.719 90.0526 162.211 80.5634 162.214 68.8524C162.211 57.1402 152.719 47.6495 141.006 47.6451ZM140.954 92.0571C128.138 92.1167 117.589 81.7346 117.589 69.0943C117.589 55.2814 128.138 45.7267 140.954 45.7292H146.962C159.626 45.7267 171.185 55.2755 171.185 69.0943C171.185 81.7287 159.626 92.0571 146.962 92.0571H140.954Z" fill="#006699"/>
</g>
<defs>
<filter id="filter0_dd_1217_4316" x="0" y="0.000244141" width="290" height="216" filterUnits="userSpaceOnUse" color-interpolation-filters="sRGB">
<feFlood flood-opacity="0" result="BackgroundImageFix"/>
<feColorMatrix in="SourceAlpha" type="matrix" values="0 0 0 0 0 0 0 0 0 0 0 0 0 0 0 0 0 0 127 0" result="hardAlpha"/>
<feOffset dy="2"/>
<feGaussianBlur stdDeviation="10"/>
<feColorMatrix type="matrix" values="0 0 0 0 0.717647 0 0 0 0 0.717647 0 0 0 0 0.717647 0 0 0 0.08 0"/>
<feBlend mode="normal" in2="BackgroundImageFix" result="effect1_dropShadow_1217_4316"/>
<feColorMatrix in="SourceAlpha" type="matrix" values="0 0 0 0 0 0 0 0 0 0 0 0 0 0 0 0 0 0 127 0" result="hardAlpha"/>
<feOffset dy="20"/>
<feGaussianBlur stdDeviation="20"/>
<feColorMatrix type="matrix" values="0 0 0 0 0.717647 0 0 0 0 0.717647 0 0 0 0 0.717647 0 0 0 0.08 0"/>
<feBlend mode="normal" in2="effect1_dropShadow_1217_4316" result="effect2_dropShadow_1217_4316"/>
<feBlend mode="normal" in="SourceGraphic" in2="effect2_dropShadow_1217_4316" result="shape"/>
</filter>
</defs>
</svg>
