<svg width="290" height="216" viewBox="0 0 290 216" fill="none" xmlns="http://www.w3.org/2000/svg">
<g filter="url(#filter0_dd_1319_6965)">
<rect x="41" y="21" width="208" height="134" rx="24" fill="white"/>
<rect x="40.5" y="20.5" width="209" height="135" rx="24.5" stroke="#D6DCE5"/>
<path d="M113.728 88.3426C113.728 95.7489 119.545 101.49 127.027 101.49C129.143 101.49 130.953 101.073 133.187 100.023V94.2388C131.223 96.2028 129.483 96.9965 127.255 96.9965C122.305 96.9965 118.792 93.4084 118.792 88.306C118.792 83.4702 122.419 79.6541 127.027 79.6541C129.371 79.6541 131.146 80.4885 133.187 82.4872V76.705C131.032 75.6121 129.257 75.1582 127.143 75.1582C119.698 75.1582 113.728 81.0177 113.728 88.3426Z" fill="#251F1F"/>
<path d="M101.116 82.2246C101.116 83.5842 101.983 84.3047 104.932 85.3956C110.523 87.441 112.179 89.2524 112.179 93.2557C112.179 98.1322 108.595 101.527 103.489 101.527C99.75 101.527 97.0309 100.056 94.7657 96.7319L97.9407 93.675C99.0723 95.8629 100.961 97.0352 103.304 97.0352C105.498 97.0352 107.12 95.523 107.12 93.4816C107.12 92.4233 106.627 91.5135 105.646 90.8745C105.152 90.5712 104.173 90.1174 102.249 89.4396C97.6333 87.7788 96.0499 86.0021 96.0499 82.5299C96.0499 78.4065 99.4508 75.3108 103.908 75.3108C106.67 75.3108 109.198 76.2552 111.312 78.1053L108.74 81.4716C107.46 80.0367 106.251 79.4302 104.777 79.4302C102.658 79.4302 101.116 80.6371 101.116 82.2246Z" fill="#251F1F"/>
<path fill-rule="evenodd" clip-rule="evenodd" d="M72.215 75.7281H65V100.923H72.1763C75.9904 100.923 78.7482 100.023 81.1661 98.0142C84.0399 95.635 85.7393 92.0489 85.7393 88.3426C85.7393 80.9078 80.183 75.7281 72.215 75.7281ZM77.9544 94.656C76.4097 96.0481 74.4049 96.6567 71.2299 96.6567H69.9111V79.9981H71.2299C74.4049 79.9981 76.3303 80.5639 77.9544 82.0354C79.6559 83.5476 80.6756 85.8922 80.6756 88.306C80.6756 90.7239 79.6559 93.1438 77.9544 94.656Z" fill="#251F1F"/>
<path d="M92.9157 75.7281H88.0005V100.923H92.9157V75.7281Z" fill="#251F1F"/>
<path d="M165.434 75.7281L172.154 92.6493L178.96 75.7281H184.287L173.402 101.57H170.758L160.067 75.7281H165.434Z" fill="#251F1F"/>
<path d="M186.509 100.923H200.447V96.6567H191.42V89.8569H200.113V85.5889H191.42V79.9981H200.447V75.7281H186.509V100.923Z" fill="#251F1F"/>
<path fill-rule="evenodd" clip-rule="evenodd" d="M210.987 75.7281C216.655 75.7281 219.908 78.4493 219.908 83.1649C219.908 87.0238 217.866 89.5557 214.164 90.3087L222.096 100.923H216.053L209.251 90.8012H208.608V100.923H203.701V75.7281H210.987ZM208.608 87.3271H210.047C213.185 87.3271 214.848 85.9634 214.848 83.4316C214.848 80.9791 213.185 79.6948 210.122 79.6948H208.608V87.3271Z" fill="#251F1F"/>
<path fill-rule="evenodd" clip-rule="evenodd" d="M223.824 77.049C223.824 76.6053 223.516 76.3631 222.981 76.3631H222.269V78.5856H222.798V77.7247L223.419 78.5856H224.068L223.337 77.6698C223.649 77.5843 223.824 77.3563 223.824 77.049ZM222.887 77.3523H222.798V76.7702H222.894C223.156 76.7702 223.292 76.8658 223.292 77.0572C223.292 77.2525 223.154 77.3523 222.887 77.3523Z" fill="#251F1F"/>
<path fill-rule="evenodd" clip-rule="evenodd" d="M221.151 77.4702C221.151 76.3936 222.01 75.5327 223.087 75.5327C224.137 75.5327 225 76.4099 225 77.4702C225 78.5367 224.137 79.4078 223.087 79.4078C222.018 79.4078 221.151 78.5448 221.151 77.4702ZM221.536 77.4723C221.536 78.3556 222.23 79.0618 223.079 79.0618C223.925 79.0618 224.613 78.3474 224.613 77.4723C224.613 76.6052 223.925 75.8807 223.079 75.8807C222.224 75.8807 221.536 76.589 221.536 77.4723Z" fill="#251F1F"/>
<g filter="url(#filter1_i_1319_6965)">
<path d="M148.083 101.688C140.719 101.688 134.748 95.7166 134.748 88.353V88.335C134.748 84.6712 136.232 81.3377 138.631 78.9383C138.631 78.9197 138.65 78.9197 138.65 78.9016C138.668 78.9016 138.668 78.8831 138.686 78.8831C141.086 76.4836 144.42 75 148.083 75H148.102C155.465 75 161.437 80.9714 161.437 88.335V88.353C161.437 92.0168 159.953 95.3322 157.553 97.7502C157.553 97.7683 157.535 97.7683 157.535 97.7869C157.516 97.7869 157.516 97.8049 157.498 97.8049C155.08 100.204 151.765 101.688 148.102 101.688H148.083Z" fill="url(#paint0_linear_1319_6965)"/>
</g>
</g>
<defs>
<filter id="filter0_dd_1319_6965" x="0" y="0" width="290" height="216" filterUnits="userSpaceOnUse" color-interpolation-filters="sRGB">
<feFlood flood-opacity="0" result="BackgroundImageFix"/>
<feColorMatrix in="SourceAlpha" type="matrix" values="0 0 0 0 0 0 0 0 0 0 0 0 0 0 0 0 0 0 127 0" result="hardAlpha"/>
<feOffset dy="2"/>
<feGaussianBlur stdDeviation="10"/>
<feColorMatrix type="matrix" values="0 0 0 0 0.717647 0 0 0 0 0.717647 0 0 0 0 0.717647 0 0 0 0.08 0"/>
<feBlend mode="normal" in2="BackgroundImageFix" result="effect1_dropShadow_1319_6965"/>
<feColorMatrix in="SourceAlpha" type="matrix" values="0 0 0 0 0 0 0 0 0 0 0 0 0 0 0 0 0 0 127 0" result="hardAlpha"/>
<feOffset dy="20"/>
<feGaussianBlur stdDeviation="20"/>
<feColorMatrix type="matrix" values="0 0 0 0 0.717647 0 0 0 0 0.717647 0 0 0 0 0.717647 0 0 0 0.08 0"/>
<feBlend mode="normal" in2="effect1_dropShadow_1319_6965" result="effect2_dropShadow_1319_6965"/>
<feBlend mode="normal" in="SourceGraphic" in2="effect2_dropShadow_1319_6965" result="shape"/>
</filter>
<filter id="filter1_i_1319_6965" x="134.748" y="75" width="27.6654" height="28.1534" filterUnits="userSpaceOnUse" color-interpolation-filters="sRGB">
<feFlood flood-opacity="0" result="BackgroundImageFix"/>
<feBlend mode="normal" in="SourceGraphic" in2="BackgroundImageFix" result="shape"/>
<feColorMatrix in="SourceAlpha" type="matrix" values="0 0 0 0 0 0 0 0 0 0 0 0 0 0 0 0 0 0 127 0" result="hardAlpha"/>
<feOffset dx="0.976924" dy="1.46539"/>
<feGaussianBlur stdDeviation="0.976924"/>
<feComposite in2="hardAlpha" operator="arithmetic" k2="-1" k3="1"/>
<feColorMatrix type="matrix" values="0 0 0 0 0 0 0 0 0 0 0 0 0 0 0 0 0 0 0.35 0"/>
<feBlend mode="normal" in2="shape" result="effect1_innerShadow_1319_6965"/>
</filter>
<linearGradient id="paint0_linear_1319_6965" x1="141.098" y1="75" x2="163.027" y2="93.5562" gradientUnits="userSpaceOnUse">
<stop stop-color="#EF3823"/>
<stop offset="0.489583" stop-color="#F04D22"/>
<stop offset="1" stop-color="#F7911D"/>
</linearGradient>
</defs>
</svg>
