<svg width="290" height="216" viewBox="0 0 290 216" fill="none" xmlns="http://www.w3.org/2000/svg">
<g filter="url(#filter0_dd_1217_4395)">
<rect x="41" y="21.0002" width="208" height="134" rx="24" fill="white"/>
<rect x="40.5" y="20.5002" width="209" height="135" rx="24.5" stroke="#D6DCE5"/>
<path d="M159.941 60.483H129.316V115.517H159.941V60.483Z" fill="#FF5F00"/>
<path d="M131.261 88C131.256 82.6998 132.457 77.468 134.773 72.7006C137.089 67.9333 140.46 63.7553 144.629 60.483C139.466 56.4246 133.265 53.9007 126.735 53.1999C120.205 52.499 113.61 53.6495 107.703 56.5197C101.796 59.39 96.8161 63.8642 93.3319 69.4311C89.8477 74.9979 88 81.4327 88 88C88 94.5673 89.8477 101.002 93.3319 106.569C96.8161 112.136 101.796 116.61 107.703 119.48C113.61 122.351 120.205 123.501 126.735 122.8C133.265 122.099 139.466 119.575 144.629 115.517C140.46 112.245 137.089 108.067 134.773 103.299C132.457 98.532 131.256 93.3002 131.261 88Z" fill="#EB001B"/>
<path d="M201.256 88C201.256 94.5672 199.409 101.002 195.925 106.569C192.441 112.136 187.461 116.61 181.554 119.48C175.647 122.35 169.052 123.501 162.523 122.8C155.993 122.099 149.792 119.575 144.629 115.517C148.795 112.241 152.162 108.063 154.478 103.296C156.794 98.5295 157.997 93.2993 157.997 88C157.997 82.7007 156.794 77.4705 154.478 72.7039C152.162 67.9373 148.795 63.7586 144.629 60.483C149.792 56.4246 155.993 53.9007 162.523 53.1999C169.052 52.499 175.647 53.6495 181.554 56.5198C187.461 59.3901 192.441 63.8643 195.925 69.4312C199.409 74.998 201.256 81.4328 201.256 88Z" fill="#F79E1B"/>
<path d="M197.917 109.688V108.561H198.371V108.332H197.214V108.561H197.669V109.688H197.917ZM200.163 109.688V108.33H199.809L199.401 109.264L198.993 108.33H198.638V109.688H198.888V108.663L199.271 109.547H199.531L199.913 108.661V109.688H200.163Z" fill="#F79E1B"/>
</g>
<defs>
<filter id="filter0_dd_1217_4395" x="0" y="0.000244141" width="290" height="216" filterUnits="userSpaceOnUse" color-interpolation-filters="sRGB">
<feFlood flood-opacity="0" result="BackgroundImageFix"/>
<feColorMatrix in="SourceAlpha" type="matrix" values="0 0 0 0 0 0 0 0 0 0 0 0 0 0 0 0 0 0 127 0" result="hardAlpha"/>
<feOffset dy="2"/>
<feGaussianBlur stdDeviation="10"/>
<feColorMatrix type="matrix" values="0 0 0 0 0.717647 0 0 0 0 0.717647 0 0 0 0 0.717647 0 0 0 0.08 0"/>
<feBlend mode="normal" in2="BackgroundImageFix" result="effect1_dropShadow_1217_4395"/>
<feColorMatrix in="SourceAlpha" type="matrix" values="0 0 0 0 0 0 0 0 0 0 0 0 0 0 0 0 0 0 127 0" result="hardAlpha"/>
<feOffset dy="20"/>
<feGaussianBlur stdDeviation="20"/>
<feColorMatrix type="matrix" values="0 0 0 0 0.717647 0 0 0 0 0.717647 0 0 0 0 0.717647 0 0 0 0.08 0"/>
<feBlend mode="normal" in2="effect1_dropShadow_1217_4395" result="effect2_dropShadow_1217_4395"/>
<feBlend mode="normal" in="SourceGraphic" in2="effect2_dropShadow_1217_4395" result="shape"/>
</filter>
</defs>
</svg>
