<svg width="16" height="12" viewBox="0 0 16 12" fill="none" xmlns="http://www.w3.org/2000/svg">
<path d="M15.8321 0.988237C15.6627 0.905194 15.5897 1.06345 15.4906 1.14385C15.4567 1.16978 15.428 1.20349 15.3993 1.2346C15.1516 1.49913 14.8622 1.67296 14.4841 1.65218C13.9313 1.62103 13.4594 1.79486 13.0422 2.21765C12.9535 1.69631 12.6589 1.385 12.2104 1.18532C11.9758 1.08156 11.7385 0.977789 11.5742 0.752119C11.4595 0.591357 11.4282 0.412376 11.3708 0.235985C11.3343 0.129655 11.2978 0.0206773 11.1752 0.00251434C11.0423 -0.0182107 10.9901 0.093272 10.9379 0.186706C10.7294 0.568013 10.6485 0.988208 10.6563 1.41358C10.6746 2.37072 11.0788 3.13325 11.8818 3.67538C11.9731 3.73764 11.9965 3.79984 11.9679 3.89069C11.9131 4.07744 11.8479 4.25898 11.7906 4.44574C11.7541 4.56508 11.6993 4.59101 11.5715 4.53909C11.1309 4.35498 10.7502 4.08259 10.4138 3.75321C9.84279 3.20072 9.32651 2.59118 8.6825 2.11391C8.53127 2.00237 8.38002 1.89866 8.22356 1.80004C7.56648 1.16201 8.30962 0.638017 8.48171 0.575813C8.6616 0.510962 8.54428 0.287854 7.96282 0.290502C7.38135 0.293064 6.84944 0.487618 6.17152 0.746994C6.07245 0.785911 5.96811 0.814408 5.86121 0.837752C5.24587 0.72106 4.60703 0.695068 3.93953 0.770339C2.68273 0.910375 1.6789 1.50437 0.940999 2.51856C0.0544898 3.73764 -0.154099 5.12269 0.101434 6.56747C0.370006 8.08999 1.147 9.35058 2.34122 10.3363C3.57977 11.3582 5.00605 11.8588 6.63308 11.7628C7.62131 11.7058 8.72164 11.5735 9.96279 10.523C10.2757 10.6787 10.6042 10.7409 11.1492 10.7876C11.569 10.8265 11.9731 10.7668 12.286 10.702C12.7762 10.5982 12.7423 10.1443 12.565 10.0613C11.1283 9.39214 11.4438 9.66447 11.157 9.44398C11.8871 8.58028 12.9875 7.68278 13.4177 4.77512C13.4515 4.5443 13.4229 4.39902 13.4177 4.21227C13.415 4.09817 13.4411 4.0541 13.5715 4.04109C13.9313 3.99958 14.2807 3.90105 14.6014 3.72466C15.5323 3.2163 15.9078 2.38109 15.9964 1.37988C16.0095 1.22683 15.9938 1.06857 15.8321 0.988237ZM7.72038 9.99903C6.32801 8.90451 5.65271 8.54392 5.37369 8.55949C5.11295 8.57507 5.15989 8.87336 5.21723 9.06791C5.27721 9.25982 5.35544 9.39214 5.46493 9.5607C5.54054 9.67224 5.59273 9.83822 5.38935 9.96277C4.94085 10.2403 4.16122 9.86936 4.12469 9.85123C3.21734 9.31687 2.45857 8.61134 1.92402 7.64651C1.40774 6.71787 1.10791 5.7219 1.05835 4.65843C1.04531 4.40167 1.12092 4.31083 1.37645 4.26419C1.71281 4.20193 2.05961 4.18892 2.39597 4.2382C3.81706 4.44574 5.02689 5.08121 6.04116 6.0876C6.62001 6.66082 7.05806 7.34563 7.50917 8.01481C7.98892 8.72547 8.5052 9.4025 9.16228 9.95756C9.39433 10.1521 9.57946 10.2999 9.75676 10.4089C9.22226 10.4685 8.33051 10.4815 7.72038 9.99903ZM8.38788 5.70632C8.38788 5.59219 8.47915 5.50144 8.59391 5.50144C8.61998 5.50144 8.64344 5.50656 8.66431 5.51433C8.693 5.52475 8.71908 5.54032 8.73992 5.56361C8.77645 5.59996 8.79728 5.65181 8.79728 5.70629C8.79728 5.82042 8.70604 5.91118 8.59134 5.91118C8.47664 5.91118 8.38788 5.82045 8.38788 5.70632ZM10.4608 6.76979C10.3278 6.82428 10.1949 6.87091 10.0671 6.87612C9.86892 6.88649 9.65251 6.80606 9.53519 6.7075C9.35268 6.55446 9.22229 6.46891 9.16755 6.20173C9.14406 6.0876 9.1571 5.91121 9.17799 5.81009C9.22491 5.59219 9.17276 5.45216 9.01894 5.32502C8.89376 5.22125 8.73471 5.19275 8.56 5.19275C8.49481 5.19275 8.43488 5.1642 8.39053 5.14085C8.3175 5.10456 8.25758 5.01377 8.31491 4.90223C8.33316 4.86596 8.42184 4.77774 8.44271 4.76219C8.67999 4.62728 8.95378 4.67141 9.20669 4.77256C9.44138 4.86852 9.61869 5.04491 9.87419 5.2939C10.1349 5.59476 10.1819 5.67783 10.3305 5.90344C10.4479 6.07983 10.5548 6.26137 10.6278 6.46891C10.6721 6.59861 10.6147 6.70494 10.4608 6.76979Z" fill="#343A40"/>
</svg>
