<svg width="563" height="106" viewBox="0 0 563 106" fill="none" xmlns="http://www.w3.org/2000/svg">
<mask id="mask0_93_5120" style="mask-type:alpha" maskUnits="userSpaceOnUse" x="0" y="0" width="563" height="106">
<rect width="563" height="106" fill="url(#paint0_linear_93_5120)"/>
</mask>
<g mask="url(#mask0_93_5120)">
<g filter="url(#filter0_d_93_5120)">
<rect x="6.26398" y="28" width="50" height="50" rx="16" fill="white" shape-rendering="crispEdges"/>
<path fill-rule="evenodd" clip-rule="evenodd" d="M42.0401 42.4592L36.5859 53.0671L42.0401 63.6751L44.2743 62.3994V43.7349L42.0401 42.4592Z" fill="#E25444"/>
<path fill-rule="evenodd" clip-rule="evenodd" d="M42.0404 42.4592L31.1321 43.7349L25.5793 53.0671L31.1321 62.3994L42.0404 63.6751V42.4592Z" fill="#7B1D13"/>
<path fill-rule="evenodd" clip-rule="evenodd" d="M20.0266 42.4592L18.2523 43.2649V62.8694L20.0266 63.6751L31.132 53.0671L20.0266 42.4592Z" fill="#58150D"/>
<path fill-rule="evenodd" clip-rule="evenodd" d="M20.0026 42.437L31.1466 45.6V60.818L20.0026 63.6826V42.437Z" fill="#E25444"/>
<path fill-rule="evenodd" clip-rule="evenodd" d="M31.1526 47.271L26.4207 46.4951L31.1526 41.0046L35.8727 46.4951L31.1526 47.271Z" fill="#58150D"/>
<path fill-rule="evenodd" clip-rule="evenodd" d="M35.8727 46.4951L31.1467 47.2828L26.4207 46.4951V41.0046" fill="#58150D"/>
<path fill-rule="evenodd" clip-rule="evenodd" d="M31.1526 58.7888L26.4207 59.684L31.1526 64.3987L35.8727 59.684L31.1526 58.7888Z" fill="#58150D"/>
<path fill-rule="evenodd" clip-rule="evenodd" d="M31.1318 36.8867L26.4005 39.438V46.4875L31.1465 45.1224L31.1318 36.8867Z" fill="#7B1D13"/>
<path fill-rule="evenodd" clip-rule="evenodd" d="M31.1467 49.0015L26.4207 49.5267V56.5654L31.1467 57.1178V49.0015Z" fill="#7B1D13"/>
<path fill-rule="evenodd" clip-rule="evenodd" d="M31.1467 60.8777L26.4207 59.667V66.5865L31.1467 69.1134V60.8777Z" fill="#7B1D13"/>
<path fill-rule="evenodd" clip-rule="evenodd" d="M35.8727 59.667L31.1467 60.878V69.1134L35.8727 66.5865V59.667Z" fill="#E25444"/>
<path fill-rule="evenodd" clip-rule="evenodd" d="M31.1467 49.0015L35.8727 49.5267V56.5654L31.1467 57.1178V49.0015Z" fill="#E25444"/>
<path fill-rule="evenodd" clip-rule="evenodd" d="M31.132 36.8867L35.8633 39.438V46.4875L31.132 45.1448V36.8867Z" fill="#E25444"/>
</g>
<g filter="url(#filter1_d_93_5120)">
<rect x="68.4853" y="28" width="50" height="50" rx="16" fill="#174ABE" shape-rendering="crispEdges"/>
<path d="M80.421 60.5146C80.1299 61.0004 79.803 61.5687 79.5477 62.0132C79.4282 62.2198 79.3927 62.4661 79.4488 62.6992C79.5049 62.9322 79.6482 63.1335 79.8477 63.2597L85.6702 66.9258C85.7714 66.9898 85.884 67.0324 86.0015 67.0514C86.1189 67.0703 86.2389 67.0651 86.3544 67.0361C86.4699 67.0071 86.5786 66.9548 86.6741 66.8824C86.7696 66.81 86.8501 66.7188 86.9109 66.6142C87.1393 66.2155 87.4394 65.6977 87.7663 65.1432C90.0729 61.2479 92.3975 61.7245 96.5762 63.7684L102.349 66.5776C102.458 66.6303 102.575 66.6602 102.695 66.6656C102.815 66.671 102.934 66.6518 103.047 66.6091C103.159 66.5663 103.262 66.501 103.349 66.4168C103.436 66.3327 103.506 66.2315 103.554 66.1193L106.327 59.7035C106.421 59.4832 106.427 59.234 106.343 59.0094C106.259 58.7848 106.092 58.6029 105.879 58.5028C104.661 57.9162 102.237 56.7476 100.056 55.6707C92.1914 51.7571 85.5224 52.0137 80.421 60.5146Z" fill="url(#paint1_linear_93_5120)"/>
<path d="M106.529 45.4833C106.82 44.9976 107.147 44.4293 107.424 43.9848C107.544 43.7776 107.578 43.5309 107.521 43.2978C107.464 43.0646 107.32 42.8637 107.12 42.7383L101.297 39.0721C101.196 39.0089 101.084 38.9668 100.967 38.9483C100.85 38.9298 100.731 38.9351 100.616 38.9641C100.501 38.9931 100.393 39.0451 100.297 39.1171C100.202 39.1891 100.122 39.2798 100.061 39.3837C99.8284 39.7824 99.5283 40.3003 99.2013 40.8548C96.8947 44.7501 94.5747 44.2735 90.3914 42.2296L84.6003 39.4341C84.4923 39.3822 84.3752 39.3528 84.256 39.3478C84.1367 39.3427 84.0177 39.3621 83.9059 39.4048C83.794 39.4475 83.6917 39.5126 83.6048 39.5964C83.5179 39.6801 83.4483 39.7808 83.4 39.8924L80.6276 46.3082C80.5334 46.5285 80.5276 46.7777 80.6114 47.0023C80.6952 47.2269 80.8618 47.4088 81.0754 47.5089C82.2937 48.0955 84.7212 49.2641 86.8979 50.341C94.7583 54.2226 101.427 53.9659 106.529 45.4833Z" fill="url(#paint2_linear_93_5120)"/>
</g>
<g filter="url(#filter2_d_93_5120)">
<rect x="130.707" y="28" width="50" height="50" rx="16" fill="#174ABE" shape-rendering="crispEdges"/>
<path d="M167.032 40.5H153.478C153.478 43.8734 156.22 46.6192 159.589 46.6192H162.096V49.012C162.096 52.3854 164.838 55.1312 168.207 55.1312V41.6768C168.207 41.0099 167.658 40.5 167.032 40.5Z" fill="white"/>
<path d="M160.334 47.2471H146.78C146.78 50.6205 149.522 53.3663 152.891 53.3663H155.398V55.7983C155.398 59.1717 158.14 61.9175 161.509 61.9175V48.4631C161.509 47.7962 160.961 47.2471 160.334 47.2471Z" fill="url(#paint3_linear_93_5120)"/>
<path d="M153.636 53.9937H140.082C140.082 57.3671 142.824 60.1129 146.193 60.1129H148.661V62.5057C148.661 65.8791 151.403 68.6249 154.772 68.6249V55.1312C154.811 54.5428 154.263 53.9937 153.636 53.9937Z" fill="url(#paint4_linear_93_5120)"/>
</g>
<g filter="url(#filter3_d_93_5120)">
<rect x="192.928" y="28" width="50" height="50" rx="16" fill="white"/>
<path d="M202.303 58.0481C202.297 58.5566 202.425 59.0662 202.686 59.5219L206.173 65.6192C206.683 66.5122 207.628 67.0625 208.65 67.0625H227.204C228.227 67.0625 229.171 66.5122 229.682 65.6192L233.169 59.5219C233.43 59.0662 233.557 58.5566 233.551 58.0481H202.303Z" fill="#4285F4"/>
<path d="M228.647 66.669L213.005 39.3446C213.441 39.0826 213.945 38.9375 214.47 38.9375H221.385C222.406 38.9375 223.351 39.4873 223.862 40.3798L233.168 56.6383C233.679 57.5304 233.679 58.6295 233.169 59.5219L229.682 65.6191C229.429 66.0617 229.069 66.42 228.647 66.669Z" fill="#FBBC04"/>
<path d="M222.849 39.3446C222.414 39.0826 221.909 38.9375 221.385 38.9375H214.47C213.448 38.9375 212.504 39.4873 211.993 40.3798L202.686 56.6383C202.175 57.5304 202.175 58.6295 202.686 59.5219L206.173 65.6191C206.426 66.0617 206.785 66.42 207.208 66.669L222.849 39.3446Z" fill="#34A853"/>
<path d="M233.553 58.0481C233.558 58.5566 233.431 59.0662 233.17 59.5219L229.683 65.6192C229.43 66.0617 229.071 66.4201 228.648 66.669L223.713 58.0481H233.553Z" fill="#EA4335"/>
<path d="M222.85 39.3446C222.414 39.0826 221.909 38.9375 221.385 38.9375H214.47C213.945 38.9375 213.441 39.0826 213.005 39.3446L217.927 47.9434L222.85 39.3446Z" fill="#188038"/>
<path d="M202.303 58.0481C202.297 58.5566 202.425 59.0662 202.686 59.5219L206.173 65.6192C206.426 66.0617 206.785 66.4201 207.208 66.669L212.143 58.0481H202.303Z" fill="#1967D2"/>
</g>
<g filter="url(#filter4_d_93_5120)">
<rect x="255.149" y="28" width="50" height="50" rx="16" fill="white" shape-rendering="crispEdges"/>
<g clip-path="url(#clip0_93_5120)">
<path d="M268.004 63.9378H272.479V52.6689L266.087 47.6973V61.9492C266.087 63.0495 266.947 63.9378 268.004 63.9378Z" fill="#4285F4"/>
<path d="M287.821 63.9378H292.295C293.356 63.9378 294.213 63.0462 294.213 61.9492V47.6973L287.821 52.6689" fill="#34A853"/>
<path d="M287.821 44.0512V52.6686L294.213 47.697V45.0455C294.213 42.5862 291.506 41.1842 289.61 42.6591" fill="#FBBC04"/>
<path d="M272.478 52.6685V44.051L280.148 50.0169L287.819 44.051V52.6685L280.148 58.6344" fill="#EA4335"/>
<path d="M266.087 45.045V47.6965L272.479 52.6681V44.0507L270.689 42.6586C268.791 41.1837 266.087 42.5857 266.087 45.045Z" fill="#C5221F"/>
</g>
</g>
<g filter="url(#filter5_d_93_5120)">
<rect x="317.371" y="28" width="50" height="50" rx="16" fill="white" shape-rendering="crispEdges"/>
<g clip-path="url(#clip1_93_5120)">
<path d="M338.661 48.8622L338.661 48.8611L345.221 52.7906L349.13 51.1456C349.925 50.8022 350.781 50.6261 351.647 50.6269C351.791 50.6269 351.933 50.6335 352.075 50.6429C351.605 48.8103 350.613 47.1537 349.219 45.8743C347.826 44.595 346.09 43.748 344.224 43.4362C342.358 43.1245 340.442 43.3615 338.708 44.1184C336.974 44.8752 335.497 46.1194 334.457 47.6998C334.491 47.6993 334.523 47.6972 334.557 47.6972C336.007 47.6953 337.428 48.0988 338.661 48.8622Z" fill="#0364B8"/>
<path d="M338.662 48.8612L338.662 48.8622C337.429 48.0988 336.008 47.6953 334.558 47.6973C334.525 47.6973 334.492 47.6994 334.458 47.6998C333.039 47.7174 331.652 48.1213 330.445 48.8681C329.238 49.615 328.258 50.6766 327.609 51.9388C326.961 53.201 326.668 54.6161 326.763 56.032C326.858 57.448 327.338 58.8112 328.149 59.9753L333.934 57.5408L336.506 56.4586L342.232 54.049L345.222 52.7906L338.662 48.8612Z" fill="#0078D4"/>
<path d="M352.076 50.643C351.934 50.6335 351.791 50.627 351.647 50.627C350.782 50.6261 349.925 50.8029 349.131 51.1463L345.222 52.7906L346.355 53.4696L350.071 55.6953L351.692 56.6664L357.235 59.9867C357.739 59.0517 358 58.0052 357.995 56.9431C357.989 55.8811 357.717 54.8374 357.204 53.9077C356.69 52.9779 355.952 52.1919 355.056 51.6215C354.16 51.0512 353.135 50.7147 352.076 50.643Z" fill="#1490DF"/>
<path d="M351.693 56.6662L350.071 55.6952L346.356 53.4695L345.222 52.7905L342.232 54.0489L336.506 56.4585L333.934 57.5407L328.149 59.9752C328.868 61.0088 329.826 61.8531 330.942 62.4359C332.058 63.0187 333.299 63.3228 334.558 63.3221H351.648C352.793 63.3224 353.918 63.0125 354.902 62.4253C355.886 61.838 356.692 60.9953 357.236 59.9866L351.693 56.6662Z" fill="#28A8EA"/>
</g>
</g>
<g filter="url(#filter6_d_93_5120)">
<rect x="379.592" y="28" width="50" height="50" rx="16" fill="white"/>
<path fill-rule="evenodd" clip-rule="evenodd" d="M408.997 35.8874L390.931 37.2284C389.474 37.3551 388.967 38.3122 388.967 39.4593V59.3631C388.967 60.2566 389.283 61.0211 390.044 62.0429L394.291 67.5924C394.989 68.4859 395.623 68.6775 396.955 68.6138L417.935 67.3374C419.709 67.2105 420.217 66.3803 420.217 64.9773V42.5853C420.217 41.8602 419.932 41.6511 419.093 41.0323L413.182 36.8442C411.787 35.8247 411.217 35.6958 408.997 35.887V35.8874ZM397.43 42.2188C395.717 42.3346 395.328 42.3609 394.355 41.5658L391.882 39.5886C391.63 39.3326 391.757 39.0134 392.39 38.9497L409.757 37.6743C411.216 37.5464 411.975 38.0572 412.545 38.5035L415.524 40.6724C415.651 40.737 415.968 41.1186 415.587 41.1186L397.652 42.2037L397.43 42.2188ZM395.433 64.786V45.7769C395.433 44.9468 395.686 44.5639 396.446 44.4996L417.045 43.2875C417.744 43.2242 418.06 43.6704 418.06 44.4992V63.3816C418.06 64.2118 417.933 64.9139 416.792 64.9773L397.079 66.1257C395.939 66.189 395.433 65.8074 395.433 64.786H395.433ZM414.892 46.7961C415.018 47.3703 414.892 47.9445 414.32 48.0101L413.37 48.1995V62.2342C412.545 62.6804 411.786 62.9354 411.151 62.9354C410.136 62.9354 409.883 62.6161 409.123 61.66L402.91 51.836V61.3407L404.876 61.7879C404.876 61.7879 404.876 62.9364 403.29 62.9364L398.918 63.1913C398.791 62.9354 398.918 62.2978 399.361 62.1709L400.503 61.8526V49.2855L398.919 49.1566C398.791 48.5824 399.108 47.7532 399.996 47.6889L404.687 47.3716L411.151 57.3225V48.5191L409.503 48.3287C409.376 47.6256 409.883 47.1147 410.517 47.0524L414.892 46.7961Z" fill="black"/>
</g>
<g filter="url(#filter7_d_93_5120)">
<rect x="441.813" y="28" width="50" height="50" rx="16" fill="white" shape-rendering="crispEdges"/>
<path fill-rule="evenodd" clip-rule="evenodd" d="M464.814 44.6285C465.873 43.501 467.347 42.8028 468.976 42.8028C471.147 42.8028 473.029 44.0364 474.043 45.8744C474.942 45.4632 475.916 45.2509 476.902 45.2514C480.81 45.2514 483.983 48.5203 483.983 52.554C483.983 56.5878 480.81 59.8567 476.902 59.8567C476.424 59.8567 475.958 59.8076 475.502 59.7148C474.616 61.3308 472.921 62.4286 470.99 62.4286C470.205 62.4302 469.429 62.2479 468.723 61.8957C467.824 64.0545 465.731 65.5717 463.294 65.5717C460.749 65.5717 458.589 63.9311 457.757 61.6244C457.386 61.7043 457.009 61.7445 456.63 61.7443C453.602 61.7443 451.153 59.2031 451.153 56.0823C451.153 53.9852 452.256 52.1596 453.892 51.1727C453.545 50.3552 453.366 49.4734 453.367 48.5823C453.367 44.9803 456.226 42.0691 459.749 42.0691C461.811 42.0691 463.657 43.0744 464.815 44.6349" fill="#00A1E0"/>
</g>
<g filter="url(#filter8_d_93_5120)">
<rect x="504.035" y="28" width="50" height="50" rx="16" fill="white" shape-rendering="crispEdges"/>
<g clip-path="url(#clip2_93_5120)">
<path d="M521.241 56.4572C521.241 58.0558 519.949 59.3479 518.351 59.3479C516.752 59.3479 515.46 58.0558 515.46 56.4572C515.46 54.8585 516.752 53.5664 518.351 53.5664H521.241V56.4572ZM522.687 56.4572C522.687 54.8585 523.979 53.5664 525.577 53.5664C527.176 53.5664 528.468 54.8585 528.468 56.4572V63.684C528.468 65.2827 527.176 66.5748 525.577 66.5748C523.979 66.5748 522.687 65.2827 522.687 63.684V56.4572Z" fill="#E01E5A"/>
<path d="M525.578 44.8503C523.979 44.8503 522.687 43.5583 522.687 41.9596C522.687 40.3609 523.979 39.0688 525.578 39.0688C527.176 39.0688 528.468 40.3609 528.468 41.9596V44.8503H525.578ZM525.578 46.3176C527.176 46.3176 528.468 47.6097 528.468 49.2084C528.468 50.807 527.176 52.0991 525.578 52.0991H518.329C516.73 52.0991 515.438 50.807 515.438 49.2084C515.438 47.6097 516.73 46.3176 518.329 46.3176H525.578Z" fill="#36C5F0"/>
<path d="M537.162 49.2084C537.162 47.6097 538.455 46.3176 540.053 46.3176C541.652 46.3176 542.944 47.6097 542.944 49.2084C542.944 50.807 541.652 52.0991 540.053 52.0991H537.162V49.2084ZM535.717 49.2084C535.717 50.807 534.425 52.0991 532.826 52.0991C531.228 52.0991 529.936 50.807 529.936 49.2084V41.9596C529.936 40.3609 531.228 39.0688 532.826 39.0688C534.425 39.0688 535.717 40.3609 535.717 41.9596V49.2084Z" fill="#2EB67D"/>
<path d="M532.826 60.7933C534.425 60.7933 535.717 62.0854 535.717 63.684C535.717 65.2827 534.425 66.5748 532.826 66.5748C531.228 66.5748 529.936 65.2827 529.936 63.684V60.7933H532.826ZM532.826 59.3479C531.228 59.3479 529.936 58.0558 529.936 56.4572C529.936 54.8585 531.228 53.5664 532.826 53.5664H540.075C541.674 53.5664 542.966 54.8585 542.966 56.4572C542.966 58.0558 541.674 59.3479 540.075 59.3479H532.826Z" fill="#ECB22E"/>
</g>
</g>
</g>
<defs>
<filter id="filter0_d_93_5120" x="-7.54513" y="17.0981" width="77.6182" height="77.6182" filterUnits="userSpaceOnUse" color-interpolation-filters="sRGB">
<feFlood flood-opacity="0" result="BackgroundImageFix"/>
<feColorMatrix in="SourceAlpha" type="matrix" values="0 0 0 0 0 0 0 0 0 0 0 0 0 0 0 0 0 0 127 0" result="hardAlpha"/>
<feOffset dy="2.90718"/>
<feGaussianBlur stdDeviation="6.90455"/>
<feComposite in2="hardAlpha" operator="out"/>
<feColorMatrix type="matrix" values="0 0 0 0 0 0 0 0 0 0 0 0 0 0 0 0 0 0 0.12 0"/>
<feBlend mode="normal" in2="BackgroundImageFix" result="effect1_dropShadow_93_5120"/>
<feBlend mode="normal" in="SourceGraphic" in2="effect1_dropShadow_93_5120" result="shape"/>
</filter>
<filter id="filter1_d_93_5120" x="54.6762" y="17.0981" width="77.6182" height="77.6182" filterUnits="userSpaceOnUse" color-interpolation-filters="sRGB">
<feFlood flood-opacity="0" result="BackgroundImageFix"/>
<feColorMatrix in="SourceAlpha" type="matrix" values="0 0 0 0 0 0 0 0 0 0 0 0 0 0 0 0 0 0 127 0" result="hardAlpha"/>
<feOffset dy="2.90718"/>
<feGaussianBlur stdDeviation="6.90455"/>
<feComposite in2="hardAlpha" operator="out"/>
<feColorMatrix type="matrix" values="0 0 0 0 0 0 0 0 0 0 0 0 0 0 0 0 0 0 0.12 0"/>
<feBlend mode="normal" in2="BackgroundImageFix" result="effect1_dropShadow_93_5120"/>
<feBlend mode="normal" in="SourceGraphic" in2="effect1_dropShadow_93_5120" result="shape"/>
</filter>
<filter id="filter2_d_93_5120" x="116.898" y="17.0981" width="77.6182" height="77.6182" filterUnits="userSpaceOnUse" color-interpolation-filters="sRGB">
<feFlood flood-opacity="0" result="BackgroundImageFix"/>
<feColorMatrix in="SourceAlpha" type="matrix" values="0 0 0 0 0 0 0 0 0 0 0 0 0 0 0 0 0 0 127 0" result="hardAlpha"/>
<feOffset dy="2.90718"/>
<feGaussianBlur stdDeviation="6.90455"/>
<feComposite in2="hardAlpha" operator="out"/>
<feColorMatrix type="matrix" values="0 0 0 0 0 0 0 0 0 0 0 0 0 0 0 0 0 0 0.12 0"/>
<feBlend mode="normal" in2="BackgroundImageFix" result="effect1_dropShadow_93_5120"/>
<feBlend mode="normal" in="SourceGraphic" in2="effect1_dropShadow_93_5120" result="shape"/>
</filter>
<filter id="filter3_d_93_5120" x="179.119" y="17.0981" width="77.6182" height="77.6182" filterUnits="userSpaceOnUse" color-interpolation-filters="sRGB">
<feFlood flood-opacity="0" result="BackgroundImageFix"/>
<feColorMatrix in="SourceAlpha" type="matrix" values="0 0 0 0 0 0 0 0 0 0 0 0 0 0 0 0 0 0 127 0" result="hardAlpha"/>
<feOffset dy="2.90718"/>
<feGaussianBlur stdDeviation="6.90455"/>
<feComposite in2="hardAlpha" operator="out"/>
<feColorMatrix type="matrix" values="0 0 0 0 0 0 0 0 0 0 0 0 0 0 0 0 0 0 0.12 0"/>
<feBlend mode="normal" in2="BackgroundImageFix" result="effect1_dropShadow_93_5120"/>
<feBlend mode="normal" in="SourceGraphic" in2="effect1_dropShadow_93_5120" result="shape"/>
</filter>
<filter id="filter4_d_93_5120" x="241.34" y="17.0981" width="77.6182" height="77.6182" filterUnits="userSpaceOnUse" color-interpolation-filters="sRGB">
<feFlood flood-opacity="0" result="BackgroundImageFix"/>
<feColorMatrix in="SourceAlpha" type="matrix" values="0 0 0 0 0 0 0 0 0 0 0 0 0 0 0 0 0 0 127 0" result="hardAlpha"/>
<feOffset dy="2.90718"/>
<feGaussianBlur stdDeviation="6.90455"/>
<feComposite in2="hardAlpha" operator="out"/>
<feColorMatrix type="matrix" values="0 0 0 0 0 0 0 0 0 0 0 0 0 0 0 0 0 0 0.12 0"/>
<feBlend mode="normal" in2="BackgroundImageFix" result="effect1_dropShadow_93_5120"/>
<feBlend mode="normal" in="SourceGraphic" in2="effect1_dropShadow_93_5120" result="shape"/>
</filter>
<filter id="filter5_d_93_5120" x="303.562" y="17.0981" width="77.6182" height="77.6182" filterUnits="userSpaceOnUse" color-interpolation-filters="sRGB">
<feFlood flood-opacity="0" result="BackgroundImageFix"/>
<feColorMatrix in="SourceAlpha" type="matrix" values="0 0 0 0 0 0 0 0 0 0 0 0 0 0 0 0 0 0 127 0" result="hardAlpha"/>
<feOffset dy="2.90718"/>
<feGaussianBlur stdDeviation="6.90455"/>
<feComposite in2="hardAlpha" operator="out"/>
<feColorMatrix type="matrix" values="0 0 0 0 0 0 0 0 0 0 0 0 0 0 0 0 0 0 0.12 0"/>
<feBlend mode="normal" in2="BackgroundImageFix" result="effect1_dropShadow_93_5120"/>
<feBlend mode="normal" in="SourceGraphic" in2="effect1_dropShadow_93_5120" result="shape"/>
</filter>
<filter id="filter6_d_93_5120" x="365.783" y="17.0981" width="77.6182" height="77.6182" filterUnits="userSpaceOnUse" color-interpolation-filters="sRGB">
<feFlood flood-opacity="0" result="BackgroundImageFix"/>
<feColorMatrix in="SourceAlpha" type="matrix" values="0 0 0 0 0 0 0 0 0 0 0 0 0 0 0 0 0 0 127 0" result="hardAlpha"/>
<feOffset dy="2.90718"/>
<feGaussianBlur stdDeviation="6.90455"/>
<feComposite in2="hardAlpha" operator="out"/>
<feColorMatrix type="matrix" values="0 0 0 0 0 0 0 0 0 0 0 0 0 0 0 0 0 0 0.12 0"/>
<feBlend mode="normal" in2="BackgroundImageFix" result="effect1_dropShadow_93_5120"/>
<feBlend mode="normal" in="SourceGraphic" in2="effect1_dropShadow_93_5120" result="shape"/>
</filter>
<filter id="filter7_d_93_5120" x="428.004" y="17.0981" width="77.6182" height="77.6182" filterUnits="userSpaceOnUse" color-interpolation-filters="sRGB">
<feFlood flood-opacity="0" result="BackgroundImageFix"/>
<feColorMatrix in="SourceAlpha" type="matrix" values="0 0 0 0 0 0 0 0 0 0 0 0 0 0 0 0 0 0 127 0" result="hardAlpha"/>
<feOffset dy="2.90718"/>
<feGaussianBlur stdDeviation="6.90455"/>
<feComposite in2="hardAlpha" operator="out"/>
<feColorMatrix type="matrix" values="0 0 0 0 0 0 0 0 0 0 0 0 0 0 0 0 0 0 0.12 0"/>
<feBlend mode="normal" in2="BackgroundImageFix" result="effect1_dropShadow_93_5120"/>
<feBlend mode="normal" in="SourceGraphic" in2="effect1_dropShadow_93_5120" result="shape"/>
</filter>
<filter id="filter8_d_93_5120" x="490.226" y="17.0981" width="77.6182" height="77.6182" filterUnits="userSpaceOnUse" color-interpolation-filters="sRGB">
<feFlood flood-opacity="0" result="BackgroundImageFix"/>
<feColorMatrix in="SourceAlpha" type="matrix" values="0 0 0 0 0 0 0 0 0 0 0 0 0 0 0 0 0 0 127 0" result="hardAlpha"/>
<feOffset dy="2.90718"/>
<feGaussianBlur stdDeviation="6.90455"/>
<feComposite in2="hardAlpha" operator="out"/>
<feColorMatrix type="matrix" values="0 0 0 0 0 0 0 0 0 0 0 0 0 0 0 0 0 0 0.12 0"/>
<feBlend mode="normal" in2="BackgroundImageFix" result="effect1_dropShadow_93_5120"/>
<feBlend mode="normal" in="SourceGraphic" in2="effect1_dropShadow_93_5120" result="shape"/>
</filter>
<linearGradient id="paint0_linear_93_5120" x1="-22.5" y1="52.2397" x2="602" y2="52.2397" gradientUnits="userSpaceOnUse">
<stop offset="0.00665399" stop-color="#D9D9D9" stop-opacity="0"/>
<stop offset="0.139891" stop-color="#C7C7C7"/>
<stop offset="0.49832" stop-color="#A6A6A6"/>
<stop offset="0.829673" stop-color="#838383"/>
<stop offset="1" stop-color="#737373" stop-opacity="0"/>
</linearGradient>
<linearGradient id="paint1_linear_93_5120" x1="106.152" y1="68.8048" x2="88.3385" y2="58.8007" gradientUnits="userSpaceOnUse">
<stop stop-color="white" stop-opacity="0.48"/>
<stop offset="0.38" stop-color="white" stop-opacity="0.66"/>
<stop offset="1" stop-color="white"/>
</linearGradient>
<linearGradient id="paint2_linear_93_5120" x1="80.7978" y1="37.1794" x2="98.6112" y2="47.1835" gradientUnits="userSpaceOnUse">
<stop stop-color="white" stop-opacity="0.5"/>
<stop offset="0.39" stop-color="white" stop-opacity="0.68"/>
<stop offset="1" stop-color="white"/>
</linearGradient>
<linearGradient id="paint3_linear_93_5120" x1="161.208" y1="47.2756" x2="155.438" y2="53.2183" gradientUnits="userSpaceOnUse">
<stop offset="0.15" stop-color="white" stop-opacity="0.4"/>
<stop offset="0.29" stop-color="white" stop-opacity="0.47"/>
<stop offset="0.56" stop-color="white" stop-opacity="0.66"/>
<stop offset="0.95" stop-color="white" stop-opacity="0.96"/>
<stop offset="1" stop-color="white"/>
</linearGradient>
<linearGradient id="paint4_linear_93_5120" x1="154.888" y1="54.0711" x2="148.216" y2="60.5538" gradientUnits="userSpaceOnUse">
<stop offset="0.15" stop-color="white" stop-opacity="0.4"/>
<stop offset="0.29" stop-color="white" stop-opacity="0.47"/>
<stop offset="0.56" stop-color="white" stop-opacity="0.66"/>
<stop offset="0.95" stop-color="white" stop-opacity="0.96"/>
<stop offset="1" stop-color="white"/>
</linearGradient>
<clipPath id="clip0_93_5120">
<rect width="28.125" height="21.875" fill="white" transform="translate(266.087 42.0625)"/>
</clipPath>
<clipPath id="clip1_93_5120">
<rect width="31.2499" height="20.0194" fill="white" transform="translate(326.746 43.3027)"/>
</clipPath>
<clipPath id="clip2_93_5120">
<rect width="27.8125" height="27.8125" fill="white" transform="translate(515.285 38.9375)"/>
</clipPath>
</defs>
</svg>
