<svg width="16" height="11" viewBox="0 0 16 11" fill="none" xmlns="http://www.w3.org/2000/svg">
<path d="M1.7282 7.00848C1.7282 7.61942 1.86229 8.08847 2.03756 8.37224C2.26735 8.74391 2.6101 8.90138 2.95952 8.90138C3.41021 8.90138 3.82251 8.78954 4.61705 7.69064C5.25358 6.80985 6.00362 5.57351 6.50828 4.79844L7.36292 3.48532C7.9566 2.57338 8.64376 1.5596 9.43163 0.872444C10.0748 0.311587 10.7687 0 11.467 0C12.6393 0 13.756 0.679371 14.6107 1.95354C15.546 3.34901 16 5.10669 16 6.92057C16 7.99889 15.7875 8.79121 15.4258 9.41716C15.0764 10.0225 14.3953 10.6273 13.2497 10.6273V8.90138C14.2306 8.90138 14.4754 8 14.4754 6.96842C14.4754 5.4984 14.1327 3.86702 13.3777 2.70135C12.8418 1.87453 12.1474 1.36931 11.3835 1.36931C10.5572 1.36931 9.89234 1.99249 9.14508 3.10363C8.74781 3.69398 8.33996 4.41341 7.88204 5.2252L7.37794 6.11824C6.36528 7.91376 6.10878 8.32271 5.60245 8.99763C4.71498 10.1794 3.95716 10.6273 2.95952 10.6273C1.77605 10.6273 1.02768 10.1149 0.564195 9.34261C0.185839 8.71331 0 7.88761 0 6.94672L1.7282 7.00848Z" fill="#343A40"/>
<path d="M1.36264 2.07539C2.15496 0.854083 3.29837 0 4.60982 0C5.36931 0 6.12436 0.224788 6.91278 0.868549C7.77521 1.5724 8.69439 2.73139 9.84115 4.64154L10.2523 5.32703C11.245 6.98066 11.8097 7.83141 12.1402 8.23258C12.5653 8.74781 12.863 8.90138 13.2497 8.90138C14.2306 8.90138 14.4754 8 14.4754 6.96842L16 6.92057C16 7.99889 15.7875 8.79121 15.4258 9.41716C15.0764 10.0225 14.3953 10.6273 13.2497 10.6273C12.5375 10.6273 11.9065 10.4727 11.2088 9.81444C10.6724 9.30922 10.0453 8.41174 9.56294 7.60495L8.12797 5.20796C7.40798 4.00501 6.74753 3.10808 6.36528 2.70191C5.9541 2.26513 5.42551 1.73765 4.582 1.73765C3.89929 1.73765 3.31952 2.21672 2.83433 2.94951L1.36264 2.07539Z" fill="#343A40"/>
<path d="M4.582 1.73765C3.89929 1.73765 3.31952 2.21672 2.83433 2.94951C2.14828 3.98498 1.7282 5.52733 1.7282 7.00848C1.7282 7.61942 1.86229 8.08847 2.03756 8.37224L0.564195 9.34261C0.185839 8.71331 0 7.88761 0 6.94672C0 5.23578 0.469606 3.4525 1.36264 2.07539C2.15496 0.854083 3.29837 0 4.60982 0L4.582 1.73765Z" fill="#343A40"/>
</svg>
