<svg width="24" height="24" viewBox="0 0 24 24" fill="none" xmlns="http://www.w3.org/2000/svg">
<g clip-path="url(#clip0_2721_7714)">
<path fill-rule="evenodd" clip-rule="evenodd" d="M5.61371 14.8678L11.1781 16.3564C11.1706 16.7521 11.1823 17.1478 11.2131 17.5423L14.6875 18.4716C13.657 18.8969 12.5398 19.0699 11.429 18.9762L11.324 18.9668L11.2983 18.9645L11.2493 18.9593L11.1945 18.9534C11.1639 18.9497 11.1334 18.9459 11.1029 18.9418L11.0405 18.9336L10.9763 18.9243C10.9139 18.9152 10.8517 18.9053 10.7896 18.8945L10.7651 18.8898L10.7214 18.8823L10.659 18.8706L10.6181 18.8618L10.5639 18.8508L10.5201 18.8414L10.4647 18.8298L10.4081 18.8163L10.3533 18.8035L10.3136 18.7936L10.2623 18.7808L10.2098 18.7668L10.1544 18.7522L10.1065 18.7388L10.043 18.7213L10.0068 18.7096L9.95779 18.695L9.90354 18.6787L9.84229 18.6588L9.80846 18.6478L9.76179 18.6326L9.70929 18.6145L9.67079 18.6005C9.66223 18.5976 9.65367 18.5947 9.64513 18.5918L9.60546 18.5772L9.54654 18.5556L9.51329 18.5428L9.46663 18.5253L9.41588 18.5048L9.36454 18.4844L9.31846 18.4658L9.26304 18.4424L9.22629 18.4261L9.18954 18.4103C9.18156 18.4069 9.17358 18.4034 9.16563 18.3998L9.12713 18.3823L9.06704 18.3549L9.03671 18.3409L8.98071 18.3141L8.94454 18.2966L8.89554 18.2733L8.84538 18.2476L8.79113 18.2202L8.76079 18.2044L8.70071 18.1723L8.66746 18.1548L8.63363 18.1362C8.62466 18.1312 8.61572 18.1261 8.60679 18.121L8.55196 18.0901L8.51696 18.0703L8.48721 18.0528L8.44521 18.0288L8.39738 17.9997L8.34313 17.967L8.31279 17.9483L8.26379 17.9174L8.22821 17.8947L8.18213 17.8655L8.14129 17.8381L8.11038 17.8177C8.09985 17.8107 8.08935 17.8037 8.07888 17.7967L8.05321 17.7792L8.02754 17.7617C8.01974 17.7563 8.01197 17.7508 8.00421 17.7453L7.97096 17.722L7.92663 17.6905L7.88638 17.6613L7.84321 17.6298L7.81054 17.6053L7.76621 17.5721L7.72188 17.5377L7.67171 17.4986L7.64546 17.4782L7.60813 17.4478L7.56496 17.4128L7.51304 17.3703L7.48621 17.3475L7.45938 17.3248C7.45099 17.3176 7.44263 17.3104 7.43429 17.3032L7.40804 17.2798L7.37246 17.2489L7.33163 17.2128L7.29196 17.1778L7.25579 17.1439L7.21671 17.1078L7.18579 17.0786L7.13446 17.0296C7.11511 17.0108 7.09586 16.992 7.07671 16.973L7.05979 16.9567L7.03588 16.9322L6.99563 16.8913L6.96646 16.8616L6.93729 16.8307C6.90397 16.7965 6.8713 16.7617 6.83929 16.7263L6.79263 16.6749L6.75646 16.6341L6.71504 16.5874L6.69054 16.5588L6.65963 16.5227L6.62579 16.483L6.59896 16.4503C6.59369 16.4439 6.58844 16.4375 6.58321 16.4311L6.55696 16.399L6.51846 16.3512L6.49454 16.3208L6.46538 16.2835L6.45371 16.2689C6.11994 15.8363 5.83802 15.366 5.61371 14.8678ZM5.01871 11.4879L11.6413 13.2595C11.5304 13.6457 11.4391 14.0372 11.3677 14.4326L17.6776 16.1208C17.3641 16.55 17.0031 16.9423 16.6014 17.2903L5.38329 14.2885L5.37396 14.2617L5.35354 14.201C5.34362 14.1713 5.3339 14.1416 5.32438 14.1118L5.32029 14.0983C5.27539 13.9556 5.23512 13.8114 5.19954 13.6661L5.18204 13.5926L5.17154 13.5459L5.15929 13.4893L5.14879 13.4421L5.13829 13.3896L5.12838 13.3406L5.11788 13.2858C5.10271 13.2035 5.08871 13.1207 5.07646 13.0373L5.06654 12.9684L5.06013 12.92L5.05254 12.8605C5.04864 12.8292 5.04494 12.7979 5.04146 12.7666L5.03854 12.7392C4.99496 12.3235 4.98832 11.9048 5.01871 11.4879ZM5.94796 8.48376L12.9176 10.3481C12.703 10.701 12.5064 11.0662 12.3285 11.4418L18.9172 13.2047C18.8344 13.683 18.7025 14.145 18.5275 14.5843L11.79 12.7818L5.07238 10.9851L5.08113 10.9268L5.08579 10.8982L5.09163 10.8591L5.10038 10.8083L5.11088 10.7512C5.12604 10.6648 5.14354 10.5791 5.16221 10.4933L5.17854 10.421L5.19021 10.3714L5.20421 10.3148C5.21704 10.2623 5.23046 10.2098 5.24504 10.1585L5.26138 10.099L5.27479 10.0506L5.29229 9.99226L5.30688 9.94443L5.32438 9.88843L5.33954 9.8406L5.35763 9.78518C5.50868 9.33206 5.70612 8.89575 5.94679 8.48318L5.94796 8.48376ZM8.53913 5.9171L15.122 7.6776C14.7747 7.99289 14.4459 8.32809 14.1374 8.68151L18.7008 9.90243C18.8565 10.3994 18.9586 10.9198 19 11.457L6.22854 8.04101L6.25479 8.0031L6.27054 7.97976L6.29388 7.94768L6.32071 7.90976L6.35279 7.86543L6.38429 7.82343L6.42163 7.77326L6.45079 7.73535L6.48404 7.69276L6.51613 7.65193L6.55113 7.60876L6.58321 7.56851L6.62113 7.5236L6.65263 7.4851L6.69113 7.44018L6.72204 7.40518L6.76404 7.35735L6.79496 7.32235L6.83404 7.27918L6.86554 7.24535L6.90813 7.19985L6.94196 7.16485L6.97871 7.12576L7.07671 7.0266L7.13504 6.96943L7.16946 6.93676L7.21379 6.89535C7.61582 6.51859 8.06064 6.19026 8.53913 5.9171ZM12.01 5.0001H12.0665L12.1144 5.00068L12.1546 5.00126L12.1861 5.00243L12.2258 5.0036L12.2526 5.00418L12.297 5.00593L12.3244 5.0071L12.3594 5.00885L12.3909 5.01001L12.4416 5.01293L12.5029 5.01701L12.5869 5.02343L12.6382 5.02751L12.6639 5.02985L12.7088 5.03451L12.7566 5.03918L12.784 5.0421L12.8435 5.0491L12.8727 5.0526L12.9357 5.06076L12.983 5.0666L13.0075 5.0701L13.0454 5.07593L13.1661 5.0946L13.207 5.1016L13.2449 5.10801L13.3265 5.12318L13.3802 5.13368L13.4444 5.14651L13.4712 5.15235L13.515 5.16168L13.5389 5.16751L13.575 5.1751L13.5995 5.18093L13.6375 5.18968L13.666 5.19668L13.7075 5.2066L13.7635 5.2206L13.8288 5.2381L13.8947 5.2556L13.9606 5.27426L13.9898 5.28301L14.0306 5.29468L14.0761 5.30868L14.1187 5.3221L14.1479 5.33143L14.177 5.34076L14.2214 5.35535L14.2791 5.3746L14.3386 5.3956L14.3666 5.40551L14.404 5.41893L14.4582 5.43876L14.5224 5.46268L14.59 5.48893L14.6484 5.51226L14.6758 5.52393L14.7108 5.53793L14.7347 5.54843L14.7715 5.5636L14.7948 5.5741L14.828 5.58868L14.8922 5.61668L14.9505 5.64351L14.9937 5.66393L15.0375 5.68493L15.0725 5.70126L15.1261 5.7281L15.1792 5.75435L15.2387 5.78468L15.2696 5.80101L15.2982 5.81618L15.325 5.83018L15.36 5.84943L15.384 5.86226L15.4143 5.87918L15.4656 5.90835L15.5275 5.94335L15.5782 5.9731L15.6115 5.99293L15.6424 6.0116L15.6984 6.04601L15.7497 6.0781L15.8069 6.11426L15.8279 6.12826L15.8652 6.15218L15.9142 6.18485L15.9375 6.2006L15.9737 6.2251L16.0099 6.25018L16.0233 6.2601C16.0548 6.28168 16.0863 6.30385 16.1172 6.3266L16.1656 6.3616L16.2035 6.3896L16.2362 6.41468L16.2864 6.4526L16.3342 6.48993L16.3575 6.50743L16.3867 6.53135L16.4369 6.5716L16.483 6.60951L16.5325 6.65093C16.9479 7.00093 17.3218 7.39935 17.6461 7.83568L9.21288 5.57993L9.24904 5.56418L9.28696 5.54785L9.33421 5.52801L9.38438 5.5076C9.45029 5.48135 9.51679 5.4551 9.58329 5.43118L9.63929 5.41076L9.69354 5.39151L9.74254 5.37401L9.79854 5.35593C9.84929 5.33843 9.90121 5.3221 9.95254 5.30635L10.0056 5.2906L10.0558 5.27601L10.1153 5.25851L10.1649 5.2451L10.2232 5.22993L10.2734 5.21593L10.3259 5.20251L10.379 5.18968L10.4344 5.17685L10.4869 5.16518L10.544 5.15293L10.5971 5.14126L10.6525 5.13076L10.7062 5.12026L10.7645 5.10976L10.8176 5.10043L10.8748 5.09051L10.9285 5.08235L10.985 5.0736L11.0387 5.06601L11.0982 5.05843L11.1513 5.05143L11.2125 5.04443L11.265 5.0386L11.3263 5.03276C11.3805 5.02693 11.4348 5.02226 11.4896 5.01876L11.5515 5.0141L11.604 5.01118L11.6681 5.00768L11.7224 5.00535L11.7807 5.00301L11.8373 5.00185L11.895 5.00068L12.01 4.99951V5.0001Z" fill="#343A40"/>
</g>
<defs>
<clipPath id="clip0_2721_7714">
<rect width="14" height="14" fill="white" transform="translate(5 5)"/>
</clipPath>
</defs>
</svg>
