<svg width="16" height="16" viewBox="0 0 16 16" fill="none" xmlns="http://www.w3.org/2000/svg">
<path d="M6.24503 5.94271V4.52055C6.24503 4.40078 6.28999 4.31092 6.39473 4.25111L9.25408 2.60441C9.64329 2.37987 10.1074 2.27513 10.5864 2.27513C12.3827 2.27513 13.5205 3.66737 13.5205 5.14934C13.5205 5.25411 13.5205 5.37388 13.5055 5.49366L10.5414 3.7571C10.3618 3.65237 10.1821 3.65237 10.0025 3.7571L6.24503 5.94271ZM12.9217 11.4817V8.08339C12.9217 7.87376 12.8318 7.72407 12.6522 7.6193L8.89473 5.43369L10.1223 4.73005C10.227 4.67024 10.3169 4.67024 10.4217 4.73005L13.281 6.37675C14.1044 6.85585 14.6582 7.87376 14.6582 8.86172C14.6582 9.9994 13.9846 11.0474 12.9217 11.4815V11.4817ZM5.36181 8.48767L4.13427 7.76915C4.02954 7.70934 3.98458 7.61945 3.98458 7.49968V4.20631C3.98458 2.60457 5.21212 1.39191 6.87382 1.39191C7.50265 1.39191 8.08635 1.60154 8.58049 1.97578L5.6314 3.68241C5.45182 3.78715 5.36197 3.93684 5.36197 4.1465V8.48779L5.36181 8.48767ZM8.00405 10.0146L6.24503 9.02658V6.93085L8.00405 5.94286L9.76294 6.93085V9.02658L8.00405 10.0146ZM9.13428 14.5655C8.50549 14.5655 7.92178 14.3559 7.42764 13.9817L10.3767 12.275C10.5563 12.1703 10.6462 12.0206 10.6462 11.8109V7.46964L11.8887 8.18816C11.9935 8.24796 12.0384 8.33782 12.0384 8.45762V11.751C12.0384 13.3527 10.7959 14.5654 9.13428 14.5654V14.5655ZM5.58635 11.2272L2.727 9.58055C1.90358 9.10142 1.34976 8.08354 1.34976 7.09556C1.34976 5.94287 2.0384 4.90995 3.1012 4.47578V7.88892C3.1012 8.09855 3.19109 8.24825 3.37067 8.35301L7.11325 10.5236L5.88571 11.2272C5.78097 11.287 5.69109 11.287 5.58635 11.2272ZM5.42178 13.6823C3.73015 13.6823 2.4876 12.4098 2.4876 10.838C2.4876 10.7182 2.50261 10.5984 2.51749 10.4787L5.46658 12.1853C5.64616 12.2901 5.8259 12.2901 6.00548 12.1853L9.76294 10.0147V11.4369C9.76294 11.5567 9.71802 11.6465 9.61325 11.7063L6.75392 13.353C6.36468 13.5776 5.90059 13.6823 5.42162 13.6823H5.42178ZM9.13428 15.4637C10.9457 15.4637 12.4576 14.1763 12.802 12.4696C14.4786 12.0355 15.5565 10.4636 15.5565 8.86187C15.5565 7.81392 15.1074 6.79604 14.299 6.06248C14.3739 5.74809 14.4188 5.43369 14.4188 5.11945C14.4188 2.97877 12.6822 1.37687 10.6762 1.37687C10.2721 1.37687 9.88287 1.43668 9.49363 1.5715C8.81988 0.912784 7.89173 0.493652 6.87382 0.493652C5.06245 0.493652 3.55057 1.781 3.20612 3.48763C1.5295 3.9218 0.45166 5.49366 0.45166 7.0954C0.45166 8.14335 0.900712 9.16123 1.70912 9.89479C1.63427 10.2092 1.58934 10.5236 1.58934 10.8379C1.58934 12.9785 3.3259 14.5804 5.33189 14.5804C5.73602 14.5804 6.12526 14.5206 6.5145 14.3858C7.18809 15.0445 8.11624 15.4637 9.13428 15.4637Z" fill="#343A40"/>
</svg>
