<svg width="24" height="24" viewBox="0 0 24 24" fill="none" xmlns="http://www.w3.org/2000/svg">
<rect width="24" height="24" rx="12" fill="#174ABE"/>
<path d="M5.72916 15.607C5.58942 15.8401 5.43248 16.1129 5.30994 16.3263C5.25259 16.4254 5.23555 16.5437 5.26248 16.6556C5.28941 16.7674 5.35817 16.864 5.45398 16.9246L8.24877 18.6844C8.29734 18.715 8.35139 18.7355 8.40777 18.7446C8.46415 18.7537 8.52174 18.7512 8.57717 18.7373C8.6326 18.7234 8.68477 18.6983 8.73063 18.6635C8.77649 18.6287 8.81512 18.585 8.84428 18.5348C8.95392 18.3434 9.09796 18.0948 9.2549 17.8287C10.3621 15.9589 11.4778 16.1877 13.4836 17.1688L16.2548 18.5172C16.3067 18.5425 16.3631 18.5569 16.4206 18.5595C16.4781 18.5621 16.5355 18.5528 16.5894 18.5323C16.6433 18.5118 16.6927 18.4804 16.7345 18.44C16.7764 18.3997 16.8099 18.3511 16.8331 18.2972L18.1639 15.2176C18.2091 15.1119 18.2118 14.9923 18.1716 14.8845C18.1314 14.7767 18.0514 14.6893 17.9489 14.6413C17.3641 14.3598 16.2011 13.7988 15.1541 13.2819C11.3789 11.4034 8.17783 11.5265 5.72916 15.607Z" fill="url(#paint0_linear_217_2663)"/>
<path d="M18.2609 8.39199C18.4006 8.15883 18.5575 7.88606 18.6908 7.67269C18.748 7.57326 18.7647 7.45484 18.7373 7.34293C18.71 7.23103 18.6408 7.13458 18.5446 7.07437L15.7498 5.31461C15.7014 5.28428 15.6475 5.26408 15.5913 5.25518C15.5352 5.24628 15.4778 5.24886 15.4227 5.26277C15.3675 5.27668 15.3156 5.30164 15.2699 5.33622C15.2242 5.37079 15.1856 5.41429 15.1565 5.46419C15.0447 5.65557 14.9006 5.90413 14.7437 6.1703C13.6365 8.04004 12.5229 7.81127 10.515 6.83021L7.73521 5.48839C7.68337 5.46344 7.62718 5.44934 7.56994 5.44692C7.5127 5.4445 7.45556 5.45381 7.40189 5.47431C7.34821 5.4948 7.29908 5.52606 7.25738 5.56625C7.21568 5.60644 7.18225 5.65476 7.15905 5.70836L5.8283 8.78794C5.78311 8.89366 5.78032 9.01331 5.82053 9.12111C5.86075 9.22892 5.94074 9.31624 6.04328 9.36426C6.62804 9.64582 7.79326 10.2067 8.83808 10.7237C12.6111 12.5868 15.8122 12.4636 18.2609 8.39199Z" fill="url(#paint1_linear_217_2663)"/>
<defs>
<linearGradient id="paint0_linear_217_2663" x1="18.08" y1="19.5862" x2="9.52955" y2="14.7843" gradientUnits="userSpaceOnUse">
<stop stop-color="white" stop-opacity="0.48"/>
<stop offset="0.38" stop-color="white" stop-opacity="0.66"/>
<stop offset="1" stop-color="white"/>
</linearGradient>
<linearGradient id="paint1_linear_217_2663" x1="5.90999" y1="4.40614" x2="14.4605" y2="9.20808" gradientUnits="userSpaceOnUse">
<stop stop-color="white" stop-opacity="0.5"/>
<stop offset="0.39" stop-color="white" stop-opacity="0.68"/>
<stop offset="1" stop-color="white"/>
</linearGradient>
</defs>
</svg>
