<svg width="18" height="18" viewBox="0 0 18 18" fill="none" xmlns="http://www.w3.org/2000/svg">
<g clip-path="url(#clip0_710_2269)">
<path d="M8.97422 0.749823H15.171C15.4448 0.74762 15.7164 0.799969 15.9697 0.903814C16.2231 1.00766 16.4533 1.16092 16.6468 1.35466C16.8403 1.5484 16.9933 1.77874 17.0969 2.03224C17.2005 2.28573 17.2525 2.55732 17.25 2.83114V9.0256C17.25 13.5688 13.569 17.2498 9.02578 17.2498H8.97886C7.89855 17.2508 6.82864 17.0388 5.8303 16.626C4.83195 16.2133 3.92474 15.6078 3.16052 14.8442C2.39631 14.0806 1.79006 13.174 1.37645 12.176C0.962839 11.178 0.749966 10.1082 0.75 9.02792C0.75 4.47186 4.42486 0.796744 8.97422 0.749823Z" fill="#25C16F"/>
<path d="M8.97452 4.42529C6.88804 4.42529 5.19653 6.11654 5.19653 8.20328V10.7721C5.21149 11.4597 5.76527 12.0135 6.45285 12.0284H7.52149V9.07752H6.07774V8.25252C6.16539 6.69894 7.4511 5.48361 9.00752 5.48361C10.5639 5.48361 11.8465 6.69662 11.9342 8.25252V9.07752H10.4698V12.0305H11.4353V12.0774C11.425 12.7153 10.9107 13.2298 10.2752 13.2376H9.12199C9.02814 13.2376 8.92502 13.2845 8.92502 13.3781C8.92729 13.4296 8.94877 13.4784 8.98523 13.5148C9.02169 13.5513 9.07048 13.5728 9.12199 13.5751H10.2821C11.1084 13.5699 11.7769 12.9014 11.7821 12.0751V11.9813C12.0581 11.9191 12.3045 11.7642 12.4801 11.5425C12.6558 11.3207 12.7502 11.0455 12.7476 10.7626V8.25252C12.7945 6.12454 11.1069 4.42761 8.96962 4.42761L8.97452 4.42529Z" fill="white"/>
</g>
<defs>
<clipPath id="clip0_710_2269">
<rect width="16.5" height="16.5" fill="white" transform="translate(0.75 0.75)"/>
</clipPath>
</defs>
</svg>
