<svg width="24" height="24" viewBox="0 0 24 24" fill="none" xmlns="http://www.w3.org/2000/svg">
<rect width="24" height="24" rx="12" fill="white"/>
<g clip-path="url(#clip0_557_165)">
<path d="M14.5681 8.86042L15.9821 7.4464L16.0764 6.851C13.4996 4.50798 9.40361 4.77365 7.0808 7.40535C6.43558 8.13628 5.95691 9.04755 5.70166 9.98856L6.2081 9.9172L9.03608 9.45086L9.25441 9.22757C10.5124 7.84602 12.6393 7.66015 14.0918 8.83563L14.5681 8.86042Z" fill="#EA4335"/>
<path d="M17.9965 9.94701C17.6715 8.75012 17.0042 7.67415 16.0764 6.85107L14.0918 8.83565C14.9298 9.52039 15.4072 10.5519 15.3868 11.6339V11.9862C16.3622 11.9862 17.1531 12.777 17.1531 13.7524C17.1531 14.7279 16.3622 15.4989 15.3868 15.4989H11.8493L11.502 15.8759V17.9945L11.8493 18.3269H15.3868C17.924 18.3466 19.9969 16.3256 20.0167 13.7884C20.0287 12.2504 19.2704 10.8087 17.9965 9.94701Z" fill="#4285F4"/>
<path d="M8.3174 18.3269H11.8499V15.4988H8.3174C8.06571 15.4988 7.82196 15.4447 7.59308 15.3401L7.09191 15.4939L5.66798 16.9079L5.54395 17.3892C6.34249 17.9921 7.31679 18.3312 8.3174 18.3269Z" fill="#34A853"/>
<path d="M8.31685 9.15311C5.77952 9.16823 3.73496 11.2374 3.75008 13.7747C3.75853 15.1916 4.42027 16.5254 5.54339 17.3891L7.59253 15.34C6.7035 14.9384 6.30845 13.8921 6.7101 13.0032C7.1117 12.1142 8.15799 11.7192 9.0469 12.1208C9.43864 12.2977 9.75235 12.6115 9.92932 13.0032L11.9784 10.9541C11.1066 9.81433 9.75184 9.14796 8.31685 9.15311Z" fill="#FBBC05"/>
</g>
<defs>
<clipPath id="clip0_557_165">
<rect width="16.267" height="13.0898" fill="white" transform="translate(3.75 5.25)"/>
</clipPath>
</defs>
</svg>
