<svg width="24" height="24" viewBox="0 0 24 24" fill="none" xmlns="http://www.w3.org/2000/svg">
<rect width="24" height="24" rx="12" fill="white"/>
<g clip-path="url(#clip0_217_2676)">
<path d="M6.17045 17.25H8.31818V11.841L5.25 9.45459V16.2955C5.25 16.8237 5.66267 17.25 6.17045 17.25Z" fill="#4285F4"/>
<path d="M15.6822 17.25H17.8299C18.3393 17.25 18.7504 16.8221 18.7504 16.2955V9.45459L15.6822 11.841" fill="#34A853"/>
<path d="M15.6822 7.70457V11.8409L18.7504 9.45457V8.18184C18.7504 7.00139 17.451 6.32843 16.5413 7.03639" fill="#FBBC04"/>
<path d="M8.3176 11.841V7.70459L11.9994 10.5682L15.6812 7.70459V11.841L11.9994 14.7046" fill="#EA4335"/>
<path d="M5.25 8.1816V9.45432L8.31818 11.8407V7.70432L7.45909 7.03614C6.54784 6.32819 5.25 7.00114 5.25 8.1816Z" fill="#C5221F"/>
</g>
<defs>
<clipPath id="clip0_217_2676">
<rect width="13.5" height="10.5" fill="white" transform="translate(5.25 6.75)"/>
</clipPath>
</defs>
</svg>
