<svg width="24" height="24" viewBox="0 0 24 24" fill="none" xmlns="http://www.w3.org/2000/svg">
<rect width="24" height="24" rx="12" fill="white"/>
<path d="M4.50009 14.4231C4.49736 14.6672 4.55854 14.9118 4.68364 15.1305L6.3574 18.0572C6.60256 18.4859 7.05592 18.75 7.54658 18.75H16.4527C16.9434 18.75 17.3967 18.4859 17.6419 18.0572L19.3156 15.1305C19.4407 14.9118 19.5019 14.6672 19.4992 14.4231H4.50009Z" fill="#4285F4"/>
<path d="M17.1449 18.5611L9.63702 5.44541C9.84616 5.31963 10.0883 5.25 10.3402 5.25H13.6592C14.1497 5.25 14.6029 5.51391 14.8481 5.94231L19.3154 13.7464C19.5605 14.1746 19.5606 14.7022 19.3157 15.1305L17.6419 18.0572C17.5204 18.2696 17.3478 18.4416 17.1449 18.5611Z" fill="#FBBC04"/>
<path d="M14.3623 5.44541C14.1532 5.31963 13.9111 5.25 13.6592 5.25H10.3401C9.84968 5.25 9.39647 5.51391 9.15124 5.94231L4.68392 13.7464C4.43879 14.1746 4.43869 14.7022 4.68364 15.1305L6.3574 18.0572C6.47889 18.2696 6.6515 18.4416 6.85443 18.5611L14.3623 5.44541Z" fill="#34A853"/>
<path d="M19.4999 14.4231C19.5026 14.6672 19.4414 14.9118 19.3164 15.1305L17.6426 18.0572C17.5211 18.2696 17.3485 18.4417 17.1456 18.5611L14.7768 14.4231H19.4999Z" fill="#EA4335"/>
<path d="M14.3624 5.44542C14.1532 5.31963 13.9111 5.25 13.6592 5.25H10.3402C10.0883 5.25 9.84616 5.31963 9.63702 5.44541L11.9997 9.57281L14.3624 5.44542Z" fill="#188038"/>
<path d="M4.50009 14.4231C4.49736 14.6672 4.55854 14.9118 4.68364 15.1305L6.3574 18.0572C6.47889 18.2696 6.65149 18.4417 6.85443 18.5611L9.2232 14.4231H4.50009Z" fill="#1967D2"/>
</svg>
