<svg width="24" height="24" viewBox="0 0 24 24" fill="none" xmlns="http://www.w3.org/2000/svg">
<rect width="24" height="24" rx="12" fill="white"/>
<path fill-rule="evenodd" clip-rule="evenodd" d="M16.0264 7.80868V9.68323C17.7175 9.94514 19.0683 11.2319 19.4148 12.911C19.7614 14.59 19.0307 16.3082 17.5821 17.2207C16.1335 18.1333 14.2716 18.0481 12.9118 17.0074L11.3913 18.5309C11.4306 18.6546 11.4516 18.7834 11.4533 18.9131C11.4533 19.4538 11.1283 19.9414 10.6296 20.1482C10.1311 20.3551 9.55735 20.2408 9.17576 19.8584C8.79416 19.476 8.67995 18.9011 8.88651 18.4015C9.09307 17.9019 9.57955 17.5762 10.1191 17.5762C10.2485 17.5781 10.3771 17.5991 10.5005 17.6384L12.0374 16.0984C11.0685 14.7169 11.0434 12.8816 11.9744 11.4742L6.92379 7.53448C6.68012 7.67675 6.40341 7.75221 6.12145 7.75326C5.2249 7.75217 4.49898 7.02304 4.5 6.12468C4.50102 5.22632 5.2288 4.49893 6.12535 4.5C7.0219 4.50107 7.74782 5.23021 7.74663 6.12856C7.7446 6.26565 7.72511 6.4019 7.68851 6.53402L12.8253 10.5388C13.3857 10.0873 14.0552 9.79214 14.766 9.68323V7.80868C14.2614 7.5725 13.9379 7.06587 13.9354 6.50775V6.464C13.9376 5.66855 14.5805 5.02426 15.3743 5.02212H15.4181C16.2119 5.02426 16.855 5.66855 16.857 6.464V6.50775C16.8546 7.06587 16.5312 7.5725 16.0264 7.80868ZM13.293 13.7415C13.293 14.9057 14.2348 15.8494 15.3967 15.8494C16.5584 15.8494 17.5004 14.9057 17.5004 13.7415C17.5004 12.5774 16.5584 11.6336 15.3967 11.6336C14.2348 11.6336 13.293 12.5774 13.293 13.7415Z" fill="#FF5C35"/>
</svg>
