<svg width="24" height="24" viewBox="0 0 24 24" fill="none" xmlns="http://www.w3.org/2000/svg">
<rect width="24" height="24" rx="12" fill="white"/>
<path fill-rule="evenodd" clip-rule="evenodd" d="M14.1146 3.78594L5.44297 4.42963C4.74338 4.49043 4.5 4.94985 4.5 5.50046V15.0543C4.5 15.4832 4.65155 15.8501 5.01717 16.3406L7.05558 19.0043C7.39049 19.4332 7.69499 19.5252 8.33439 19.4946L18.4045 18.882C19.256 18.821 19.5 18.4226 19.5 17.7491V7.00095C19.5 6.65288 19.3632 6.55255 18.9604 6.25551L16.1232 4.2452C15.4536 3.75586 15.1798 3.69396 14.1146 3.78578V3.78594ZM8.5621 6.82502C7.73981 6.88062 7.55331 6.89322 7.0863 6.5116L5.89901 5.56252C5.77834 5.43967 5.83899 5.28642 6.14302 5.25587L14.4793 4.64367C15.1793 4.58225 15.5438 4.82747 15.8176 5.04167L17.2473 6.08273C17.3085 6.11376 17.4605 6.29693 17.2776 6.29693L8.66867 6.81778L8.5621 6.82502ZM7.60346 17.6573V8.53293C7.60346 8.13446 7.72523 7.95066 8.08976 7.91979L17.9777 7.33799C18.313 7.3076 18.4646 7.52179 18.4646 7.91963V16.9832C18.4646 17.3816 18.4035 17.7187 17.856 17.7491L8.39394 18.3003C7.84653 18.3307 7.60362 18.1476 7.60362 17.6573H7.60346ZM16.9438 9.02212C17.0044 9.29774 16.9438 9.57337 16.6695 9.60486L16.2135 9.69574V16.4324C15.8175 16.6466 15.4529 16.769 15.1483 16.769C14.6614 16.769 14.5398 16.6157 14.1751 16.1568L11.1928 11.4413V16.0035L12.1362 16.2182C12.1362 16.2182 12.1362 16.7695 11.375 16.7695L9.27657 16.8918C9.21545 16.769 9.27657 16.463 9.48924 16.402L10.0373 16.2492V10.2171L9.27673 10.1552C9.21561 9.87954 9.36763 9.48154 9.7939 9.45067L12.0454 9.29837L15.1484 14.0748V9.84914L14.3575 9.7578C14.2964 9.42028 14.5398 9.17505 14.8438 9.14513L16.9438 9.02212Z" fill="black"/>
</svg>
