<svg width="24" height="24" viewBox="0 0 24 24" fill="none" xmlns="http://www.w3.org/2000/svg">
<rect width="24" height="24" rx="12" fill="white"/>
<g clip-path="url(#clip0_217_2699)">
<path d="M10.2193 10.014L10.2195 10.0135L13.3683 11.8996L15.2447 11.11C15.626 10.9452 16.0371 10.8607 16.4525 10.8611C16.5217 10.8611 16.5901 10.8642 16.6582 10.8687C16.4326 9.9891 15.9564 9.19392 15.2874 8.57982C14.6184 7.96573 13.7854 7.55916 12.8897 7.40953C11.994 7.25991 11.0741 7.37365 10.2419 7.73696C9.4096 8.10026 8.70077 8.69748 8.20151 9.45603C8.21755 9.45583 8.23334 9.45482 8.24942 9.45482C8.94535 9.45388 9.62767 9.64757 10.2193 10.014Z" fill="#0364B8"/>
<path d="M10.22 10.0135L10.2199 10.014C9.62823 9.64758 8.94591 9.45389 8.24998 9.45484C8.2339 9.45484 8.21808 9.45585 8.20206 9.45605C7.52092 9.46448 6.85496 9.65836 6.27574 10.0169C5.69651 10.3753 5.22593 10.8849 4.91455 11.4908C4.60317 12.0966 4.46277 12.7759 4.50843 13.4555C4.5541 14.1352 4.78411 14.7895 5.17374 15.3483L7.9506 14.1797L9.18501 13.6603L11.9335 12.5037L13.3689 11.8996L10.22 10.0135Z" fill="#0078D4"/>
<path d="M16.6583 10.8688C16.5903 10.8642 16.5219 10.8611 16.4527 10.8611C16.0373 10.8607 15.6262 10.9455 15.2449 11.1104L13.3685 11.8996L13.9126 12.2256L15.6962 13.2939L16.4743 13.76L19.1351 15.3538C19.3769 14.905 19.5021 14.4026 19.4995 13.8929C19.4968 13.3831 19.3663 12.8821 19.1199 12.4358C18.8734 11.9896 18.5189 11.6123 18.0889 11.3385C17.6588 11.0647 17.167 10.9032 16.6583 10.8688Z" fill="#1490DF"/>
<path d="M16.4746 13.76L15.6964 13.2939L13.9128 12.2256L13.3687 11.8997L11.9334 12.5037L9.18485 13.6603L7.95045 14.1798L5.17358 15.3483C5.51866 15.8444 5.97868 16.2497 6.51437 16.5294C7.05005 16.8092 7.64549 16.9551 8.24982 16.9548H16.4529C17.0029 16.955 17.5427 16.8062 18.015 16.5243C18.4873 16.2425 18.8744 15.838 19.1353 15.3538L16.4746 13.76Z" fill="#28A8EA"/>
</g>
<defs>
<clipPath id="clip0_217_2699">
<rect width="14.9999" height="9.60933" fill="white" transform="translate(4.5 7.34546)"/>
</clipPath>
</defs>
</svg>
