<svg width="24" height="24" viewBox="0 0 24 24" fill="none" xmlns="http://www.w3.org/2000/svg">
<rect width="24" height="24" rx="12" fill="white"/>
<g clip-path="url(#clip0_557_643)">
<path fill-rule="evenodd" clip-rule="evenodd" d="M17.1727 6.94043L14.5547 12.0322L17.1727 17.124L18.2451 16.5117V7.55273L17.1727 6.94043Z" fill="#E25444"/>
<path fill-rule="evenodd" clip-rule="evenodd" d="M17.1723 6.94043L11.9363 7.55273L9.271 12.0322L11.9363 16.5117L17.1723 17.124V6.94043Z" fill="#7B1D13"/>
<path fill-rule="evenodd" clip-rule="evenodd" d="M6.60652 6.94043L5.75488 7.32715V16.7373L6.60652 17.124L11.9371 12.0322L6.60652 6.94043Z" fill="#58150D"/>
<path fill-rule="evenodd" clip-rule="evenodd" d="M6.59473 6.92969L11.9438 8.44791V15.7526L6.59473 17.1276V6.92969Z" fill="#E25444"/>
<path fill-rule="evenodd" clip-rule="evenodd" d="M11.9466 9.25002L9.67529 8.87761L11.9466 6.24219L14.2122 8.87761L11.9466 9.25002Z" fill="#58150D"/>
<path fill-rule="evenodd" clip-rule="evenodd" d="M14.2122 8.87761L11.9438 9.25573L9.67529 8.87761V6.24219" fill="#58150D"/>
<path fill-rule="evenodd" clip-rule="evenodd" d="M11.9466 14.7786L9.67529 15.2083L11.9466 17.4713L14.2122 15.2083L11.9466 14.7786Z" fill="#58150D"/>
<path fill-rule="evenodd" clip-rule="evenodd" d="M11.937 4.26562L9.66602 5.49023V8.87402L11.9441 8.21876L11.937 4.26562Z" fill="#7B1D13"/>
<path fill-rule="evenodd" clip-rule="evenodd" d="M11.9438 10.0808L9.67529 10.3329V13.7115L11.9438 13.9766V10.0808Z" fill="#7B1D13"/>
<path fill-rule="evenodd" clip-rule="evenodd" d="M11.9438 15.7813L9.67529 15.2002V18.5216L11.9438 19.7345V15.7813Z" fill="#7B1D13"/>
<path fill-rule="evenodd" clip-rule="evenodd" d="M14.2123 15.2002L11.9438 15.7815V19.7345L14.2123 18.5216V15.2002Z" fill="#E25444"/>
<path fill-rule="evenodd" clip-rule="evenodd" d="M11.9438 10.0808L14.2123 10.3329V13.7115L11.9438 13.9766V10.0808Z" fill="#E25444"/>
<path fill-rule="evenodd" clip-rule="evenodd" d="M11.937 4.26562L14.208 5.49023V8.87402L11.937 8.22949V4.26562Z" fill="#E25444"/>
</g>
<defs>
<clipPath id="clip0_557_643">
<rect width="13.5" height="16.5" fill="white" transform="translate(5.25 3.75)"/>
</clipPath>
</defs>
</svg>
