<svg width="24" height="24" viewBox="0 0 24 24" fill="none" xmlns="http://www.w3.org/2000/svg">
<rect width="24" height="24" rx="12" fill="white"/>
<path fill-rule="evenodd" clip-rule="evenodd" d="M11.0403 7.98167C11.5487 7.44049 12.2563 7.10536 13.038 7.10536C14.0803 7.10536 14.9836 7.69746 15.47 8.5797C15.9018 8.38234 16.3694 8.28044 16.8423 8.28069C18.7184 8.28069 20.2413 9.84977 20.2413 11.7859C20.2413 13.7221 18.7184 15.2912 16.8423 15.2912C16.613 15.2912 16.3895 15.2676 16.1706 15.2231C15.745 15.9988 14.9315 16.5258 14.005 16.5258C13.6278 16.5265 13.2554 16.439 12.9164 16.27C12.485 17.3061 11.4804 18.0344 10.3107 18.0344C9.08893 18.0344 8.05244 17.2469 7.6529 16.1397C7.47508 16.1781 7.29382 16.1974 7.11208 16.1973C5.65867 16.1973 4.48322 14.9775 4.48322 13.4795C4.48322 12.4729 5.01246 11.5966 5.79765 11.1229C5.63107 10.7305 5.54533 10.3073 5.54576 9.87949C5.54576 8.15054 6.9181 6.75317 8.6089 6.75317C9.59907 6.75317 10.485 7.23574 11.0409 7.98475" fill="#00A1E0"/>
</svg>
