<svg width="24" height="24" viewBox="0 0 24 24" fill="none" xmlns="http://www.w3.org/2000/svg">
<rect width="24" height="24" rx="12" fill="white"/>
<g clip-path="url(#clip0_217_2713)">
<path d="M8.25919 13.6595C8.25919 14.4269 7.63899 15.0471 6.87163 15.0471C6.10427 15.0471 5.48407 14.4269 5.48407 13.6595C5.48407 12.8922 6.10427 12.272 6.87163 12.272H8.25919V13.6595ZM8.95297 13.6595C8.95297 12.8922 9.57316 12.272 10.3405 12.272C11.1079 12.272 11.7281 12.8922 11.7281 13.6595V17.1284C11.7281 17.8958 11.1079 18.516 10.3405 18.516C9.57316 18.516 8.95297 17.8958 8.95297 17.1284V13.6595Z" fill="#E01E5A"/>
<path d="M10.3406 8.08811C9.57321 8.08811 8.95301 7.46791 8.95301 6.70055C8.95301 5.93318 9.57321 5.31299 10.3406 5.31299C11.1079 5.31299 11.7281 5.93318 11.7281 6.70055V8.08811H10.3406ZM10.3406 8.7924C11.1079 8.7924 11.7281 9.41259 11.7281 10.18C11.7281 10.9473 11.1079 11.5675 10.3406 11.5675H6.86116C6.0938 11.5675 5.4736 10.9473 5.4736 10.18C5.4736 9.41259 6.0938 8.7924 6.86116 8.7924H10.3406Z" fill="#36C5F0"/>
<path d="M15.9013 10.18C15.9013 9.41259 16.5215 8.7924 17.2889 8.7924C18.0563 8.7924 18.6764 9.41259 18.6764 10.18C18.6764 10.9473 18.0563 11.5675 17.2889 11.5675H15.9013V10.18ZM15.2076 10.18C15.2076 10.9473 14.5874 11.5675 13.82 11.5675C13.0526 11.5675 12.4324 10.9473 12.4324 10.18V6.70055C12.4324 5.93318 13.0526 5.31299 13.82 5.31299C14.5874 5.31299 15.2076 5.93318 15.2076 6.70055V10.18Z" fill="#2EB67D"/>
<path d="M13.82 15.7409C14.5874 15.7409 15.2076 16.3611 15.2076 17.1284C15.2076 17.8958 14.5874 18.516 13.82 18.516C13.0526 18.516 12.4324 17.8958 12.4324 17.1284V15.7409H13.82ZM13.82 15.0471C13.0526 15.0471 12.4324 14.4269 12.4324 13.6595C12.4324 12.8922 13.0526 12.272 13.82 12.272H17.2994C18.0668 12.272 18.687 12.8922 18.687 13.6595C18.687 14.4269 18.0668 15.0471 17.2994 15.0471H13.82Z" fill="#ECB22E"/>
</g>
<defs>
<clipPath id="clip0_217_2713">
<rect width="13.35" height="13.35" fill="white" transform="translate(5.39999 5.25)"/>
</clipPath>
</defs>
</svg>
